<svg id="svg" version="1.1" width="400" height="400" viewBox="0 0 400 400" xmlns="http://www.w3.org/2000/svg" xmlns:xlink="http://www.w3.org/1999/xlink" ><g id="svgg"><path id="path0" d="M327.755 131.372 C 327.442 132.188,327.900 132.800,328.824 132.800 C 329.333 132.800,329.600 133.075,329.600 133.600 C 329.600 134.187,329.867 134.400,330.600 134.400 C 331.333 134.400,331.600 134.613,331.600 135.200 C 331.600 135.733,331.867 136.000,332.400 136.000 C 332.840 136.000,333.200 135.742,333.200 135.427 C 333.200 135.112,332.840 134.740,332.400 134.600 C 331.960 134.460,331.600 134.092,331.600 133.781 C 331.600 133.470,331.150 133.102,330.600 132.964 C 330.050 132.826,329.600 132.506,329.600 132.253 C 329.600 131.434,328.021 130.680,327.755 131.372 M318.700 138.276 C 318.315 138.376,318.000 138.694,318.000 138.983 C 318.000 139.271,317.640 139.601,317.200 139.716 C 316.760 139.831,316.400 140.183,316.400 140.498 C 316.400 140.814,315.950 141.277,315.400 141.527 C 314.850 141.778,314.400 142.257,314.400 142.591 C 314.400 142.933,314.049 143.200,313.600 143.200 C 313.083 143.200,312.800 143.467,312.800 143.953 C 312.800 144.370,312.443 144.800,312.000 144.916 C 311.560 145.031,311.200 145.400,311.200 145.736 C 311.200 146.071,310.849 146.457,310.420 146.594 C 309.992 146.730,309.530 147.192,309.394 147.620 C 309.257 148.049,308.883 148.400,308.560 148.400 C 308.238 148.400,307.864 148.715,307.729 149.100 C 307.594 149.485,307.105 150.114,306.642 150.497 C 305.918 151.096,305.884 151.250,306.400 151.591 C 307.249 152.153,307.600 152.094,307.600 151.390 C 307.600 151.055,308.050 150.609,308.600 150.400 C 309.150 150.191,309.600 149.757,309.600 149.437 C 309.600 149.116,309.960 148.740,310.400 148.600 C 310.840 148.460,311.200 148.071,311.200 147.736 C 311.200 147.400,311.554 147.033,311.987 146.919 C 312.419 146.806,312.875 146.392,313.000 146.000 C 313.125 145.608,313.581 145.194,314.013 145.081 C 314.480 144.959,314.800 144.534,314.800 144.037 C 314.800 143.467,315.055 143.200,315.600 143.200 C 316.133 143.200,316.400 142.933,316.400 142.400 C 316.400 141.867,316.667 141.600,317.200 141.600 C 317.787 141.600,318.000 141.333,318.000 140.600 C 318.000 139.867,318.213 139.600,318.800 139.600 C 319.333 139.600,319.600 139.333,319.600 138.800 C 319.600 138.360,319.555 138.021,319.500 138.046 C 319.445 138.072,319.085 138.175,318.700 138.276 M340.000 142.237 C 340.000 142.588,340.350 142.966,340.778 143.078 C 341.205 143.190,341.610 143.668,341.678 144.141 C 341.754 144.679,342.137 145.048,342.700 145.128 C 343.278 145.210,343.600 145.532,343.600 146.028 C 343.600 146.453,343.870 146.800,344.200 146.800 C 344.530 146.800,344.800 146.986,344.800 147.213 C 344.800 147.725,347.436 150.400,347.940 150.400 C 348.142 150.400,348.401 150.760,348.516 151.200 C 348.641 151.679,349.062 152.000,349.563 152.000 C 350.133 152.000,350.400 152.255,350.400 152.800 C 350.400 153.333,350.667 153.600,351.200 153.600 C 351.733 153.600,352.000 153.867,352.000 154.400 C 352.000 154.987,352.267 155.200,353.000 155.200 C 354.419 155.200,354.200 154.037,352.675 153.474 C 352.276 153.326,352.049 153.045,352.170 152.848 C 352.451 152.394,351.421 151.512,351.047 151.886 C 350.894 152.039,350.666 151.774,350.541 151.296 C 350.416 150.818,349.992 150.325,349.600 150.200 C 349.208 150.075,348.794 149.619,348.681 149.187 C 348.567 148.754,348.200 148.400,347.864 148.400 C 347.529 148.400,347.143 148.049,347.006 147.620 C 346.870 147.192,346.408 146.730,345.980 146.594 C 345.551 146.457,345.200 146.100,345.200 145.800 C 345.200 145.500,344.859 145.146,344.443 145.014 C 344.027 144.882,343.594 144.419,343.481 143.987 C 343.367 143.554,342.941 143.200,342.534 143.200 C 342.126 143.200,341.568 142.840,341.293 142.400 C 340.693 141.440,340.000 141.353,340.000 142.237 M354.000 156.267 C 354.000 156.560,354.270 156.800,354.600 156.800 C 354.930 156.800,355.200 156.560,355.200 156.267 C 355.200 155.973,354.930 155.733,354.600 155.733 C 354.270 155.733,354.000 155.973,354.000 156.267 M356.000 157.800 C 356.000 158.130,356.292 158.400,356.649 158.400 C 357.180 158.400,357.208 158.291,356.800 157.800 C 356.526 157.470,356.234 157.200,356.151 157.200 C 356.068 157.200,356.000 157.470,356.000 157.800 M362.619 162.770 C 362.239 163.385,362.723 164.000,363.586 164.000 C 364.128 164.000,364.269 164.213,364.116 164.800 C 363.920 165.551,364.154 165.682,365.500 165.576 C 365.665 165.563,365.897 165.968,366.016 166.476 C 366.145 167.027,366.581 167.451,367.094 167.525 C 367.671 167.609,367.880 167.848,367.726 168.249 C 367.577 168.637,367.796 168.926,368.348 169.071 C 368.837 169.198,369.200 169.614,369.200 170.047 C 369.200 170.461,369.474 170.800,369.809 170.800 C 370.143 170.800,370.622 171.250,370.873 171.800 C 371.123 172.350,371.660 172.800,372.064 172.800 C 372.533 172.800,372.800 173.090,372.800 173.600 C 372.800 174.124,373.067 174.400,373.573 174.400 C 373.998 174.400,374.460 174.760,374.600 175.200 C 374.740 175.640,375.100 176.000,375.400 176.000 C 375.700 176.000,376.064 176.370,376.207 176.823 C 376.351 177.276,376.903 177.811,377.434 178.013 C 377.965 178.215,378.400 178.655,378.400 178.990 C 378.400 179.333,378.750 179.600,379.200 179.600 C 379.733 179.600,380.000 179.867,380.000 180.400 C 380.000 180.933,380.267 181.200,380.800 181.200 C 382.029 181.200,381.677 179.991,380.300 179.483 C 379.915 179.341,379.600 178.949,379.600 178.613 C 379.600 178.270,379.253 178.000,378.813 178.000 C 378.282 178.000,378.099 177.807,378.252 177.409 C 378.397 177.032,378.104 176.648,377.439 176.345 C 376.868 176.085,376.400 175.540,376.400 175.136 C 376.400 174.667,376.110 174.400,375.600 174.400 C 375.160 174.400,374.800 174.193,374.800 173.940 C 374.800 173.398,372.208 170.800,371.666 170.800 C 371.461 170.800,371.199 170.440,371.084 170.000 C 370.959 169.521,370.538 169.200,370.037 169.200 C 369.577 169.200,369.200 169.024,369.200 168.809 C 369.200 168.594,368.246 167.469,367.080 166.309 C 363.614 162.861,362.908 162.301,362.619 162.770 M311.200 167.167 C 311.200 167.962,311.711 168.800,312.196 168.800 C 312.477 168.800,312.801 169.160,312.916 169.600 C 313.045 170.094,313.462 170.400,314.005 170.400 C 314.632 170.400,314.818 170.577,314.650 171.013 C 314.495 171.417,314.742 171.750,315.373 171.990 C 315.900 172.190,316.449 172.724,316.593 173.177 C 316.736 173.630,317.091 174.000,317.380 174.000 C 317.670 174.000,318.001 174.360,318.116 174.800 C 318.231 175.240,318.600 175.600,318.936 175.600 C 319.271 175.600,319.654 175.941,319.786 176.357 C 319.918 176.773,320.381 177.206,320.813 177.319 C 321.246 177.433,321.600 177.812,321.600 178.163 C 321.600 178.513,321.773 178.800,321.984 178.800 C 322.195 178.800,322.781 179.246,323.286 179.790 C 324.233 180.812,327.192 181.758,326.639 180.862 C 326.481 180.608,326.114 180.400,325.823 180.400 C 325.532 180.400,325.199 180.040,325.084 179.600 C 324.969 179.160,324.588 178.800,324.237 178.800 C 323.887 178.800,323.600 178.526,323.600 178.190 C 323.600 177.855,323.150 177.409,322.600 177.200 C 322.050 176.991,321.600 176.545,321.600 176.210 C 321.600 175.874,321.326 175.600,320.990 175.600 C 320.655 175.600,320.218 175.175,320.021 174.655 C 319.823 174.135,319.288 173.612,318.831 173.492 C 318.374 173.373,318.000 172.988,318.000 172.637 C 318.000 172.267,317.665 172.000,317.200 172.000 C 316.667 172.000,316.400 171.733,316.400 171.200 C 316.400 170.667,316.133 170.400,315.600 170.400 C 314.884 170.400,314.613 169.984,314.753 169.100 C 314.779 168.935,314.350 168.800,313.800 168.800 C 313.000 168.800,312.800 168.600,312.800 167.800 C 312.800 167.067,312.587 166.800,312.000 166.800 C 311.560 166.800,311.200 166.965,311.200 167.167 M388.655 187.400 C 388.496 187.815,388.682 188.000,389.262 188.000 C 389.960 188.000,390.016 187.901,389.600 187.400 C 389.326 187.070,389.053 186.800,388.994 186.800 C 388.934 186.800,388.782 187.070,388.655 187.400 M390.400 189.400 C 390.400 189.733,390.756 190.000,391.200 190.000 C 391.733 190.000,392.000 190.267,392.000 190.800 C 392.000 191.250,392.267 191.600,392.610 191.600 C 392.945 191.600,393.391 192.050,393.600 192.600 C 393.809 193.150,394.255 193.600,394.590 193.600 C 394.933 193.600,395.200 193.950,395.200 194.400 C 395.200 194.865,395.467 195.200,395.837 195.200 C 396.188 195.200,396.569 195.560,396.684 196.000 C 396.804 196.460,397.230 196.800,397.684 196.800 C 398.138 196.800,398.564 197.140,398.684 197.600 C 398.799 198.040,399.142 198.400,399.447 198.400 C 400.429 198.400,400.035 197.090,398.674 195.828 C 397.944 195.153,397.230 194.285,397.086 193.900 C 396.943 193.515,396.562 193.200,396.240 193.200 C 395.917 193.200,395.541 192.844,395.403 192.408 C 395.264 191.973,395.027 191.634,394.876 191.655 C 394.058 191.772,393.600 191.533,393.600 190.990 C 393.600 190.655,393.167 190.216,392.639 190.015 C 392.110 189.814,391.560 189.458,391.415 189.225 C 391.029 188.600,390.400 188.708,390.400 189.400 M395.600 206.000 C 395.600 206.587,395.333 206.800,394.600 206.800 C 393.867 206.800,393.600 207.013,393.600 207.600 C 393.600 208.117,393.333 208.400,392.847 208.400 C 392.430 208.400,392.000 208.757,391.884 209.200 C 391.769 209.640,391.400 210.000,391.064 210.000 C 390.729 210.000,390.343 210.351,390.206 210.780 C 390.070 211.208,389.608 211.670,389.180 211.806 C 388.751 211.943,388.400 212.402,388.400 212.827 C 388.400 213.324,388.124 213.600,387.627 213.600 C 387.202 213.600,386.746 213.941,386.614 214.357 C 386.482 214.773,386.019 215.206,385.587 215.319 C 385.154 215.433,384.800 215.792,384.800 216.119 C 384.800 216.446,384.350 216.826,383.800 216.964 C 383.250 217.102,382.800 217.463,382.800 217.765 C 382.800 218.067,382.530 218.418,382.200 218.545 C 381.575 218.785,381.347 220.400,381.938 220.400 C 382.124 220.400,382.602 220.040,383.000 219.600 C 383.398 219.160,383.966 218.800,384.262 218.800 C 384.558 218.800,384.800 218.633,384.800 218.428 C 384.800 217.884,387.417 215.200,387.947 215.200 C 388.196 215.200,388.400 214.926,388.400 214.590 C 388.400 214.255,388.850 213.809,389.400 213.600 C 389.950 213.391,390.400 212.945,390.400 212.610 C 390.400 212.274,390.674 212.000,391.010 212.000 C 391.345 212.000,391.782 211.575,391.979 211.055 C 392.177 210.535,392.731 210.007,393.210 209.882 C 393.727 209.746,393.967 209.470,393.800 209.200 C 393.636 208.935,393.848 208.660,394.311 208.539 C 394.746 208.425,395.301 207.897,395.543 207.366 C 395.785 206.835,396.147 206.400,396.349 206.400 C 396.550 206.400,396.818 206.130,396.945 205.800 C 397.101 205.392,396.923 205.200,396.387 205.200 C 395.867 205.200,395.600 205.471,395.600 206.000 M325.384 219.227 C 325.239 219.461,325.220 219.753,325.343 219.876 C 325.672 220.205,326.800 219.691,326.800 219.213 C 326.800 218.670,325.721 218.680,325.384 219.227 M317.067 227.067 C 316.606 227.527,316.775 228.000,317.400 228.000 C 317.730 228.000,318.000 227.730,318.000 227.400 C 318.000 226.775,317.527 226.606,317.067 227.067 M371.200 228.400 C 371.200 228.933,370.933 229.200,370.400 229.200 C 369.950 229.200,369.600 229.467,369.600 229.810 C 369.600 230.145,369.150 230.591,368.600 230.800 C 368.050 231.009,367.600 231.455,367.600 231.790 C 367.600 232.126,367.326 232.400,366.990 232.400 C 366.655 232.400,366.209 232.850,366.000 233.400 C 365.791 233.950,365.328 234.400,364.972 234.400 C 364.616 234.400,364.235 234.743,364.126 235.163 C 364.016 235.583,363.583 236.016,363.163 236.126 C 362.743 236.235,362.400 236.591,362.400 236.916 C 362.400 237.241,362.040 237.601,361.600 237.716 C 361.121 237.841,360.800 238.262,360.800 238.763 C 360.800 239.346,360.546 239.600,359.963 239.600 C 359.475 239.600,359.042 239.919,358.926 240.363 C 358.816 240.783,358.383 241.216,357.963 241.326 C 357.042 241.566,356.937 242.800,357.837 242.800 C 358.188 242.800,358.569 242.440,358.684 242.000 C 358.799 241.560,359.110 241.200,359.375 241.200 C 359.639 241.200,360.247 240.750,360.725 240.200 C 361.203 239.650,361.776 239.200,361.997 239.200 C 362.219 239.200,362.400 238.930,362.400 238.600 C 362.400 238.270,362.666 238.000,362.991 238.000 C 363.316 238.000,363.876 237.550,364.237 237.000 C 364.597 236.450,365.141 236.000,365.446 236.000 C 365.751 236.000,366.000 235.640,366.000 235.200 C 366.000 234.667,366.267 234.400,366.800 234.400 C 367.240 234.400,367.600 234.229,367.600 234.021 C 367.600 233.812,368.050 233.156,368.600 232.562 C 369.150 231.969,369.600 231.350,369.600 231.188 C 369.600 231.026,369.960 230.799,370.400 230.684 C 370.840 230.569,371.200 230.188,371.200 229.837 C 371.200 229.487,371.464 229.200,371.786 229.200 C 372.108 229.200,372.565 228.840,372.800 228.400 C 373.176 227.698,373.104 227.600,372.214 227.600 C 371.467 227.600,371.200 227.810,371.200 228.400 M313.300 230.199 C 312.145 231.384,311.200 232.543,311.200 232.776 C 311.200 233.009,310.936 233.200,310.614 233.200 C 310.292 233.200,309.842 233.548,309.614 233.973 C 309.387 234.398,308.884 234.846,308.497 234.969 C 308.110 235.092,307.608 235.599,307.382 236.096 C 307.156 236.593,306.752 236.955,306.485 236.900 C 306.218 236.845,306.000 237.150,306.000 237.577 C 306.000 238.005,305.641 238.606,305.203 238.913 C 304.764 239.220,304.524 239.591,304.669 239.736 C 305.138 240.205,305.502 240.019,305.716 239.200 C 305.841 238.721,306.262 238.400,306.763 238.400 C 307.333 238.400,307.600 238.145,307.600 237.600 C 307.600 237.083,307.867 236.800,308.353 236.800 C 308.779 236.800,309.201 236.439,309.324 235.970 C 309.443 235.514,309.914 235.043,310.370 234.924 C 310.839 234.801,311.200 234.379,311.200 233.953 C 311.200 233.467,311.483 233.200,312.000 233.200 C 312.450 233.200,312.800 232.933,312.800 232.590 C 312.800 232.255,313.250 231.809,313.800 231.600 C 314.350 231.391,314.800 230.966,314.800 230.657 C 314.800 230.347,315.160 229.999,315.600 229.884 C 316.474 229.656,316.744 227.984,315.900 228.023 C 315.625 228.036,314.455 229.015,313.300 230.199 M302.400 245.437 C 302.400 245.788,302.738 246.163,303.151 246.271 C 303.564 246.379,304.101 246.903,304.343 247.434 C 304.585 247.965,305.036 248.400,305.345 248.400 C 305.654 248.400,306.001 248.760,306.116 249.200 C 306.231 249.640,306.612 250.000,306.963 250.000 C 307.313 250.000,307.600 250.220,307.600 250.490 C 307.600 250.987,310.311 253.600,310.826 253.600 C 310.980 253.600,311.201 253.960,311.316 254.400 C 311.431 254.840,311.812 255.200,312.163 255.200 C 312.533 255.200,312.800 254.865,312.800 254.400 C 312.800 253.867,312.533 253.600,312.000 253.600 C 311.455 253.600,311.200 253.333,311.200 252.763 C 311.200 252.262,310.879 251.841,310.400 251.716 C 309.960 251.601,309.600 251.187,309.600 250.797 C 309.600 250.373,309.197 249.986,308.600 249.836 C 307.954 249.674,307.600 249.304,307.600 248.792 C 307.600 248.267,307.331 248.000,306.800 248.000 C 306.267 248.000,306.000 247.733,306.000 247.200 C 306.000 246.683,305.733 246.400,305.247 246.400 C 304.830 246.400,304.400 246.043,304.284 245.600 C 304.030 244.630,302.400 244.489,302.400 245.437 M348.800 249.049 C 348.800 249.547,348.925 249.594,349.337 249.252 C 349.632 249.007,349.992 248.925,350.137 249.070 C 350.282 249.215,350.400 249.123,350.400 248.867 C 350.400 248.610,350.040 248.400,349.600 248.400 C 349.129 248.400,348.800 248.667,348.800 249.049 M347.200 250.604 C 347.200 250.973,346.826 251.373,346.369 251.492 C 345.912 251.612,345.377 252.135,345.179 252.655 C 344.982 253.175,344.566 253.600,344.257 253.600 C 343.947 253.600,343.599 253.960,343.484 254.400 C 343.359 254.879,342.938 255.200,342.437 255.200 C 341.867 255.200,341.600 255.455,341.600 256.000 C 341.600 256.533,341.333 256.800,340.800 256.800 C 340.267 256.800,340.000 257.067,340.000 257.600 C 340.000 258.131,339.733 258.400,339.208 258.400 C 338.704 258.400,338.327 258.751,338.174 259.362 C 338.041 259.891,337.587 260.415,337.166 260.525 C 336.745 260.635,336.400 261.012,336.400 261.363 C 336.400 262.285,338.029 262.176,338.274 261.237 C 338.384 260.817,338.817 260.384,339.237 260.274 C 339.657 260.165,340.000 259.800,340.000 259.464 C 340.000 259.129,340.341 258.746,340.757 258.614 C 341.173 258.482,341.608 258.014,341.722 257.575 C 341.837 257.136,342.082 256.804,342.266 256.836 C 343.171 256.995,343.600 256.727,343.600 256.000 C 343.600 255.467,343.867 255.200,344.400 255.200 C 344.897 255.200,345.200 254.933,345.200 254.495 C 345.200 254.107,345.605 253.610,346.100 253.391 C 346.595 253.171,346.975 252.678,346.944 252.296 C 346.909 251.852,347.173 251.600,347.674 251.600 C 348.191 251.600,348.415 251.373,348.329 250.933 C 348.155 250.036,347.200 249.758,347.200 250.604 M334.800 263.049 C 334.800 263.580,334.909 263.608,335.400 263.200 C 335.730 262.926,336.000 262.634,336.000 262.551 C 336.000 262.468,335.730 262.400,335.400 262.400 C 335.070 262.400,334.800 262.692,334.800 263.049 M333.200 264.649 C 333.200 265.180,333.309 265.208,333.800 264.800 C 334.130 264.526,334.400 264.234,334.400 264.151 C 334.400 264.068,334.130 264.000,333.800 264.000 C 333.470 264.000,333.200 264.292,333.200 264.649 M322.000 265.751 C 322.000 265.834,322.270 266.126,322.600 266.400 C 323.091 266.808,323.200 266.780,323.200 266.249 C 323.200 265.892,322.930 265.600,322.600 265.600 C 322.270 265.600,322.000 265.668,322.000 265.751 M323.434 267.546 C 323.187 267.945,324.204 269.200,324.774 269.200 C 324.948 269.200,325.070 268.797,325.045 268.305 C 324.999 267.385,323.863 266.850,323.434 267.546 M325.800 269.600 C 325.936 269.820,326.307 270.000,326.624 270.000 C 326.941 270.000,327.200 269.820,327.200 269.600 C 327.200 269.380,326.829 269.200,326.376 269.200 C 325.923 269.200,325.664 269.380,325.800 269.600 " stroke="none" fill="#999999" fill-rule="evenodd"></path><path id="path1" d="" stroke="none" fill="#ffffff" fill-rule="evenodd"></path><path id="path2" d="M324.919 131.587 C 324.806 132.019,324.373 132.482,323.957 132.614 C 323.541 132.746,323.200 133.202,323.200 133.627 C 323.200 134.124,322.924 134.400,322.427 134.400 C 322.002 134.400,321.546 134.741,321.414 135.157 C 321.282 135.573,320.819 136.006,320.387 136.119 C 319.954 136.233,319.600 136.584,319.600 136.901 C 319.600 137.218,319.195 137.690,318.700 137.949 L 317.800 138.421 318.700 138.248 C 319.379 138.117,319.600 138.262,319.600 138.837 C 319.600 139.333,319.320 139.600,318.800 139.600 C 318.213 139.600,318.000 139.867,318.000 140.600 C 318.000 141.333,317.787 141.600,317.200 141.600 C 316.667 141.600,316.400 141.867,316.400 142.400 C 316.400 142.933,316.133 143.200,315.600 143.200 C 315.055 143.200,314.800 143.467,314.800 144.037 C 314.800 144.534,314.480 144.959,314.013 145.081 C 313.581 145.194,313.125 145.608,313.000 146.000 C 312.875 146.392,312.419 146.806,311.987 146.919 C 311.554 147.033,311.200 147.400,311.200 147.736 C 311.200 148.071,310.840 148.460,310.400 148.600 C 309.960 148.740,309.600 149.116,309.600 149.437 C 309.600 149.757,309.150 150.191,308.600 150.400 C 308.050 150.609,307.600 151.067,307.600 151.417 C 307.600 151.879,307.373 151.982,306.772 151.791 C 306.148 151.593,305.891 151.731,305.729 152.351 C 305.610 152.803,305.173 153.282,304.757 153.414 C 304.341 153.546,304.000 154.002,304.000 154.427 C 304.000 154.933,303.724 155.200,303.200 155.200 C 302.489 155.200,302.400 155.467,302.400 157.600 C 302.400 159.733,302.489 160.000,303.200 160.000 C 303.724 160.000,304.000 160.267,304.000 160.773 C 304.000 161.198,304.351 161.657,304.780 161.794 C 305.208 161.930,305.670 162.392,305.806 162.820 C 305.943 163.249,306.402 163.600,306.827 163.600 C 307.333 163.600,307.600 163.876,307.600 164.400 C 307.600 164.933,307.867 165.200,308.400 165.200 C 308.924 165.200,309.200 165.467,309.200 165.973 C 309.200 166.398,309.534 166.852,309.943 166.982 C 310.351 167.112,310.887 167.619,311.132 168.109 C 311.550 168.943,311.564 168.930,311.346 167.900 C 311.150 166.974,311.247 166.800,311.957 166.800 C 312.590 166.800,312.800 167.050,312.800 167.800 C 312.800 168.592,313.002 168.800,313.771 168.800 C 314.627 168.800,314.726 168.953,314.606 170.100 C 314.531 170.815,314.559 171.175,314.668 170.900 C 315.001 170.060,316.400 170.303,316.400 171.200 C 316.400 171.733,316.667 172.000,317.200 172.000 C 317.650 172.000,318.000 172.267,318.000 172.610 C 318.000 172.945,318.450 173.391,319.000 173.600 C 319.550 173.809,320.000 174.272,320.000 174.628 C 320.000 174.984,320.360 175.369,320.800 175.484 C 321.240 175.599,321.600 175.947,321.600 176.257 C 321.600 176.566,322.050 176.991,322.600 177.200 C 323.150 177.409,323.600 177.834,323.600 178.143 C 323.600 178.453,323.960 178.801,324.400 178.916 C 324.840 179.031,325.200 179.391,325.200 179.716 C 325.200 180.041,325.605 180.461,326.100 180.651 C 326.605 180.844,255.313 181.040,163.500 181.098 L 0.000 181.201 0.000 200.200 L 0.000 219.200 162.400 219.200 C 324.533 219.200,324.800 219.201,324.800 220.000 C 324.800 220.533,324.533 220.800,324.000 220.800 C 323.413 220.800,323.200 221.067,323.200 221.800 C 323.200 222.532,322.986 222.800,322.403 222.800 C 321.430 222.800,319.117 225.128,319.472 225.751 C 319.613 225.998,319.586 226.071,319.412 225.914 C 318.818 225.378,317.661 226.347,317.883 227.195 C 318.034 227.772,317.898 228.000,317.404 228.000 C 316.945 228.000,316.794 227.792,316.953 227.379 C 317.089 227.023,317.022 226.863,316.795 227.003 C 316.578 227.137,316.400 227.793,316.400 228.461 C 316.400 229.338,316.178 229.733,315.600 229.884 C 315.160 229.999,314.800 230.347,314.800 230.657 C 314.800 230.966,314.350 231.391,313.800 231.600 C 313.250 231.809,312.800 232.276,312.800 232.637 C 312.800 233.108,312.538 233.243,311.869 233.115 C 311.089 232.966,310.964 233.080,311.104 233.813 C 311.227 234.452,311.038 234.749,310.406 234.914 C 309.930 235.039,309.443 235.514,309.324 235.970 C 309.201 236.439,308.779 236.800,308.353 236.800 C 307.867 236.800,307.600 237.083,307.600 237.600 C 307.600 238.612,306.136 238.697,305.876 237.700 C 305.702 237.033,305.691 237.033,305.646 237.700 C 305.619 238.118,305.278 238.400,304.800 238.400 C 304.267 238.400,304.000 238.667,304.000 239.200 C 304.000 239.733,303.733 240.000,303.200 240.000 C 302.489 240.000,302.400 240.267,302.400 242.400 C 302.400 244.569,302.481 244.800,303.237 244.800 C 303.738 244.800,304.159 245.121,304.284 245.600 C 304.400 246.043,304.830 246.400,305.247 246.400 C 305.733 246.400,306.000 246.683,306.000 247.200 C 306.000 247.733,306.267 248.000,306.800 248.000 C 307.331 248.000,307.600 248.267,307.600 248.792 C 307.600 249.304,307.954 249.674,308.600 249.836 C 309.197 249.986,309.600 250.373,309.600 250.797 C 309.600 251.187,309.970 251.603,310.421 251.721 C 311.099 251.899,311.221 252.204,311.121 253.465 C 311.021 254.730,311.156 255.063,311.900 255.392 C 312.395 255.611,312.800 256.107,312.800 256.495 C 312.800 256.933,313.103 257.200,313.600 257.200 C 314.065 257.200,314.400 257.467,314.400 257.837 C 314.400 258.188,314.743 258.565,315.163 258.674 C 315.583 258.784,316.019 259.231,316.133 259.667 C 316.247 260.103,316.714 260.557,317.170 260.676 C 317.639 260.799,318.000 261.221,318.000 261.647 C 318.000 262.118,318.282 262.400,318.753 262.400 C 319.170 262.400,319.600 262.757,319.716 263.200 C 319.831 263.640,320.212 264.000,320.563 264.000 C 320.913 264.000,321.200 264.250,321.200 264.556 C 321.200 264.861,321.515 265.455,321.900 265.875 C 322.285 266.294,322.443 266.404,322.251 266.119 C 322.012 265.764,322.107 265.600,322.551 265.600 C 322.964 265.600,323.200 265.939,323.200 266.532 C 323.200 267.239,323.415 267.456,324.095 267.432 C 324.751 267.409,325.004 267.639,325.040 268.293 C 325.104 269.427,325.908 270.407,326.749 270.375 C 327.190 270.357,327.109 270.232,326.500 269.988 C 326.005 269.789,325.600 269.517,325.600 269.384 C 325.600 269.251,326.005 269.176,326.500 269.216 C 328.652 269.390,329.553 269.178,329.786 268.443 C 329.918 268.027,330.386 267.592,330.825 267.478 C 331.264 267.363,331.596 267.118,331.564 266.934 C 331.420 266.118,331.633 265.573,332.007 265.804 C 332.230 265.942,332.286 266.268,332.130 266.528 C 331.968 266.797,332.138 266.764,332.523 266.451 C 332.895 266.149,333.200 265.474,333.200 264.951 C 333.200 264.207,333.415 264.000,334.184 264.000 C 334.726 264.000,335.491 263.665,335.884 263.255 C 336.278 262.845,336.870 262.409,337.200 262.286 C 337.676 262.109,337.655 262.057,337.100 262.032 C 336.154 261.989,336.207 260.776,337.166 260.525 C 337.587 260.415,338.041 259.891,338.174 259.362 C 338.327 258.751,338.704 258.400,339.208 258.400 C 339.733 258.400,340.000 258.131,340.000 257.600 C 340.000 257.067,340.267 256.800,340.800 256.800 C 341.333 256.800,341.600 256.533,341.600 256.000 C 341.600 255.455,341.867 255.200,342.437 255.200 C 342.938 255.200,343.359 254.879,343.484 254.400 C 343.599 253.960,343.947 253.600,344.257 253.600 C 344.566 253.600,344.994 253.142,345.207 252.581 C 345.553 251.671,345.745 251.591,347.022 251.830 C 348.252 252.061,348.479 251.983,348.668 251.262 C 348.788 250.803,349.218 250.321,349.623 250.193 C 350.028 250.064,350.470 249.608,350.606 249.180 C 350.743 248.751,351.129 248.400,351.464 248.400 C 351.800 248.400,352.169 248.040,352.284 247.600 C 352.399 247.160,352.759 246.800,353.084 246.800 C 353.409 246.800,353.769 246.440,353.884 246.000 C 353.999 245.560,354.332 245.200,354.624 245.200 C 355.561 245.200,357.380 243.321,357.390 242.343 C 357.397 241.653,357.621 241.406,358.224 241.424 C 358.803 241.440,359.040 241.203,359.024 240.624 C 359.006 239.997,359.246 239.802,360.027 239.810 C 360.890 239.819,361.026 239.671,360.876 238.886 C 360.744 238.197,360.911 237.896,361.512 237.739 C 361.960 237.622,362.416 237.183,362.526 236.763 C 362.635 236.343,362.991 236.000,363.316 236.000 C 363.641 236.000,364.001 235.640,364.116 235.200 C 364.231 234.760,364.616 234.400,364.972 234.400 C 365.328 234.400,365.791 233.950,366.000 233.400 C 366.209 232.850,366.655 232.400,366.990 232.400 C 367.326 232.400,367.600 232.126,367.600 231.790 C 367.600 231.455,368.050 231.009,368.600 230.800 C 369.150 230.591,369.600 230.145,369.600 229.810 C 369.600 229.467,369.950 229.200,370.400 229.200 C 371.491 229.200,371.419 230.338,370.300 230.788 C 369.733 231.015,369.632 231.159,370.028 231.175 C 370.373 231.189,371.047 230.750,371.525 230.200 C 372.003 229.650,372.576 229.200,372.797 229.200 C 373.019 229.200,373.195 228.885,373.188 228.500 C 373.176 227.833,373.156 227.833,372.768 228.500 C 372.214 229.451,371.200 229.386,371.200 228.400 C 371.200 227.719,371.467 227.600,373.000 227.600 C 374.533 227.600,374.800 227.481,374.800 226.800 C 374.800 226.276,375.067 226.000,375.573 226.000 C 375.998 226.000,376.457 225.649,376.594 225.220 C 376.730 224.792,377.192 224.330,377.620 224.194 C 378.049 224.057,378.400 223.598,378.400 223.173 C 378.400 222.667,378.676 222.400,379.200 222.400 C 379.733 222.400,380.000 222.133,380.000 221.600 C 380.000 221.026,380.267 220.800,380.945 220.800 C 381.735 220.800,381.858 220.638,381.699 219.805 C 381.570 219.132,381.717 218.730,382.154 218.562 C 382.509 218.426,382.800 218.067,382.800 217.765 C 382.800 217.463,383.250 217.102,383.800 216.964 C 384.350 216.826,384.800 216.446,384.800 216.119 C 384.800 215.792,385.154 215.433,385.587 215.319 C 386.019 215.206,386.482 214.773,386.614 214.357 C 386.746 213.941,387.202 213.600,387.627 213.600 C 388.124 213.600,388.400 213.324,388.400 212.827 C 388.400 212.402,388.751 211.943,389.180 211.806 C 389.608 211.670,390.064 211.228,390.193 210.823 C 390.321 210.418,390.781 209.994,391.213 209.881 C 391.646 209.767,392.000 209.388,392.000 209.037 C 392.000 208.667,392.335 208.400,392.800 208.400 C 393.333 208.400,393.600 208.133,393.600 207.600 C 393.600 207.013,393.867 206.800,394.600 206.800 C 395.333 206.800,395.600 206.587,395.600 206.000 C 395.600 205.467,395.867 205.200,396.400 205.200 C 397.365 205.200,397.391 205.352,396.571 206.171 C 396.024 206.719,396.020 206.800,396.544 206.800 C 396.875 206.800,397.254 206.459,397.386 206.043 C 397.518 205.627,397.981 205.194,398.413 205.081 C 398.846 204.967,399.200 204.588,399.200 204.237 C 399.200 203.887,399.380 203.600,399.600 203.600 C 399.826 203.600,400.000 202.467,400.000 201.000 C 400.000 199.053,399.861 198.400,399.447 198.400 C 399.142 198.400,398.799 198.040,398.684 197.600 C 398.564 197.140,398.138 196.800,397.684 196.800 C 397.230 196.800,396.804 196.460,396.684 196.000 C 396.569 195.560,396.188 195.200,395.837 195.200 C 395.467 195.200,395.200 194.865,395.200 194.400 C 395.200 193.950,394.933 193.600,394.590 193.600 C 394.255 193.600,393.809 193.150,393.600 192.600 C 393.391 192.050,392.924 191.600,392.563 191.600 C 392.092 191.600,391.957 191.338,392.085 190.669 C 392.237 189.874,392.126 189.763,391.331 189.915 C 390.548 190.065,390.400 189.927,390.400 189.047 C 390.400 188.208,390.209 188.000,389.437 188.000 C 388.672 188.000,388.518 187.836,388.684 187.200 C 388.842 186.597,388.696 186.400,388.093 186.400 C 387.620 186.400,387.205 186.061,387.076 185.570 C 386.957 185.114,386.503 184.647,386.067 184.533 C 385.631 184.419,385.184 183.983,385.074 183.563 C 384.965 183.143,384.588 182.800,384.237 182.800 C 383.867 182.800,383.600 182.465,383.600 182.000 C 383.600 181.483,383.333 181.200,382.847 181.200 C 382.421 181.200,381.999 180.839,381.876 180.370 C 381.757 179.914,381.303 179.447,380.867 179.333 C 380.431 179.219,379.978 178.761,379.862 178.314 C 379.680 177.620,379.441 177.541,378.224 177.769 C 376.961 178.006,376.747 177.921,376.336 177.018 C 376.080 176.458,375.643 176.000,375.363 176.000 C 375.083 176.000,374.740 175.640,374.600 175.200 C 374.460 174.760,373.998 174.400,373.573 174.400 C 373.067 174.400,372.800 174.124,372.800 173.600 C 372.800 173.090,372.533 172.800,372.064 172.800 C 371.660 172.800,371.123 172.350,370.873 171.800 C 370.622 171.250,370.121 170.800,369.759 170.800 C 369.231 170.800,369.150 170.541,369.349 169.500 C 369.509 168.668,369.470 168.401,369.240 168.758 C 368.779 169.475,367.439 168.997,367.736 168.222 C 367.878 167.852,367.651 167.606,367.094 167.525 C 366.581 167.451,366.145 167.027,366.016 166.476 C 365.897 165.968,365.665 165.563,365.500 165.576 C 364.165 165.681,363.920 165.549,364.110 164.822 C 364.259 164.251,364.085 164.011,363.457 163.921 C 362.836 163.831,362.626 163.550,362.695 162.899 C 362.764 162.253,362.580 162.000,362.042 162.000 C 361.630 162.000,361.199 161.641,361.084 161.200 C 360.959 160.721,360.538 160.400,360.037 160.400 C 359.476 160.400,359.200 160.145,359.200 159.627 C 359.200 159.202,358.859 158.746,358.443 158.614 C 358.027 158.482,357.594 158.019,357.481 157.587 C 357.367 157.154,357.000 156.800,356.664 156.800 C 356.329 156.800,355.940 156.440,355.800 156.000 C 355.596 155.359,355.195 155.200,353.773 155.200 C 352.267 155.200,352.000 155.080,352.000 154.400 C 352.000 153.867,351.733 153.600,351.200 153.600 C 350.667 153.600,350.400 153.333,350.400 152.800 C 350.400 152.255,350.133 152.000,349.563 152.000 C 349.062 152.000,348.641 151.679,348.516 151.200 C 348.401 150.760,348.142 150.400,347.940 150.400 C 347.436 150.400,344.800 147.725,344.800 147.213 C 344.800 146.986,344.530 146.800,344.200 146.800 C 343.870 146.800,343.600 146.453,343.600 146.028 C 343.600 145.532,343.278 145.210,342.700 145.128 C 342.032 145.033,341.803 144.737,341.810 143.978 C 341.817 143.208,341.620 142.961,341.010 142.978 C 340.421 142.994,340.209 142.754,340.232 142.100 C 340.256 141.415,340.041 141.200,339.332 141.200 C 338.667 141.200,338.400 140.971,338.400 140.400 C 338.400 139.867,338.133 139.600,337.600 139.600 C 337.076 139.600,336.800 139.333,336.800 138.827 C 336.800 138.402,336.449 137.943,336.020 137.806 C 335.592 137.670,335.130 137.208,334.994 136.780 C 334.804 136.181,334.381 136.000,333.173 136.000 C 331.867 136.000,331.600 135.864,331.600 135.200 C 331.600 134.613,331.333 134.400,330.600 134.400 C 329.850 134.400,329.600 134.190,329.600 133.557 C 329.600 132.847,329.774 132.750,330.700 132.946 C 331.730 133.164,331.743 133.150,330.909 132.732 C 330.419 132.487,329.912 131.951,329.782 131.543 C 329.652 131.134,329.243 130.806,328.873 130.813 C 328.255 130.824,328.257 130.869,328.900 131.357 C 329.888 132.107,329.775 132.880,328.700 132.728 C 328.059 132.637,327.809 132.341,327.832 131.700 C 327.876 130.457,325.242 130.355,324.919 131.587 M355.200 156.267 C 355.200 156.560,354.930 156.800,354.600 156.800 C 354.270 156.800,354.000 156.560,354.000 156.267 C 354.000 155.973,354.270 155.733,354.600 155.733 C 354.930 155.733,355.200 155.973,355.200 156.267 M356.800 157.800 C 357.208 158.291,357.180 158.400,356.649 158.400 C 356.292 158.400,356.000 158.130,356.000 157.800 C 356.000 157.470,356.068 157.200,356.151 157.200 C 356.234 157.200,356.526 157.470,356.800 157.800 M379.600 178.613 C 379.600 178.949,379.915 179.341,380.300 179.483 C 381.677 179.991,382.029 181.200,380.800 181.200 C 380.267 181.200,380.000 180.933,380.000 180.400 C 380.000 179.883,379.733 179.600,379.247 179.600 C 378.830 179.600,378.400 179.243,378.284 178.800 C 378.129 178.207,378.272 178.000,378.837 178.000 C 379.257 178.000,379.600 178.276,379.600 178.613 M326.800 219.213 C 326.800 219.691,325.672 220.205,325.343 219.876 C 324.992 219.526,325.587 218.800,326.224 218.800 C 326.541 218.800,326.800 218.986,326.800 219.213 M305.716 239.200 C 305.502 240.017,305.138 240.205,304.673 239.740 C 304.478 239.545,305.411 238.505,305.863 238.413 C 305.897 238.406,305.831 238.760,305.716 239.200 M350.400 248.867 C 350.400 249.123,350.282 249.215,350.137 249.070 C 349.992 248.925,349.632 249.007,349.337 249.252 C 348.925 249.594,348.800 249.547,348.800 249.049 C 348.800 248.667,349.129 248.400,349.600 248.400 C 350.040 248.400,350.400 248.610,350.400 248.867 M348.329 250.933 C 348.415 251.375,348.191 251.600,347.667 251.600 C 347.067 251.600,346.927 251.402,347.088 250.784 C 347.333 249.846,348.137 249.943,348.329 250.933 M312.800 254.429 C 312.800 255.002,312.585 255.217,312.105 255.125 C 311.062 254.924,310.946 253.600,311.971 253.600 C 312.543 253.600,312.800 253.857,312.800 254.429 M341.717 257.500 C 341.575 257.885,341.265 258.349,341.029 258.530 C 340.753 258.743,340.800 258.807,341.162 258.710 C 341.682 258.570,342.621 256.800,342.175 256.800 C 342.065 256.800,341.859 257.115,341.717 257.500 M336.000 262.551 C 336.000 262.634,335.730 262.926,335.400 263.200 C 334.909 263.608,334.800 263.580,334.800 263.049 C 334.800 262.692,335.070 262.400,335.400 262.400 C 335.730 262.400,336.000 262.468,336.000 262.551 " stroke="none" fill="#16243e" fill-rule="evenodd"></path><path id="path3" d="M327.600 269.546 C 327.600 269.810,327.195 270.189,326.700 270.388 C 326.091 270.632,326.010 270.757,326.451 270.775 C 327.191 270.803,328.247 269.714,327.857 269.324 C 327.716 269.182,327.600 269.282,327.600 269.546 " stroke="none" fill="#0000ff" fill-rule="evenodd"></path><path id="path4" d="" stroke="none" fill="#00ffff" fill-rule="evenodd"></path></g></svg>