<?xml version="1.0" encoding="UTF-8" standalone="no"?>
<svg
   xmlns:dc="http://purl.org/dc/elements/1.1/"
   xmlns:cc="http://creativecommons.org/ns#"
   xmlns:rdf="http://www.w3.org/1999/02/22-rdf-syntax-ns#"
   xmlns:svg="http://www.w3.org/2000/svg"
   xmlns="http://www.w3.org/2000/svg"
   viewBox="0 0 156.29333 213.33333"
   height="213.33333"
   width="156.29333"
   xml:space="preserve"
   id="svg2"
   version="1.1"><metadata
     id="metadata8"><rdf:RDF><cc:Work
         rdf:about=""><dc:format>image/svg+xml</dc:format><dc:type
           rdf:resource="http://purl.org/dc/dcmitype/StillImage" /></cc:Work></rdf:RDF></metadata><defs
     id="defs6" /><g
     transform="matrix(1.3333333,0,0,-1.3333333,0,213.33333)"
     id="g10"><g
       transform="scale(0.1)"
       id="g12"><path
         id="path14"
         style="fill:#66c430;fill-opacity:1;fill-rule:nonzero;stroke:none"
         d="m 193.918,800.004 c 0,216.586 175.586,392.176 392.184,392.176 216.589,0 392.175,-175.59 392.175,-392.176 H 193.918" /><path
         id="path16"
         style="fill:#146da3;fill-opacity:1;fill-rule:nonzero;stroke:none"
         d="m 978.277,802.297 c 0,-216.598 -175.586,-392.188 -392.175,-392.188 -216.598,0 -392.184,175.59 -392.184,392.188 h 784.359" /><path
         id="path18"
         style="fill:#ffffff;fill-opacity:1;fill-rule:nonzero;stroke:none"
         d="m 908.824,800.004 c 0,-178.238 -144.492,-322.734 -322.722,-322.734 -178.239,0 -322.731,144.496 -322.731,322.734 0,178.234 144.492,322.726 322.731,322.726 178.23,0 322.722,-144.492 322.722,-322.726" /><path
         id="path20"
         style="fill:#146da3;fill-opacity:1;fill-rule:nonzero;stroke:none"
         d="m 1162.35,798.707 c 0,-25.543 -20.71,-46.25 -46.25,-46.25 -25.55,0 -46.25,20.707 -46.25,46.25 0,25.543 20.7,46.25 46.25,46.25 25.54,0 46.25,-20.707 46.25,-46.25" /><path
         id="path22"
         style="fill:#ffffff;fill-opacity:1;fill-rule:nonzero;stroke:none"
         d="m 1091.1,1301.21 c 0,-25.54 -20.71,-46.25 -46.25,-46.25 -25.55,0 -46.248,20.71 -46.248,46.25 0,25.54 20.698,46.25 46.248,46.25 25.54,0 46.25,-20.71 46.25,-46.25" /><path
         id="path24"
         style="fill:#f1511b;fill-opacity:1;fill-rule:nonzero;stroke:none"
         d="m 886.102,1457.46 c 0,-25.54 -20.715,-46.25 -46.25,-46.25 -25.547,0 -46.25,20.71 -46.25,46.25 0,25.54 20.703,46.25 46.25,46.25 25.535,0 46.25,-20.71 46.25,-46.25" /><path
         id="path26"
         style="fill:#66c430;fill-opacity:1;fill-rule:nonzero;stroke:none"
         d="m 633.219,1542.46 c 0,-25.54 -20.703,-46.25 -46.25,-46.25 -25.547,0 -46.25,20.71 -46.25,46.25 0,25.54 20.703,46.25 46.25,46.25 25.547,0 46.25,-20.71 46.25,-46.25" /><path
         id="path28"
         style="fill:#532e90;fill-opacity:1;fill-rule:nonzero;stroke:none"
         d="m 379.469,1457.46 c 0,-25.54 -20.707,-46.25 -46.25,-46.25 -25.543,0 -46.25,20.71 -46.25,46.25 0,25.54 20.707,46.25 46.25,46.25 25.543,0 46.25,-20.71 46.25,-46.25" /><path
         id="path30"
         style="fill:#146da3;fill-opacity:1;fill-rule:nonzero;stroke:none"
         d="m 169.469,1301.21 c 0,-25.54 -20.707,-46.25 -46.25,-46.25 -25.5432,0 -46.2502,20.71 -46.2502,46.25 0,25.54 20.707,46.25 46.2502,46.25 25.543,0 46.25,-20.71 46.25,-46.25" /><path
         id="path32"
         style="fill:#66c430;fill-opacity:1;fill-rule:nonzero;stroke:none"
         d="m 104.469,798.707 c 0,-25.543 -20.7073,-46.25 -46.2502,-46.25 -25.543,0 -46.25,20.707 -46.25,46.25 0,25.543 20.707,46.25 46.25,46.25 25.5429,0 46.2502,-20.707 46.2502,-46.25" /><path
         id="path34"
         style="fill:#ffffff;fill-opacity:1;fill-rule:nonzero;stroke:none"
         d="m 176.969,302.461 c 0,-25.551 -20.707,-46.25 -46.25,-46.25 -25.543,0 -46.2502,20.699 -46.2502,46.25 0,25.539 20.7072,46.25 46.2502,46.25 25.543,0 46.25,-20.711 46.25,-46.25" /><path
         id="path36"
         style="fill:#f1511b;fill-opacity:1;fill-rule:nonzero;stroke:none"
         d="m 385.719,142.461 c 0,-25.551 -20.707,-46.2501 -46.25,-46.2501 -25.543,0 -46.25,20.6991 -46.25,46.2501 0,25.539 20.707,46.25 46.25,46.25 25.543,0 46.25,-20.711 46.25,-46.25" /><path
         id="path38"
         style="fill:#66c430;fill-opacity:1;fill-rule:nonzero;stroke:none"
         d="m 633.219,59.9609 c 0,-25.5507 -20.703,-46.25 -46.25,-46.25 -25.547,0 -46.25,20.6993 -46.25,46.25 0,25.5391 20.703,46.2501 46.25,46.2501 25.547,0 46.25,-20.711 46.25,-46.2501" /><path
         id="path40"
         style="fill:#532e90;fill-opacity:1;fill-rule:nonzero;stroke:none"
         d="m 881.969,142.461 c 0,-25.551 -20.703,-46.2501 -46.25,-46.2501 -25.547,0 -46.25,20.6991 -46.25,46.2501 0,25.539 20.703,46.25 46.25,46.25 25.547,0 46.25,-20.711 46.25,-46.25" /><path
         id="path42"
         style="fill:#146da3;fill-opacity:1;fill-rule:nonzero;stroke:none"
         d="m 1090.72,302.461 c 0,-25.551 -20.7,-46.25 -46.25,-46.25 -25.55,0 -46.251,20.699 -46.251,46.25 0,25.539 20.701,46.25 46.251,46.25 25.55,0 46.25,-20.711 46.25,-46.25" /><path
         id="path44"
         style="fill:#f1511b;fill-opacity:1;fill-rule:nonzero;stroke:none"
         d="m 438.219,934.957 147.883,56.25 149.617,-56.25 v -227.5 l -149.617,-101.25 -139.684,96.25 -8.199,232.5" /><path
         id="path46"
         style="fill:#142339;fill-opacity:1;fill-rule:nonzero;stroke:none"
         d="m 1113.07,767.16 c -17.45,0 -31.52,14.07 -31.52,31.465 0,17.457 14.07,31.527 31.52,31.527 17.4,0 31.47,-14.07 31.47,-31.527 0,-17.395 -14.07,-31.465 -31.47,-31.465 z m -354.207,57.09 -5.047,139.004 -12.531,3.992 31.32,64.074 c 27.715,-22.24 51.383,-49.261 69.754,-79.726 l -44.589,-31.321 26.726,-38.035 38.93,27.348 c 5.73,-14.164 10.484,-28.781 13.953,-43.856 1.457,-6.21 2.551,-12.421 3.644,-18.632 1.278,-7.5 2.196,-15.172 2.926,-22.848 z m -90.039,-142.477 -82.051,-42.996 -82.05,42.996 c -25.489,13.407 -40.672,38.743 -39.668,66.325 l 6.425,175.879 115.293,36.722 115.286,-36.722 6.433,-175.879 c 1.004,-27.504 -14.258,-52.918 -39.668,-66.325 z M 399.973,566.73 c -27.899,22.551 -51.641,49.958 -69.953,80.86 l 45.753,32.137 -26.722,38.043 -39.832,-27.977 c -5.336,13.516 -9.75,27.461 -13.047,41.793 -1.465,6.027 -2.563,12.238 -3.652,18.461 -1.282,7.488 -2.192,15.16 -2.747,23.019 H 412.84 v -0.015 l -0.856,-23.016 c -1.546,-40.043 16.329,-77.355 47.629,-102.031 l -16.078,7.855 z m -41.575,-85.07 c -41.789,30.199 -77.382,68.422 -104.515,112.442 L 288,618.074 c 23.199,-38.086 53.461,-71.523 88.988,-98.383 z m 455.731,634.62 c 41.609,-29.9 77.098,-67.71 104.305,-111.24 l -34.082,-23.942 c -23.262,37.622 -53.489,70.612 -88.809,97.172 z m 71.336,-498.159 34.07,-23.93 C 892.43,550.148 856.863,511.93 815.105,481.73 l -18.625,38.102 c 35.508,26.809 65.762,60.199 88.985,98.289 z M 1045.47,269.93 c -17.39,0 -31.46,14.07 -31.46,31.449 0,17.461 14.07,31.543 31.46,31.543 17.46,0 31.53,-14.082 31.53,-31.543 0,-17.379 -14.07,-31.449 -31.53,-31.449 z M 834.988,112.891 c -17.383,0 -31.457,14.07 -31.457,31.449 0,17.461 14.074,31.539 31.457,31.539 17.461,0 31.532,-14.078 31.532,-31.539 0,-17.379 -14.071,-31.449 -31.532,-31.449 z M 586.031,27.6484 c -17.453,0 -31.523,14.0899 -31.523,31.4727 0,17.4609 14.07,31.5273 31.523,31.5273 17.395,0 31.465,-14.0664 31.465,-31.5273 0,-17.3828 -14.07,-31.4727 -31.465,-31.4727 z m -247.48,85.2426 c -17.457,0 -31.528,14.07 -31.528,31.449 0,17.461 14.071,31.539 31.528,31.539 17.394,0 31.465,-14.078 31.465,-31.539 0,-17.379 -14.071,-31.449 -31.465,-31.449 z M 128.074,269.93 c -17.457,0 -31.5349,14.07 -31.5349,31.449 0,17.461 14.0779,31.543 31.5349,31.543 17.387,0 31.457,-14.082 31.457,-31.543 0,-17.379 -14.07,-31.449 -31.457,-31.449 z M 59.1875,767.16 c -17.457,0 -31.5312,14.07 -31.5312,31.465 0,17.457 14.0742,31.527 31.5312,31.527 17.3867,0 31.4648,-14.07 31.4648,-31.527 0,-17.395 -14.0781,-31.465 -31.4648,-31.465 z M 289.266,981.047 255.07,1005.07 c 27.203,43.51 62.731,81.27 104.383,111.13 l 18.563,-37.97 c -35.309,-26.5 -65.461,-59.53 -88.75,-97.183 z M 128.074,1330.08 c 17.387,0 31.457,-14.07 31.457,-31.46 0,-17.46 -14.07,-31.53 -31.457,-31.53 -17.457,0 -31.5349,14.07 -31.5349,31.53 0,17.39 14.0779,31.46 31.5349,31.46 z m 210.477,157.04 c 17.394,0 31.465,-14.07 31.465,-31.46 0,-17.46 -14.071,-31.53 -31.465,-31.53 -17.457,0 -31.528,14.07 -31.528,31.53 0,17.39 14.071,31.46 31.528,31.46 z m 247.48,85.23 c 17.395,0 31.465,-14.08 31.465,-31.46 0,-17.46 -14.07,-31.53 -31.465,-31.53 -17.453,0 -31.523,14.07 -31.523,31.53 0,17.38 14.07,31.46 31.523,31.46 z m 248.957,-85.23 c 17.461,0 31.532,-14.07 31.532,-31.46 0,-17.46 -14.071,-31.53 -31.532,-31.53 -17.383,0 -31.457,14.07 -31.457,31.53 0,17.39 14.074,31.46 31.457,31.46 z m 210.482,-157.04 c 17.46,0 31.53,-14.07 31.53,-31.46 0,-17.46 -14.07,-31.53 -31.53,-31.53 -17.39,0 -31.46,14.07 -31.46,31.53 0,17.39 14.07,31.46 31.46,31.46 z m 67.6,-472.271 c -23.49,0 -43.73,-13.719 -53.28,-33.559 H 935.309 c -0.735,10.59 -2.012,20.828 -3.661,31.063 -0.539,3.472 -1.269,6.945 -1.828,10.417 -5.047,25.711 -13.039,50.485 -23.523,73.973 l 34.5,24.235 c 8.808,-18.79 16.348,-38.286 22.109,-58.54 h 37.834 l -1.83,6.942 c -6.961,25.351 -16.355,49.715 -27.683,72.973 l 97.523,68.507 v 190.38 c 21.11,9.03 35.9,29.99 35.9,54.42 0,32.63 -26.48,59.11 -59.18,59.11 -32.63,0 -59.115,-26.48 -59.115,-59.11 0,-24.44 14.805,-45.41 35.905,-54.44 v -166.2 l -73.846,-51.88 c -30.691,48.64 -70.859,90.72 -117.988,123.54 l 27.844,56.95 v 194.65 c 21.113,9.03 35.906,29.99 35.906,54.42 0,32.63 -26.485,59.12 -59.188,59.12 -32.629,0 -59.113,-26.49 -59.113,-59.12 0,-24.44 14.805,-45.4 35.898,-54.43 v -183.88 l -21.113,-43.21 c -28.347,15.44 -58.496,27.95 -90.207,36.66 l -6.941,1.83 v -37.84 c 28.508,-8.1 55.597,-19.53 81.062,-33.56 l -18.219,-37.29 c -29.054,16.3 -60.609,28.57 -93.917,35.94 l -8.594,1.83 v -52.44 c 28.41,-6.54 55.265,-17.28 79.98,-31.42 L 696.52,981.512 586.773,1016.48 477.02,981.512 439.758,1057.76 c 24.762,14.17 51.613,24.94 79.937,31.51 6.035,1.45 12.246,2.55 18.465,3.64 7.481,1.28 15.156,2.2 23.02,2.74 v -34.72 h 51.179 v 36.01 51.17 339.84 c 19.414,9.7 32.793,29.73 32.793,52.94 0,32.63 -26.484,59.11 -59.121,59.11 -32.695,0 -59.179,-26.48 -59.179,-59.11 0,-23.81 14.074,-44.27 34.328,-53.67 V 1147.2 c -10.598,-0.73 -21.02,-2.02 -31.25,-3.66 -3.469,-0.54 -6.946,-1.1 -10.235,-1.83 -36.398,-7.14 -70.812,-20.24 -102.414,-37.97 l -18.261,37.37 c 25.46,14 52.531,25.41 81.015,33.51 v 37.82 l -6.941,-1.83 c -31.692,-8.7 -61.813,-21.19 -90.145,-36.62 l -21.183,43.36 v 183.87 c 21.101,9.04 35.906,30 35.906,54.44 0,32.63 -26.484,59.12 -59.121,59.12 -32.696,0 -59.184,-26.49 -59.184,-59.12 0,-24.43 14.793,-45.38 35.906,-54.42 v -194.65 l 27.903,-57.09 c -47.125,-32.79 -87.297,-74.85 -118,-123.43 l -73.895,51.91 v 166.2 c 21.102,9.03 35.907,30 35.907,54.44 0,32.63 -26.485,59.11 -59.114,59.11 -32.7029,0 -59.1912,-26.48 -59.1912,-59.11 0,-24.43 14.7969,-45.39 35.9062,-54.42 v -190.38 l 97.555,-68.523 c -11.34,-23.258 -20.742,-47.613 -27.715,-72.957 l -1.824,-6.942 h 37.828 c 5.738,20.266 13.262,39.774 22.074,58.571 l 34.613,-24.321 c -9.293,-20.835 -16.754,-42.632 -21.777,-65.324 l -1.824,-8.594 h 52.453 c 3.469,15.102 8.215,29.719 13.933,43.868 l 38.946,-27.36 26.722,38.035 -44.589,31.325 c 18.414,30.507 42.113,57.472 69.789,79.652 l 31.281,-64.008 -12.52,-3.988 -5.039,-138.992 V 824.25 H 288.684 237.508 112.406 C 102.859,844.09 82.6445,857.809 59.1875,857.809 26.4922,857.809 0,831.32 0,798.625 c 0,-32.637 26.4922,-59.121 59.1875,-59.121 23.4648,0 43.6955,13.734 53.2425,33.562 h 125.996 c 0.722,-10.593 1.82,-21.011 3.469,-31.25 0.543,-3.468 1.097,-6.941 1.824,-10.23 4.867,-24.996 12.508,-49.09 22.539,-71.981 l -34.485,-24.218 c -8.386,18.176 -15.589,37 -21.14,56.535 h -37.828 l 1.824,-6.945 c 6.769,-24.618 15.859,-48.286 26.75,-70.946 L 104.789,546.18 V 355.809 C 83.6797,346.77 68.8828,325.82 68.8828,301.379 c 0,-32.617 26.4883,-59.109 59.1912,-59.109 32.629,0 59.114,26.492 59.114,59.109 0,24.449 -14.805,45.41 -35.907,54.449 v 166.203 l 72.668,51.047 C 254.582,523.988 294.84,481.52 342.141,448.391 L 315.273,393.41 V 198.77 c -21.113,-9.051 -35.906,-29.989 -35.906,-54.43 0,-32.621 26.488,-59.1095 59.184,-59.1095 32.637,0 59.121,26.4885 59.121,59.1095 0,24.449 -14.805,45.41 -35.906,54.449 V 382.66 l 20.078,41.09 c 28.644,-15.719 59.148,-28.422 91.25,-37.23 l 6.941,-1.84 v 37.84 c -28.918,8.171 -56.367,19.781 -82.148,34.058 l 18.238,37.313 c 29.344,-16.571 61.273,-29.012 94.984,-36.461 l 8.586,-1.828 v 52.449 c -28.832,6.609 -56.027,17.578 -81.011,32 l 45.25,92.601 102.839,-53.843 102.813,53.871 45.207,-92.5 c -25.039,-14.399 -52.238,-25.348 -80.949,-31.942 -6.211,-1.648 -12.422,-2.738 -18.633,-3.84 -7.5,-1.277 -15.176,-2.187 -22.852,-2.738 v 34.731 H 561.18 V 500.57 449.391 112.781 C 540.926,103.391 526.852,82.9297 526.852,59.1211 526.852,26.4883 553.336,0 586.031,0 c 32.637,0 59.121,26.4883 59.121,59.1211 0,23.2109 -13.379,43.2309 -32.793,52.9379 v 338.25 c 10.594,0.722 20.832,1.82 31.067,3.472 3.476,0.539 6.941,1.278 10.418,1.821 36.797,7.257 71.562,20.578 103.429,38.589 l 18.36,-37.57 C 749.859,442.32 722.406,430.699 693.512,422.52 v -37.84 l 6.941,1.84 c 32.102,8.82 62.602,21.511 91.242,37.242 L 811.773,382.66 V 198.781 c -21.093,-9.043 -35.898,-29.992 -35.898,-54.441 0,-32.621 26.484,-59.1095 59.113,-59.1095 32.703,0 59.188,26.4885 59.188,59.1095 0,24.441 -14.793,45.39 -35.906,54.43 v 194.64 l -26.875,55 c 47.273,33.149 87.5,75.641 118.093,124.738 l 72.772,-51.117 V 355.828 c -21.1,-9.039 -35.905,-30 -35.905,-54.449 0,-32.617 26.485,-59.109 59.115,-59.109 32.7,0 59.18,26.492 59.18,59.109 0,24.441 -14.79,45.391 -35.9,54.43 V 546.18 l -96.715,67.937 c 10.863,22.637 19.934,46.27 26.692,70.86 l 1.823,6.945 h -37.827 c -5.539,-19.504 -12.727,-38.297 -21.086,-56.442 l -34.512,24.243 c 8.859,20.273 16.027,41.429 20.867,63.453 l 1.828,8.41 h -52.265 c -3.313,-14.398 -7.735,-28.371 -13.086,-41.898 L 824.496,717.77 797.77,679.727 843.629,647.516 C 825.238,616.578 801.422,589.25 773.531,566.781 l -43.535,89.078 -16.316,-7.972 c 31.425,24.691 49.375,62.047 47.879,102.148 l -0.829,23.031 h 124.317 51.172 123.551 c 9.55,-19.828 29.8,-33.562 53.3,-33.562 32.64,0 59.12,26.484 59.12,59.121 0,32.695 -26.48,59.184 -59.12,59.184" /></g></g></svg>