<svg id="Layer_1" data-name="Layer 1" xmlns="http://www.w3.org/2000/svg" viewBox="0 0 247 35.5"><defs><style>.cls-1{isolation:isolate;}.cls-2{fill:#142339;}.cls-3{fill:#ee472f;}</style></defs><title>Logo_DataPrivacyRIghts</title><g class="cls-1"><path class="cls-2" d="M45,24.73V10.05h5.79c4.6,0,7.79,2.93,7.79,7.33s-3.19,7.35-7.77,7.35Zm10.39-7.35a4.28,4.28,0,0,0-4.58-4.58H48.1V22h2.66A4.4,4.4,0,0,0,55.36,17.38Z"/><path class="cls-2" d="M67.08,24.73V23.61A4.33,4.33,0,0,1,63.72,25,3.52,3.52,0,0,1,60,21.47,3.37,3.37,0,0,1,63.72,18a4.34,4.34,0,0,1,3.37,1.3V18c0-1.08-.92-1.78-2.33-1.78a4.47,4.47,0,0,0-3.06,1.25l-1.1-2a6.86,6.86,0,0,1,4.64-1.67c2.44,0,4.66,1,4.66,4v6.87Zm0-2.55V20.86a2.81,2.81,0,0,0-2.24-.95c-1.1,0-2,.59-2,1.61s.9,1.58,2,1.58A2.8,2.8,0,0,0,67.08,22.18Z"/><path class="cls-2" d="M73.22,22.07V16.54H71.46V14.1h1.76V11.2H76v2.9h2.16v2.44H76v4.78c0,.68.35,1.19,1,1.19a1.41,1.41,0,0,0,1-.33l.59,2.13a3.46,3.46,0,0,1-2.33.68A2.65,2.65,0,0,1,73.22,22.07Z"/><path class="cls-2" d="M86.46,24.73V23.61A4.33,4.33,0,0,1,83.1,25a3.52,3.52,0,0,1-3.67-3.52A3.37,3.37,0,0,1,83.1,18a4.34,4.34,0,0,1,3.37,1.3V18c0-1.08-.92-1.78-2.33-1.78a4.47,4.47,0,0,0-3.06,1.25l-1.1-2a6.86,6.86,0,0,1,4.64-1.67c2.44,0,4.66,1,4.66,4v6.87Zm0-2.55V20.86a2.81,2.81,0,0,0-2.24-.95c-1.1,0-2,.59-2,1.61s.9,1.58,2,1.58A2.8,2.8,0,0,0,86.46,22.18Z"/><path class="cls-2" d="M97.75,24.73V10.05h6.87a4.58,4.58,0,0,1,4.93,4.73,4.59,4.59,0,0,1-4.93,4.71h-3.74v5.24Zm8.6-9.95a2,2,0,0,0-2.18-2h-3.3v3.94h3.3A2,2,0,0,0,106.35,14.78Z"/><path class="cls-2" d="M111.43,24.73V14.1h2.79v1.43a4.66,4.66,0,0,1,3.39-1.69v2.73a3.6,3.6,0,0,0-3.39,1.14v7Z"/><path class="cls-2" d="M119.09,11.29a1.66,1.66,0,0,1,3.32,0,1.66,1.66,0,1,1-3.32,0Zm.26,13.44V14.1h2.79V24.73Z"/><path class="cls-2" d="M127.67,24.73,123.4,14.1h3l2.77,7.39L132,14.1h3l-4.27,10.63Z"/><path class="cls-2" d="M142.59,24.73V23.61A4.33,4.33,0,0,1,139.22,25a3.52,3.52,0,0,1-3.67-3.52A3.37,3.37,0,0,1,139.22,18a4.34,4.34,0,0,1,3.37,1.3V18c0-1.08-.92-1.78-2.33-1.78a4.46,4.46,0,0,0-3.06,1.25l-1.1-2a6.86,6.86,0,0,1,4.64-1.67c2.44,0,4.67,1,4.67,4v6.87Zm0-2.55V20.86a2.81,2.81,0,0,0-2.24-.95c-1.1,0-2,.59-2,1.61s.9,1.58,2,1.58A2.8,2.8,0,0,0,142.59,22.18Z"/><path class="cls-2" d="M147.47,19.4a5.4,5.4,0,0,1,5.63-5.57,5,5,0,0,1,4.2,1.91l-1.83,1.72a2.58,2.58,0,0,0-2.25-1.14,2.84,2.84,0,0,0-2.88,3.08,2.86,2.86,0,0,0,2.88,3.1,2.65,2.65,0,0,0,2.25-1.17l1.83,1.72A5,5,0,0,1,153.1,25,5.41,5.41,0,0,1,147.47,19.4Z"/><path class="cls-2" d="M159.17,26.38a2.43,2.43,0,0,0,.88.18,1.41,1.41,0,0,0,1.47-.77l.4-.93L157.61,14.1h3l2.77,7.39,2.79-7.39h3l-5,12.37c-.79,2-2.2,2.53-4,2.57a6,6,0,0,1-1.36-.18Z"/><path class="cls-2" d="M184.43,24.73l-2.88-5.21h-2.29v5.21h-3.12V10.05H183a4.59,4.59,0,0,1,5,4.73,4.24,4.24,0,0,1-3.23,4.36L188,24.73Zm.31-10a2,2,0,0,0-2.18-2h-3.3v4h3.3A2,2,0,0,0,184.74,14.76Z"/><path class="cls-2" d="M189.95,11.29a1.66,1.66,0,0,1,3.32,0,1.66,1.66,0,1,1-3.32,0Zm.26,13.44V14.1H193V24.73Z"/><path class="cls-2" d="M195.56,27.46l1.25-2a4.31,4.31,0,0,0,3.32,1.3c1.34,0,2.95-.57,2.95-2.73V23a4.13,4.13,0,0,1-3.3,1.65c-2.64,0-4.69-1.85-4.69-5.39s2-5.41,4.69-5.41a4.07,4.07,0,0,1,3.3,1.63V14.1h2.79V24c0,4-3.12,5-5.74,5A6.48,6.48,0,0,1,195.56,27.46ZM203.08,21V17.51a3.15,3.15,0,0,0-2.4-1.19A2.64,2.64,0,0,0,198,19.25a2.64,2.64,0,0,0,2.71,2.93A3.16,3.16,0,0,0,203.08,21Z"/><path class="cls-2" d="M215.84,24.73V18.26c0-1.47-.77-1.94-2-1.94a3.07,3.07,0,0,0-2.42,1.23v7.17h-2.82V10.05h2.82v5.41a4.93,4.93,0,0,1,3.72-1.63c2.33,0,3.46,1.28,3.46,3.34v7.55Z"/><path class="cls-2" d="M222,22.07V16.54h-1.76V14.1H222V11.2h2.79v2.9h2.16v2.44h-2.16v4.78c0,.68.35,1.19,1,1.19a1.41,1.41,0,0,0,1-.33l.59,2.13A3.46,3.46,0,0,1,225,25,2.65,2.65,0,0,1,222,22.07Z"/><path class="cls-2" d="M227.92,23.34l1.21-2a6,6,0,0,0,3.67,1.47c1.21,0,1.78-.46,1.78-1.12,0-1.74-6.29-.31-6.29-4.49,0-1.78,1.54-3.34,4.36-3.34a6.77,6.77,0,0,1,4.27,1.45l-1.12,2A4.59,4.59,0,0,0,232.65,16c-1,0-1.67.44-1.67,1,0,1.56,6.32.24,6.32,4.53,0,2-1.67,3.39-4.62,3.39A7.15,7.15,0,0,1,227.92,23.34Z"/></g><polygon class="cls-3" points="31.82 21.12 21.11 26.48 10.78 21.51 8.48 28.4 33.35 28.4 31.82 21.12"/><polygon class="cls-3" points="24.74 7.73 17.09 7.73 21.3 22.66 24.74 7.73"/></svg>