<?xml version="1.0" encoding="UTF-8" standalone="no"?>
<svg
   xmlns:dc="http://purl.org/dc/elements/1.1/"
   xmlns:cc="http://creativecommons.org/ns#"
   xmlns:rdf="http://www.w3.org/1999/02/22-rdf-syntax-ns#"
   xmlns:svg="http://www.w3.org/2000/svg"
   xmlns="http://www.w3.org/2000/svg"
   viewBox="0 0 207.28 112.69333"
   height="112.69333"
   width="207.28"
   xml:space="preserve"
   id="svg2"
   version="1.1"><metadata
     id="metadata8"><rdf:RDF><cc:Work
         rdf:about=""><dc:format>image/svg+xml</dc:format><dc:type
           rdf:resource="http://purl.org/dc/dcmitype/StillImage" /></cc:Work></rdf:RDF></metadata><defs
     id="defs6" /><g
     transform="matrix(1.3333333,0,0,-1.3333333,0,112.69333)"
     id="g10"><g
       transform="scale(0.1)"
       id="g12"><path
         id="path14"
         style="fill:#ffffff;fill-opacity:1;fill-rule:nonzero;stroke:none"
         d="M 39.8125,501.266 V 360.41 H 56.707 c 30.1563,0 40.7071,1.516 49.754,4.836 15.383,6.024 31.672,19.305 31.672,63.641 0,19.906 -3.016,52.472 -32.57,66.648 -11.4692,5.125 -17.8013,5.434 -44.6411,5.731 z M 0.00390625,537.465 H 76.3008 c 18.4101,-0.301 40.7222,-0.61 63.0392,-16.59 35.594,-25.035 41.015,-67.867 41.015,-91.695 0,-36.492 -12.355,-73.582 -43.738,-91.688 C 115.512,325.129 93.1953,324.836 68.1602,324.523 H 0.00390625 v 212.942" /><path
         id="path16"
         style="fill:#ffffff;fill-opacity:1;fill-rule:nonzero;stroke:none"
         d="m 291.02,399.621 c -7.243,-3.613 -15.383,-6.328 -31.672,-9.043 -12.957,-1.816 -30.16,-4.824 -30.16,-20.812 0,-11.766 9.96,-17.801 24.429,-17.801 18.406,0 31.379,8.445 35.285,17.5 2.118,4.519 2.118,9.043 2.118,13.574 z m -93.196,31.375 c 0.602,7.539 1.203,13.867 6.035,22.609 14.473,26.258 50.364,26.258 60.008,26.258 14.488,0 31.985,-1.824 45.25,-9.656 17.789,-10.867 18.098,-25.031 18.098,-41.32 v -79.93 c 0,-11.465 0,-15.383 6.64,-24.434 H 291.02 c -0.293,3.614 -0.895,9.657 -0.895,11.77 -7.848,-6.645 -23.828,-15.383 -44.645,-15.383 -34.082,0 -54.589,21.113 -54.589,47.051 0,7.539 1.808,14.473 4.82,20.508 10.855,21.719 34.074,26.535 48.562,29.246 31.071,6.34 33.477,6.933 46.747,11.172 0,7.531 -0.602,22.914 -25.637,22.914 -15.086,0 -23.223,-4.817 -26.84,-9.653 -3.922,-4.812 -3.629,-9.05 -3.629,-13.261 l -37.09,2.109" /><path
         id="path18"
         style="fill:#ffffff;fill-opacity:1;fill-rule:nonzero;stroke:none"
         d="M 392.074,449.395 V 381.23 c 0,-18.699 0,-26.843 17.188,-26.843 5.433,0 9.945,0.301 15.07,1.804 v -30.457 c -10.852,-1.808 -18.086,-2.414 -26.234,-2.414 -7.539,0 -32.879,0 -39.813,18.391 -2.41,6.035 -2.41,15.691 -2.41,30.762 v 76.922 h -22.02 v 25.941 h 22.02 v 53.387 h 36.199 v -53.387 h 32.258 v -25.941 h -32.258" /><path
         id="path20"
         style="fill:#ffffff;fill-opacity:1;fill-rule:nonzero;stroke:none"
         d="m 537.086,399.621 c -7.238,-3.613 -15.379,-6.328 -31.676,-9.043 -12.953,-1.816 -30.152,-4.824 -30.152,-20.812 0,-11.766 9.953,-17.801 24.426,-17.801 18.41,0 31.379,8.445 35.289,17.5 2.113,4.519 2.113,9.043 2.113,13.574 z m -93.195,31.375 c 0.601,7.539 1.203,13.867 6.039,22.609 14.468,26.258 50.355,26.258 60.008,26.258 14.484,0 31.984,-1.824 45.246,-9.656 17.793,-10.867 18.101,-25.031 18.101,-41.32 v -79.93 c 0,-11.465 0,-15.383 6.641,-24.434 h -42.84 c -0.293,3.614 -0.898,9.657 -0.898,11.77 -7.84,-6.645 -23.829,-15.383 -44.641,-15.383 -34.082,0 -54.594,21.113 -54.594,47.051 0,7.539 1.809,14.473 4.82,20.508 10.86,21.719 34.082,26.535 48.567,29.246 31.07,6.34 33.48,6.933 46.746,11.172 0,7.531 -0.606,22.914 -25.633,22.914 -15.09,0 -23.226,-4.817 -26.84,-9.653 -3.922,-4.812 -3.629,-9.05 -3.629,-13.261 l -37.093,2.109" /><path
         id="path22"
         style="fill:#ffffff;fill-opacity:1;fill-rule:nonzero;stroke:none"
         d="m 702.703,503.383 v -73.899 h 28.66 c 8.446,0 15.668,0 22.625,1.809 24.727,6.043 26.239,28.66 26.239,36.199 0,15.676 -6.946,23.828 -10.567,27.149 -9.941,8.449 -23.828,8.742 -36.797,8.742 z m -40.109,34.082 h 71.777 c 11.774,0 24.137,0 36.492,-3.324 20.821,-5.727 50.067,-24.426 50.067,-67.555 0,-28.363 -13.262,-58.813 -51.27,-67.258 -11.765,-2.715 -22.922,-2.715 -35.887,-2.715 h -31.07 v -72.09 h -40.109 v 212.942" /><path
         id="path24"
         style="fill:#ffffff;fill-opacity:1;fill-rule:nonzero;stroke:none"
         d="m 871.586,475.336 v -21.418 c 4.519,7.84 14.473,25.633 48.262,24.727 v -37.098 c -7.856,-0.293 -21.426,-0.598 -32.59,-9.043 -15.379,-11.77 -15.672,-27.152 -15.672,-52.18 v -55.801 h -34.992 v 150.813 h 34.992" /><path
         id="path26"
         style="fill:#ffffff;fill-opacity:1;fill-rule:nonzero;stroke:none"
         d="M 970.5,475.336 V 324.523 h -35.887 v 150.813 z m 0,60.012 v -36.493 h -35.887 v 36.493 H 970.5" /><path
         id="path28"
         style="fill:#ffffff;fill-opacity:1;fill-rule:nonzero;stroke:none"
         d="m 1122.5,475.336 -49.46,-150.813 h -38.92 l -48.862,150.813 h 37.402 l 31.37,-103.762 30.76,103.762 h 37.71" /><path
         id="path30"
         style="fill:#ffffff;fill-opacity:1;fill-rule:nonzero;stroke:none"
         d="m 1224.72,399.621 c -7.25,-3.613 -15.38,-6.328 -31.68,-9.043 -12.95,-1.816 -30.16,-4.824 -30.16,-20.812 0,-11.766 9.96,-17.801 24.44,-17.801 18.4,0 31.37,8.445 35.28,17.5 2.12,4.519 2.12,9.043 2.12,13.574 z m -93.2,31.375 c 0.6,7.539 1.21,13.867 6.04,22.609 14.46,26.258 50.35,26.258 60.01,26.258 14.48,0 31.97,-1.824 45.24,-9.656 17.8,-10.867 18.1,-25.031 18.1,-41.32 v -79.93 c 0,-11.465 0,-15.383 6.64,-24.434 h -42.83 c -0.3,3.614 -0.9,9.657 -0.9,11.77 -7.84,-6.645 -23.83,-15.383 -44.65,-15.383 -34.08,0 -54.59,21.113 -54.59,47.051 0,7.539 1.81,14.473 4.83,20.508 10.85,21.719 34.08,26.535 48.56,29.246 31.07,6.34 33.48,6.933 46.75,11.172 0,7.531 -0.61,22.914 -25.64,22.914 -15.08,0 -23.23,-4.817 -26.84,-9.653 -3.92,-4.812 -3.62,-9.05 -3.62,-13.261 l -37.1,2.109" /><path
         id="path32"
         style="fill:#ffffff;fill-opacity:1;fill-rule:nonzero;stroke:none"
         d="m 1387.28,421.953 c -2.72,9.942 -13.28,25.637 -34.09,25.637 -20.8,0 -37.4,-16.594 -37.4,-46.758 0,-27.141 14.18,-47.039 38.01,-47.039 22.92,0 31.66,17.477 36.18,29.547 l 31.08,-16.289 c -11.77,-32.567 -41.62,-47.047 -67.87,-47.047 -41.92,0 -74.8,32.273 -74.8,79.93 0,46.14 33.17,79.929 76.02,79.929 37.99,0 57.3,-25.34 65.13,-42.84 l -32.26,-15.07" /><path
         id="path34"
         style="fill:#ffffff;fill-opacity:1;fill-rule:nonzero;stroke:none"
         d="m 1554.65,475.336 -38.31,-131.508 -8.45,-28.348 c -10.25,-31.679 -21.4,-42.824 -49.46,-42.824 -11.76,0 -17.5,1.203 -21.72,1.809 v 31.668 c 3.32,-0.606 6.05,-0.906 9.66,-0.906 2.71,0 10.56,0 16.29,3.914 4.22,2.714 8.45,9.347 8.45,12.375 l -54.6,153.82 h 38.9 l 33.49,-112.512 28.64,112.512 h 37.11" /><path
         id="path36"
         style="fill:#ffffff;fill-opacity:1;fill-rule:nonzero;stroke:none"
         d="m 42.5273,228.938 v -66.672 h 13.8711 c 13.5704,0 18.6954,0.312 26.2344,0.605 8.7578,0.305 37.4022,1.809 37.4022,32.871 0,4.531 -0.297,20.219 -16.894,28.664 -8.4301,4.219 -18.6996,4.532 -42.2191,4.532 z M 3.01172,263.313 H 70.8828 C 99.2305,263.02 118.23,263.02 136.93,247.93 c 13.261,-10.86 23.515,-27.754 23.515,-52.481 0,-40.722 -29.847,-54.89 -41.91,-58.523 L 165.883,50.3711 H 120.344 L 78.1094,129.395 H 42.5273 V 50.3711 H 3.01172 V 263.313" /><path
         id="path38"
         style="fill:#ffffff;fill-opacity:1;fill-rule:nonzero;stroke:none"
         d="M 219.848,201.184 V 50.3711 H 183.957 V 201.184 Z m 0,60.007 v -36.492 h -35.891 v 36.492 h 35.891" /><path
         id="path40"
         style="fill:#ffffff;fill-opacity:1;fill-rule:nonzero;stroke:none"
         d="m 315.141,173.43 c -18.407,0 -37.106,-12.364 -37.106,-41.321 0,-26.238 15.996,-39.8121 37.403,-39.8121 19.3,0 36.796,10.5471 37.105,38.3011 0.297,24.433 -12.969,42.832 -37.402,42.832 z m 72.382,27.754 V 77.5195 c -0.3,-29.8632 -0.3,-41.9218 -9.656,-54.5898 C 369.422,11.7695 350.719,0.00390625 315.141,0.00390625 261.449,0.00390625 250.902,23.2227 245.773,47.3633 h 39.809 c 2.707,-8.7578 9.051,-18.6992 30.762,-18.6992 18.394,0 26.551,7.2343 29.855,12.0586 5.434,7.5312 5.434,16.289 5.434,34.6796 -7.848,-7.2382 -23.52,-16.289 -45.25,-16.289 -35.578,0 -65.442,24.1406 -65.442,72.0897 0,56.102 40.122,74.5 67.872,74.5 27.132,0 38.601,-14.773 42.82,-20.215 v 15.696 h 35.89" /><path
         id="path42"
         style="fill:#ffffff;fill-opacity:1;fill-rule:nonzero;stroke:none"
         d="m 452.352,263.313 v -77.512 c 11.461,11.457 27.132,19.902 47.949,19.902 18.699,0 33.183,-7.234 41.32,-16.289 12.371,-13.262 12.668,-28.66 12.668,-45.848 V 50.3711 h -35.582 v 82.9419 c -0.613,13.574 -0.613,16.894 -2.426,21.414 -1.203,3.019 -6.328,16.593 -26.234,16.593 -23.223,0 -34.082,-18.703 -36.488,-27.441 -1.207,-4.832 -1.207,-7.246 -1.207,-24.141 V 50.3711 H 416.156 V 263.313 h 36.196" /><path
         id="path44"
         style="fill:#ffffff;fill-opacity:1;fill-rule:nonzero;stroke:none"
         d="m 623.656,175.234 v -68.152 c 0,-18.6992 0,-26.8476 17.188,-26.8476 5.433,0 9.945,0.2929 15.07,1.8086 V 51.5742 c -10.851,-1.8086 -18.086,-2.4023 -26.234,-2.4023 -7.539,0 -32.875,0 -39.809,18.3867 -2.414,6.0352 -2.414,15.6953 -2.414,30.7617 v 76.9137 h -22.019 v 25.95 h 22.019 v 53.386 h 36.199 v -53.386 h 32.258 v -25.95 h -32.258" /><path
         id="path46"
         style="fill:#ffffff;fill-opacity:1;fill-rule:nonzero;stroke:none"
         d="m 683.051,95.0195 c 9.051,-11.1718 22.625,-19.3047 43.426,-19.3047 20.808,0 29.863,10.254 29.863,17.793 0,9.6482 -10.856,12.0582 -15.688,12.9692 -5.129,1.199 -29.847,5.734 -35.289,7.238 -35.886,8.433 -42.523,29.254 -42.523,42.832 0,25.633 23.223,49.156 64.547,49.156 22.918,0 39.519,-7.234 49.773,-14.48 7.531,-4.817 12.356,-9.942 15.379,-13.575 L 766.906,153.82 c -4.238,8.153 -14.492,22.93 -41.035,22.93 -17.187,0 -25.027,-7.551 -25.027,-15.391 0,-10.859 11.16,-13.867 30.469,-17.187 31.355,-5.734 40.117,-7.246 49.761,-14.777 9.348,-7.247 15.383,-19.305 15.383,-31.9731 0,-23.5352 -21.102,-51.5703 -67.867,-51.5703 -26.84,0 -53.383,8.4453 -72.375,26.8359 l 26.836,22.332" /><path
         id="path48"
         style="fill:#f14624;fill-opacity:1;fill-rule:nonzero;stroke:none"
         d="M 188.43,845.156 H 102.523 L 145.477,665.938 Z" /><path
         id="path50"
         style="fill:#f14624;fill-opacity:1;fill-rule:nonzero;stroke:none"
         d="M 269.359,682.418 145.164,619.258 20.9688,682.418 0.945313,598.879 H 105.086 185.242 289.383 l -20.024,83.539" /></g></g></svg>