<?xml version="1.0" encoding="UTF-8" standalone="no"?>
<svg
   xmlns:dc="http://purl.org/dc/elements/1.1/"
   xmlns:cc="http://creativecommons.org/ns#"
   xmlns:rdf="http://www.w3.org/1999/02/22-rdf-syntax-ns#"
   xmlns:svg="http://www.w3.org/2000/svg"
   xmlns="http://www.w3.org/2000/svg"
   viewBox="0 0 311.93332 34.080002"
   height="34.080002"
   width="311.93332"
   xml:space="preserve"
   id="svg2"
   version="1.1"><metadata
     id="metadata8"><rdf:RDF><cc:Work
         rdf:about=""><dc:format>image/svg+xml</dc:format><dc:type
           rdf:resource="http://purl.org/dc/dcmitype/StillImage" /></cc:Work></rdf:RDF></metadata><defs
     id="defs6" /><g
     transform="matrix(1.3333333,0,0,-1.3333333,0,34.08)"
     id="g10"><g
       transform="scale(0.1)"
       id="g12"><path
         id="path14"
         style="fill:#ffffff;fill-opacity:1;fill-rule:nonzero;stroke:none"
         d="M 416.207,186.719 V 73.0234 h 13.637 c 24.34,0 32.855,1.2227 40.16,3.9063 12.418,4.8633 25.566,15.5781 25.566,51.3673 0,16.066 -2.429,42.355 -26.289,53.801 -9.261,4.14 -14.371,4.382 -36.035,4.621 z m -32.137,29.219 h 61.59 c 14.86,-0.239 32.871,-0.489 50.883,-13.387 28.73,-20.207 33.109,-54.781 33.109,-74.02 0,-29.4529 -9.972,-59.3943 -35.3,-74.0037 C 477.309,44.5469 459.297,44.3047 439.094,44.0586 H 384.07 V 215.938" /><path
         id="path16"
         style="fill:#ffffff;fill-opacity:1;fill-rule:nonzero;stroke:none"
         d="m 618.98,104.676 c -5.843,-2.922 -12.417,-5.1096 -25.566,-7.3049 -10.461,-1.457 -24.348,-3.8867 -24.348,-16.7891 0,-9.5039 8.043,-14.375 19.723,-14.375 14.859,0 25.328,6.8164 28.481,14.1211 1.71,3.6524 1.71,7.3047 1.71,10.9571 z m -75.226,25.332 c 0.484,6.082 0.973,11.191 4.875,18.25 11.68,21.187 40.648,21.187 48.437,21.187 11.696,0 25.817,-1.468 36.524,-7.789 14.359,-8.777 14.609,-20.215 14.609,-33.359 V 63.7773 c 0,-9.25 0,-12.414 5.36,-19.7187 H 618.98 c -0.242,2.9219 -0.722,7.793 -0.722,9.4922 -6.332,-5.3516 -19.235,-12.4102 -36.035,-12.4102 -27.516,0 -44.071,17.0391 -44.071,37.9766 0,6.0859 1.461,11.6797 3.895,16.5547 8.766,17.5271 27.508,21.4141 39.199,23.6131 25.082,5.106 27.024,5.594 37.734,9.012 0,6.086 -0.488,18.496 -20.695,18.496 -12.176,0 -18.742,-3.887 -21.664,-7.793 -3.164,-3.887 -2.926,-7.305 -2.926,-10.703 l -29.941,1.711" /><path
         id="path18"
         style="fill:#ffffff;fill-opacity:1;fill-rule:nonzero;stroke:none"
         d="M 700.551,144.852 V 89.8281 c 0,-15.0937 0,-21.6679 13.875,-21.6679 4.387,0 8.023,0.2461 12.168,1.4648 V 45.0273 c -8.766,-1.457 -14.602,-1.9453 -21.184,-1.9453 -6.078,0 -26.539,0 -32.133,14.8438 -1.945,4.875 -1.945,12.668 -1.945,24.8359 v 62.0903 h -17.773 v 20.937 h 17.773 v 43.094 h 29.219 v -43.094 h 26.043 v -20.937 h -26.043" /><path
         id="path20"
         style="fill:#ffffff;fill-opacity:1;fill-rule:nonzero;stroke:none"
         d="m 817.605,104.676 c -5.847,-2.922 -12.414,-5.1096 -25.562,-7.3049 -10.461,-1.457 -24.348,-3.8867 -24.348,-16.7891 0,-9.5039 8.035,-14.375 19.723,-14.375 14.852,0 25.324,6.8164 28.48,14.1211 1.707,3.6524 1.707,7.3047 1.707,10.9571 z m -75.226,25.332 c 0.488,6.082 0.973,11.191 4.871,18.25 11.68,21.187 40.648,21.187 48.441,21.187 11.692,0 25.813,-1.468 36.52,-7.789 14.359,-8.777 14.609,-20.215 14.609,-33.359 V 63.7773 c 0,-9.25 0,-12.414 5.364,-19.7187 h -34.579 c -0.238,2.9219 -0.726,7.793 -0.726,9.4922 -6.332,-5.3516 -19.234,-12.4102 -36.035,-12.4102 -27.508,0 -44.063,17.0391 -44.063,37.9766 0,6.0859 1.457,11.6797 3.887,16.5547 8.766,17.5271 27.512,21.4141 39.203,23.6131 25.078,5.106 27.024,5.594 37.734,9.012 0,6.086 -0.488,18.496 -20.691,18.496 -12.18,0 -18.75,-3.887 -21.664,-7.793 -3.172,-3.887 -2.93,-7.305 -2.93,-10.703 l -29.941,1.711" /><path
         id="path22"
         style="fill:#ffffff;fill-opacity:1;fill-rule:nonzero;stroke:none"
         d="m 951.289,188.43 v -59.645 h 23.137 c 6.812,0 12.648,0 18.262,1.457 19.952,4.871 21.172,23.133 21.172,29.219 0,12.648 -5.59,19.23 -8.52,21.914 -8.031,6.816 -19.235,7.055 -29.703,7.055 z m -32.371,27.508 h 57.937 c 9.497,0 19.485,0 29.455,-2.68 16.81,-4.625 40.41,-19.723 40.41,-54.531 0,-22.891 -10.7,-47.469 -41.38,-54.286 -9.5,-2.199 -18.5,-2.199 -28.973,-2.199 H 951.289 V 44.0586 H 918.918 V 215.938" /><path
         id="path24"
         style="fill:#ffffff;fill-opacity:1;fill-rule:nonzero;stroke:none"
         d="m 1087.61,165.789 v -17.285 c 3.65,6.324 11.68,20.691 38.95,19.953 v -29.934 c -6.33,-0.246 -17.28,-0.488 -26.3,-7.304 -12.41,-9.504 -12.65,-21.914 -12.65,-42.1213 V 44.0586 h -28.24 V 165.789 h 28.24" /><path
         id="path26"
         style="fill:#ffffff;fill-opacity:1;fill-rule:nonzero;stroke:none"
         d="M 1167.45,165.789 V 44.0586 h -28.96 V 165.789 Z m 0,48.441 v -29.453 h -28.96 v 29.453 h 28.96" /><path
         id="path28"
         style="fill:#ffffff;fill-opacity:1;fill-rule:nonzero;stroke:none"
         d="M 1290.15,165.789 1250.22,44.0586 h -31.41 l -39.43,121.7304 h 30.18 l 25.32,-83.7538 24.83,83.7538 h 30.44" /><path
         id="path30"
         style="fill:#ffffff;fill-opacity:1;fill-rule:nonzero;stroke:none"
         d="m 1372.66,104.676 c -5.84,-2.922 -12.42,-5.1096 -25.57,-7.3049 -10.46,-1.457 -24.35,-3.8867 -24.35,-16.7891 0,-9.5039 8.05,-14.375 19.73,-14.375 14.85,0 25.32,6.8164 28.48,14.1211 1.71,3.6524 1.71,7.3047 1.71,10.9571 z m -75.23,25.332 c 0.49,6.082 0.97,11.191 4.87,18.25 11.68,21.187 40.65,21.187 48.44,21.187 11.69,0 25.82,-1.468 36.53,-7.789 14.36,-8.777 14.61,-20.215 14.61,-33.359 V 63.7773 c 0,-9.25 0,-12.414 5.36,-19.7187 h -34.58 c -0.24,2.9219 -0.73,7.793 -0.73,9.4922 -6.32,-5.3516 -19.22,-12.4102 -36.03,-12.4102 -27.51,0 -44.06,17.0391 -44.06,37.9766 0,6.0859 1.45,11.6797 3.88,16.5547 8.76,17.5271 27.51,21.4141 39.2,23.6131 25.08,5.106 27.03,5.594 37.74,9.012 0,6.086 -0.49,18.496 -20.7,18.496 -12.17,0 -18.74,-3.887 -21.66,-7.793 -3.16,-3.887 -2.93,-7.305 -2.93,-10.703 l -29.94,1.711" /><path
         id="path32"
         style="fill:#ffffff;fill-opacity:1;fill-rule:nonzero;stroke:none"
         d="m 1503.88,122.703 c -2.19,8.027 -10.72,20.692 -27.52,20.692 -16.79,0 -30.18,-13.387 -30.18,-37.743 0,-21.9059 11.44,-37.9684 30.68,-37.9684 18.49,0 25.55,14.1094 29.2,23.8555 l 25.08,-13.1524 c -9.5,-26.289 -33.59,-37.9804 -54.78,-37.9804 -33.83,0 -60.37,26.0468 -60.37,64.5237 0,37.246 26.77,64.515 61.35,64.515 30.68,0 46.26,-20.453 52.58,-34.574 l -26.04,-12.168" /><path
         id="path34"
         style="fill:#ffffff;fill-opacity:1;fill-rule:nonzero;stroke:none"
         d="m 1638.97,165.789 -30.91,-106.1523 -6.82,-22.8828 c -8.28,-25.5664 -17.28,-34.57031 -39.93,-34.57031 -9.48,0 -14.12,0.97657 -17.53,1.46485 V 29.2031 c 2.68,-0.4765 4.87,-0.7304 7.79,-0.7304 2.2,0 8.53,0 13.16,3.164 3.4,2.1992 6.81,7.5508 6.81,9.9922 l -44.07,124.1601 h 31.41 l 27.02,-90.8202 23.12,90.8202 h 29.95" /><path
         id="path36"
         style="fill:#ffffff;fill-opacity:1;fill-rule:nonzero;stroke:none"
         d="m 1730.88,184.797 v -53.813 h 11.19 c 10.96,0 15.1,0.254 21.18,0.489 7.07,0.242 30.19,1.453 30.19,26.531 0,3.652 -0.24,16.32 -13.64,23.141 -6.8,3.402 -15.09,3.652 -34.08,3.652 z m -31.9,27.75 h 54.78 c 22.89,-0.242 38.22,-0.242 53.32,-12.418 10.7,-8.766 18.98,-22.402 18.98,-42.359 0,-32.872 -24.1,-44.317 -33.82,-47.235 l 38.21,-69.8748 h -36.76 l -34.09,63.7888 h -28.72 V 40.6602 h -31.9 V 212.547" /><path
         id="path38"
         style="fill:#ffffff;fill-opacity:1;fill-rule:nonzero;stroke:none"
         d="M 1874,162.398 V 40.6602 h -28.96 V 162.398 Z m 0,48.438 v -29.457 h -28.96 v 29.457 H 1874" /><path
         id="path40"
         style="fill:#ffffff;fill-opacity:1;fill-rule:nonzero;stroke:none"
         d="m 1950.93,139.996 c -14.86,0 -29.95,-9.98 -29.95,-33.359 0,-21.1722 12.91,-32.1292 30.19,-32.1292 15.58,0 29.7,8.5078 29.95,30.9062 0.24,19.719 -10.47,34.582 -30.19,34.582 z m 58.43,22.402 V 62.5742 c -0.24,-24.1094 -0.24,-33.8359 -7.8,-44.0625 -6.81,-9.01561 -21.91,-18.51560625 -50.63,-18.51560625 -43.34,0 -51.86,18.75000625 -55.99,38.23440625 h 32.13 c 2.19,-7.0703 7.31,-15.0977 24.83,-15.0977 14.85,0 21.43,5.8477 24.1,9.7344 4.39,6.0859 4.39,13.1562 4.39,28 -6.34,-5.8399 -18.99,-13.1445 -36.52,-13.1445 -28.72,0 -52.83,19.4804 -52.83,58.1833 0,45.282 32.38,60.145 54.78,60.145 21.9,0 31.16,-11.934 34.57,-16.317 v 12.664 h 28.97" /><path
         id="path42"
         style="fill:#ffffff;fill-opacity:1;fill-rule:nonzero;stroke:none"
         d="m 2061.69,212.547 v -62.57 c 9.25,9.25 21.9,16.074 38.7,16.074 15.1,0 26.79,-5.848 33.36,-13.153 9.98,-10.714 10.21,-23.136 10.21,-37.011 V 40.6602 h -28.72 v 66.9528 c -0.48,10.957 -0.48,13.633 -1.95,17.285 -0.97,2.43 -5.11,13.387 -21.17,13.387 -18.75,0 -27.52,-15.094 -29.46,-22.144 -0.97,-3.907 -0.97,-5.852 -0.97,-19.4847 V 40.6602 h -29.22 V 212.547 h 29.22" /><path
         id="path44"
         style="fill:#ffffff;fill-opacity:1;fill-rule:nonzero;stroke:none"
         d="M 2199.96,141.453 V 86.4336 c 0,-15.0977 0,-21.6602 13.88,-21.6602 4.38,0 8.03,0.2344 12.17,1.4532 V 41.6367 c -8.77,-1.4648 -14.6,-1.9531 -21.19,-1.9531 -6.08,0 -26.53,0 -32.12,14.8516 -1.96,4.875 -1.96,12.6679 -1.96,24.8281 v 62.0897 h -17.77 v 20.945 h 17.77 v 43.086 h 29.22 v -43.086 h 26.05 v -20.945 h -26.05" /><path
         id="path46"
         style="fill:#ffffff;fill-opacity:1;fill-rule:nonzero;stroke:none"
         d="m 2247.91,76.6953 c 7.3,-9.0117 18.26,-15.5742 35.05,-15.5742 16.81,0 24.11,8.2695 24.11,14.3555 0,7.7929 -8.77,9.7343 -12.67,10.4687 -4.14,0.9766 -24.1,4.6289 -28.48,5.8477 -28.97,6.8086 -34.33,23.613 -34.33,34.57 0,20.684 18.75,39.688 52.1,39.688 18.51,0 31.91,-5.848 40.18,-11.699 6.08,-3.887 9.97,-8.028 12.42,-10.957 l -20.69,-19.231 c -3.42,6.582 -11.7,18.508 -33.13,18.508 -13.87,0 -20.2,-6.094 -20.2,-12.422 0,-8.77 9.01,-11.191 24.6,-13.879 25.31,-4.617 32.38,-5.836 40.16,-11.922 7.55,-5.8474 12.42,-15.5857 12.42,-25.8084 0,-18.9961 -17.04,-41.6328 -54.78,-41.6328 -21.67,0 -43.1,6.8164 -58.43,21.6719 l 21.67,18.0156" /><path
         id="path48"
         style="fill:#f14624;fill-opacity:1;fill-rule:nonzero;stroke:none"
         d="M 192.367,255.641 H 104.223 L 148.297,71.7539 Z" /><path
         id="path50"
         style="fill:#f14624;fill-opacity:1;fill-rule:nonzero;stroke:none"
         d="M 275.406,88.668 147.973,23.8633 20.5469,88.668 0,2.94531 h 106.855 82.243 106.847 L 275.406,88.668" /></g></g></svg>