<?xml version="1.0" encoding="UTF-8" standalone="no"?>
<svg
   xmlns:dc="http://purl.org/dc/elements/1.1/"
   xmlns:cc="http://creativecommons.org/ns#"
   xmlns:rdf="http://www.w3.org/1999/02/22-rdf-syntax-ns#"
   xmlns:svg="http://www.w3.org/2000/svg"
   xmlns="http://www.w3.org/2000/svg"
   viewBox="0 0 85.333336 80"
   height="80"
   width="85.333336"
   xml:space="preserve"
   id="svg2"
   version="1.1"><metadata
     id="metadata8"><rdf:RDF><cc:Work
         rdf:about=""><dc:format>image/svg+xml</dc:format><dc:type
           rdf:resource="http://purl.org/dc/dcmitype/StillImage" /></cc:Work></rdf:RDF></metadata><defs
     id="defs6" /><g
     transform="matrix(1.3333333,0,0,-1.3333333,0,80)"
     id="g10"><g
       transform="scale(0.1)"
       id="g12"><path
         id="path14"
         style="fill:#532e90;fill-opacity:1;fill-rule:nonzero;stroke:none"
         d="M 630,510 H 250 v 82.5 H 630 V 510" /><path
         id="path16"
         style="fill:#146da3;fill-opacity:1;fill-rule:nonzero;stroke:none"
         d="M 209.172,491.664 H 10.8359 V 592.5 H 209.172 V 491.664" /><path
         id="path18"
         style="fill:#f1511b;fill-opacity:1;fill-rule:nonzero;stroke:none"
         d="M 209.172,252.086 H 10.8359 V 450.414 H 209.172 V 252.086" /><path
         id="path20"
         style="fill:#ffffff;fill-opacity:1;fill-rule:nonzero;stroke:none"
         d="M 626.25,373.563 H 250 V 509.164 H 626.25 V 373.563" /><path
         id="path22"
         style="fill:#ffffff;fill-opacity:1;fill-rule:nonzero;stroke:none"
         d="M 595.176,12.3828 H 250 V 509.164 H 595.176 V 12.3828" /><path
         id="path24"
         style="fill:#66c430;fill-opacity:1;fill-rule:nonzero;stroke:none"
         d="m 630,310 h -40 v 63.563 h 40 V 310" /><path
         id="path26"
         style="fill:#f1511b;fill-opacity:1;fill-rule:nonzero;stroke:none"
         d="M 612.5,20 590,60 h 40 z" /><path
         id="path28"
         style="fill:#f1511b;fill-opacity:1;fill-rule:nonzero;stroke:none"
         d="M 630,46.3945 H 590 V 311.781 h 40 V 46.3945" /><path
         id="path30"
         style="fill:#66c430;fill-opacity:1;fill-rule:nonzero;stroke:none"
         d="M 470,70.8281 H 70 V 269.164 H 470 V 70.8281" /><path
         id="path32"
         style="fill:#142339;fill-opacity:1;fill-rule:nonzero;stroke:none"
         d="M 260,272.914 H 240 V 600 H 640 V 361.664 H 620 V 580 H 260 V 272.914" /><path
         id="path34"
         style="fill:#142339;fill-opacity:1;fill-rule:nonzero;stroke:none"
         d="M 612.5,0 H 240 v 69.5781 h 20 V 20 H 612.5 V 0" /><path
         id="path36"
         style="fill:#142339;fill-opacity:1;fill-rule:nonzero;stroke:none"
         d="m 20,500 h 180 v 80 H 20 Z M 220,480 H 0 V 600 H 220 V 480" /><path
         id="path38"
         style="fill:#142339;fill-opacity:1;fill-rule:nonzero;stroke:none"
         d="m 600,52.3555 10,-20 10,20 V 360 H 600 Z M 610,0 c -3.789,0 -7.246,2.14063 -8.945,5.52734 l -20,39.99996 C 580.359,46.9141 580,48.4453 580,50 v 320 c 0,5.523 4.473,10 10,10 h 40 c 5.527,0 10,-4.477 10,-10 V 50 c 0,-1.5547 -0.359,-3.0859 -1.055,-4.4727 l -20,-39.99996 C 617.246,2.14063 613.789,0 610,0" /><path
         id="path40"
         style="fill:#142339;fill-opacity:1;fill-rule:nonzero;stroke:none"
         d="M 65.5273,240 H 0 V 460 H 220 V 275.836 H 200 V 440 H 20 V 260 h 45.5273 v -20" /><path
         id="path42"
         style="fill:#142339;fill-opacity:1;fill-rule:nonzero;stroke:none"
         d="M 80,80 H 460 V 260 H 80 Z M 480,60 H 60 V 280 H 480 V 60" /><path
         id="path44"
         style="fill:#142339;fill-opacity:1;fill-rule:nonzero;stroke:none"
         d="m 630,300 h -40 v 20 h 40 v -20" /><path
         id="path46"
         style="fill:#ffffff;fill-opacity:1;fill-rule:nonzero;stroke:none"
         d="m 120,530 h -20 v 20 h 20 v -20" /><path
         id="path48"
         style="fill:#ffffff;fill-opacity:1;fill-rule:nonzero;stroke:none"
         d="M 80,530 H 60 v 20 h 20 v -20" /><path
         id="path50"
         style="fill:#ffffff;fill-opacity:1;fill-rule:nonzero;stroke:none"
         d="m 160,530 h -20 v 20 h 20 v -20" /><path
         id="path52"
         style="fill:#142339;fill-opacity:1;fill-rule:nonzero;stroke:none"
         d="m 450,440 h -20 v 20 h 20 v -20" /><path
         id="path54"
         style="fill:#142339;fill-opacity:1;fill-rule:nonzero;stroke:none"
         d="m 410,440 h -20 v 20 h 20 v -20" /><path
         id="path56"
         style="fill:#142339;fill-opacity:1;fill-rule:nonzero;stroke:none"
         d="m 490,440 h -20 v 20 h 20 v -20" /><path
         id="path58"
         style="fill:#142339;fill-opacity:1;fill-rule:nonzero;stroke:none"
         d="M 270,158.816 65.5273,261.055 74.4727,278.945 270,181.184 465.527,278.945 474.473,261.055 270,158.816" /><path
         id="path60"
         style="fill:#142339;fill-opacity:1;fill-rule:nonzero;stroke:none"
         d="M 630,500 H 250 v 20 h 380 v -20" /><path
         id="path62"
         style="fill:#ffffff;fill-opacity:1;fill-rule:nonzero;stroke:none"
         d="M 600,540 H 280 v 20 h 320 v -20" /><path
         id="path64"
         style="fill:#142339;fill-opacity:1;fill-rule:nonzero;stroke:none"
         d="M 180,400 H 40 v 20 h 140 v -20" /></g></g></svg>