<?xml version="1.0" encoding="utf-8"?>
<!-- Generator: Adobe Illustrator 21.1.0, SVG Export Plug-In . SVG Version: 6.00 Build 0)  -->
<svg version="1.1" id="Capa_1" xmlns="http://www.w3.org/2000/svg" xmlns:xlink="http://www.w3.org/1999/xlink" x="0px" y="0px"
	 viewBox="0 0 58 58" style="enable-background:new 0 0 58 58;" xml:space="preserve">
<style type="text/css">
	.st0{fill:#EFEBDE;}
	.st1{fill:#D5D0BB;}
</style>
<g>
	<polygon class="st0" points="46.5,14 32.5,0 1.5,0 1.5,58 46.5,58 	"/>
	<g>
		<path class="st1" d="M11.5,23h25c0.6,0,1-0.4,1-1s-0.4-1-1-1h-25c-0.6,0-1,0.4-1,1S10.9,23,11.5,23z"/>
		<path class="st1" d="M11.5,15h10c0.6,0,1-0.4,1-1s-0.4-1-1-1h-10c-0.6,0-1,0.4-1,1S10.9,15,11.5,15z"/>
		<path class="st1" d="M36.5,29h-25c-0.6,0-1,0.4-1,1s0.4,1,1,1h25c0.6,0,1-0.4,1-1S37.1,29,36.5,29z"/>
		<path class="st1" d="M36.5,37h-25c-0.6,0-1,0.4-1,1s0.4,1,1,1h25c0.6,0,1-0.4,1-1S37.1,37,36.5,37z"/>
		<path class="st1" d="M36.5,45h-25c-0.6,0-1,0.4-1,1s0.4,1,1,1h25c0.6,0,1-0.4,1-1S37.1,45,36.5,45z"/>
	</g>
	<polygon class="st1" points="32.5,0 32.5,14 46.5,14 	"/>
</g>
</svg>
