<svg xmlns="http://www.w3.org/2000/svg" viewBox="0 0 180 180"><defs><style>.cls-1{isolation:isolate;}.cls-2{fill:none;}.cls-3{fill:#66c430;}.cls-10,.cls-4{fill:#1f364f;}.cls-4{opacity:0.15;mix-blend-mode:multiply;}.cls-5{fill:#ffac27;}.cls-6{fill:#fff;}.cls-7{fill:#c5d2d8;}.cls-8{fill:#9bb9cf;}.cls-9{fill:#ffcd5f;}</style></defs><title>Assets</title><g class="cls-1"><g id="CONTENT"><path class="cls-2" d="M85.19,168.08c1.26.06,2.53.1,3.81.1s2.55,0,3.81-.1H85.19Z"/><path class="cls-3" d="M91.56,167.6h0L89.92,166h0l-.54-.55h0l-.33-.33-.55-.55-3.82-3.82h0l-.54-.55h0l-4.26-4.26h0l-.55-.55h0l-6.18-6.18h0l-.55-.54h0L60.35,136.39h0a3.19,3.19,0,0,1-.94-2.24v-12L49.15,111.87l0-62.06h37l15.73,15.73.46.46.08.08,5.1,5.1,1.09,1.09.43.43.11.11,2.11,2.11h20.89a8.32,8.32,0,0,1,5.9,2.45l.54.55h0l6.17,6.17,0,0,.55.54h0l4.25,4.25h0l.54.54h0L154,93.3h0l.54.54h0l.33.33h0l.54.54h0l1.64,1.64h0l.55.54h0l2.86,2.86h0l1.13,1.13h0l.54.54h0l2.68,2.68h0l.35.35a77.49,77.49,0,1,0-80.06,63.57H92Z"/><path class="cls-3" d="M165.25,104.51l-.35-.35h0l-2.68-2.68h0l-.54-.54h0l-1.13-1.13h0l-2.86-2.86h0l-.55-.54h0l-1.64-1.64h0l-.54-.54h0l-.33-.33h0l-.54-.54h0l-3.82-3.82h0l-.54-.54h0l-4.25-4.25h0l-.55-.54,0,0-6.17-6.17h0l-.54-.55a8.32,8.32,0,0,0-5.9-2.45H111.33l-2.11-2.11-.11-.11-.43-.43-1.09-1.09-5.1-5.1L102.4,66l-.46-.46L86.2,49.81h-37l0,62.06,10.27,10.27v12a3.19,3.19,0,0,0,.94,2.24h0l12.22,12.22h0l.55.54h0l6.18,6.18h0l.55.55h0l4.26,4.26h0l.54.55h0l3.82,3.82.55.55.33.33h0l.54.55h0l1.64,1.64h0l.48.48h.77A77.51,77.51,0,0,0,165.25,104.51Z"/><path class="cls-4" d="M165.25,104.51l-.35-.35h0l-2.68-2.68h0l-.54-.54h0l-1.13-1.13h0l-2.86-2.86h0l-.55-.54h0l-1.64-1.64h0l-.54-.54h0l-.33-.33h0l-.54-.54h0l-3.82-3.82h0l-.54-.54h0l-4.25-4.25h0l-.55-.54,0,0-6.17-6.17h0l-.54-.55a8.32,8.32,0,0,0-5.9-2.45H111.33l-2.11-2.11-.11-.11-.43-.43-1.09-1.09-5.1-5.1L102.4,66l-.46-.46L86.2,49.81h-37l0,62.06,10.27,10.27v12a3.19,3.19,0,0,0,.94,2.24h0l12.22,12.22h0l.55.54h0l6.18,6.18h0l.55.55h0l4.26,4.26h0l.54.55h0l3.82,3.82.55.55.33.33h0l.54.55h0l1.64,1.64h0l.48.48h.77A77.51,77.51,0,0,0,165.25,104.51Z"/><path class="cls-5" d="M111.16,95.78a1.85,1.85,0,0,0-1.85-1.85h-30a1.8,1.8,0,0,1-1.3-.75L75.69,90.5a1.75,1.75,0,0,0-1.15-.75H59.67a.75.75,0,0,0-.75.75v6.05l0,0v0h0v37.32h0a3.2,3.2,0,0,0,3.2,3.18c1.76,0,49-.85,49-.85V98.17h0Z"/><polygon class="cls-6" points="85.7 49.58 48.66 49.58 48.66 111.64 101.44 111.64 101.44 65.3 85.7 49.58"/><polygon class="cls-7" points="101.39 80.84 85.69 65.39 85.69 49.58 101.44 65.34 101.39 80.84"/><polygon class="cls-8" points="101.44 65.33 85.69 65.33 85.69 49.58 101.44 65.33"/><path class="cls-9" d="M115.78,95.55l-32.27.08c-.37,0-.58.19-1,.68L80.21,99c-.44.46-.77.75-1.19.75H67.72l0,0h-.52a1.84,1.84,0,0,0-1.85,1.85v.28h0v.54h0v1h0v30.27c0,.07,0,.15,0,.22a3.21,3.21,0,0,1-3.2,3.2h52.33a3.2,3.2,0,0,0,3.13-3.2c0-.08,0-36.51,0-36.51A1.85,1.85,0,0,0,115.78,95.55Z"/><path class="cls-10" d="M80.33,77.79V75.32H78.71V71.83a6.29,6.29,0,0,0-12.58,0v3.48H64.31V90.79h16v-13Zm-6.09,9.6H69.92l1-3.83a2.59,2.59,0,0,1-1.53-2.34,2.67,2.67,0,0,1,5.35,0,2.59,2.59,0,0,1-1.53,2.34Zm2.58-12.08H68V71.83a4.41,4.41,0,0,1,8.82,0Z"/><path class="cls-6" d="M139.21,83.05a7.48,7.48,0,0,1-7.48,7.48h-41a7.48,7.48,0,0,1-7.48-7.48h0a7.48,7.48,0,0,1,7.48-7.48h41a7.48,7.48,0,0,1,7.48,7.48Z"/><path class="cls-10" d="M131.73,91.4h-41a8.35,8.35,0,1,1,0-16.71h41a8.35,8.35,0,0,1,0,16.71Zm-41-15a6.61,6.61,0,0,0,0,13.22h41a6.61,6.61,0,0,0,0-13.22Z"/><path class="cls-10" d="M93.13,84l-1-.65,1-.65a.61.61,0,0,0-.66-1l-.84.55v-1a.61.61,0,0,0-1.21,0v1l-.84-.55a.61.61,0,1,0-.66,1l1,.65-1,.65a.6.6,0,1,0,.66,1l.84-.54v1a.61.61,0,0,0,1.21,0v-1l.84.54a.6.6,0,1,0,.66-1Z"/><path class="cls-10" d="M99.85,84l-1-.65,1-.65a.61.61,0,0,0-.66-1l-.84.55v-1a.61.61,0,0,0-1.21,0v1l-.84-.55a.61.61,0,0,0-.66,1l1,.65-1,.65a.6.6,0,1,0,.66,1l.84-.54v1a.61.61,0,0,0,1.21,0v-1l.84.54a.6.6,0,1,0,.66-1Z"/><path class="cls-10" d="M106.58,84l-1-.65,1-.65a.61.61,0,0,0-.66-1l-.84.55v-1a.61.61,0,0,0-1.21,0v1l-.84-.55a.61.61,0,0,0-.66,1l1,.65-1,.65a.6.6,0,1,0,.66,1l.84-.54v1a.61.61,0,1,0,1.21,0v-1l.84.54a.6.6,0,0,0,.66-1Z"/><path class="cls-10" d="M113.3,84l-1-.65,1-.65a.61.61,0,0,0-.66-1l-.84.55v-1a.6.6,0,0,0-1.21,0v1l-.84-.55a.61.61,0,0,0-.66,1l1,.65-1,.65a.61.61,0,0,0-.18.84.6.6,0,0,0,.84.17l.84-.54v1a.6.6,0,1,0,1.21,0v-1l.84.54a.6.6,0,1,0,.66-1Z"/><path class="cls-10" d="M120,84l-1-.65,1-.65a.61.61,0,1,0-.66-1l-.84.55v-1a.61.61,0,0,0-1.21,0v1l-.84-.55a.61.61,0,0,0-.66,1l1,.65-1,.65a.6.6,0,1,0,.66,1l.84-.54v1a.61.61,0,1,0,1.21,0v-1l.84.54a.6.6,0,1,0,.66-1Z"/><path class="cls-10" d="M126.75,84l-1-.65,1-.65a.61.61,0,0,0-.66-1l-.84.55v-1a.6.6,0,0,0-1.21,0v1l-.84-.55a.61.61,0,0,0-.66,1l1,.65-1,.65a.6.6,0,1,0,.66,1l.84-.54v1a.6.6,0,1,0,1.21,0v-1l.84.54a.6.6,0,1,0,.66-1Z"/><path class="cls-10" d="M133.48,84l-1-.65,1-.65a.61.61,0,0,0-.66-1l-.84.55v-1a.6.6,0,0,0-1.21,0v1l-.84-.55a.61.61,0,0,0-.66,1l1,.65-1,.65a.6.6,0,1,0,.66,1l.84-.54v1a.6.6,0,1,0,1.21,0v-1l.84.54a.6.6,0,1,0,.66-1Z"/></g></g></svg>