<svg xmlns="http://www.w3.org/2000/svg" viewBox="0 0 180 180"><defs><style>.cls-1{isolation:isolate;}.cls-2{fill:#532e90;}.cls-3,.cls-7{fill:#1f364f;}.cls-3{opacity:0.15;mix-blend-mode:multiply;}.cls-4{fill:#fff;}.cls-5{fill:#e6e5e5;}.cls-6{fill:#8fdef6;}.cls-8{fill:#f1511b;}.cls-9{fill:#66c430;}.cls-10{fill:#58b4d9;}</style></defs><title>Assets</title><g class="cls-1"><g id="CONTENT"><circle class="cls-2" cx="89" cy="90.68" r="77.5"/><path class="cls-3" d="M166.43,93.37,130.62,57.56a3,3,0,0,0-2.12-.88h-79a3,3,0,0,0-3,3v62a3,3,0,0,0,.88,2.12l44.31,44.31A77.47,77.47,0,0,0,166.43,93.37Z"/><path class="cls-4" d="M131.5,121.68a3,3,0,0,1-3,3h-79a3,3,0,0,1-3-3V72h85Z"/><path class="cls-5" d="M131.5,72h-85V59.68a3,3,0,0,1,3-3h79a3,3,0,0,1,3,3Z"/><rect class="cls-6" x="54" y="79.48" width="70" height="37.7"/><rect class="cls-7" x="79" y="104.61" width="20" height="6.28"/><rect class="cls-4" x="84" y="106.5" width="10" height="2.5"/><rect class="cls-4" x="69" y="85.76" width="40" height="6.28"/><circle class="cls-7" cx="72.75" cy="88.9" r="1.25"/><circle class="cls-7" cx="77.75" cy="88.9" r="1.25"/><circle class="cls-7" cx="82.75" cy="88.9" r="1.25"/><circle class="cls-7" cx="87.75" cy="88.9" r="1.25"/><rect class="cls-4" x="69" y="95.18" width="40" height="6.28"/><circle class="cls-7" cx="72.75" cy="98.33" r="1.25"/><circle class="cls-7" cx="77.75" cy="98.33" r="1.25"/><circle class="cls-7" cx="82.75" cy="98.33" r="1.25"/><circle class="cls-7" cx="87.75" cy="98.33" r="1.25"/><circle class="cls-7" cx="92.75" cy="98.33" r="1.25"/><circle class="cls-7" cx="97.75" cy="98.33" r="1.25"/><circle class="cls-8" cx="54" cy="64.33" r="2.5"/><circle class="cls-9" cx="61.5" cy="64.33" r="2.5"/><circle class="cls-10" cx="69" cy="64.33" r="2.5"/></g></g></svg>