<?xml version="1.0" encoding="utf-8"?>
<!-- Generator: Adobe Illustrator 22.1.0, SVG Export Plug-In . SVG Version: 6.00 Build 0)  -->
<svg version="1.1" id="Layer_1" xmlns="http://www.w3.org/2000/svg" xmlns:xlink="http://www.w3.org/1999/xlink" x="0px" y="0px"
	 viewBox="0 0 42.4 42.9" style="enable-background:new 0 0 42.4 42.9;" xml:space="preserve">
<style type="text/css">
	.st0{fill:#00B0FF;}
</style>
<path class="st0" d="M21,1.2C9.8,1.2,0.7,10.3,0.7,21.6C0.7,32.8,9.8,42,21,42c11.3,0,20.4-9.1,20.4-20.4C41.4,10.3,32.3,1.2,21,1.2
	z M21,37.8c-9,0-16.2-7.3-16.2-16.2S12.1,5.4,21,5.4s16.2,7.3,16.2,16.2S30,37.8,21,37.8z"/>
<path class="st0" d="M21.3,9.6v12.2l-8.4,8.7c2.1,2,5,3.2,8.1,3.2c6.7,0,12-5.4,12-12C33.1,15,27.8,9.7,21.3,9.6z"/>
</svg>
