<?xml version="1.0" encoding="utf-8"?>
<!-- Generator: Adobe Illustrator 22.1.0, SVG Export Plug-In . SVG Version: 6.00 Build 0)  -->
<svg version="1.1" id="Layer_1" xmlns="http://www.w3.org/2000/svg" xmlns:xlink="http://www.w3.org/1999/xlink" x="0px" y="0px"
	 viewBox="0 0 49 47" style="enable-background:new 0 0 49 47;" xml:space="preserve">
<style type="text/css">
	.st0{fill:#FDD835;}
	.st1{fill:#FFFFFF;}
</style>
<circle class="st0" cx="24.3" cy="24.9" r="20.4"/>
<g>
	<path class="st1" d="M27.7,24.9c0,1.9-1.5,3.4-3.4,3.4c-1.9,0-3.4-1.5-3.4-3.4c0-1.9,1.5-3.4,3.4-3.4
		C26.1,21.5,27.7,23.1,27.7,24.9z"/>
	<path class="st1" d="M16.5,24.9c0,1.9-1.5,3.4-3.4,3.4c-1.9,0-3.4-1.5-3.4-3.4c0-1.9,1.5-3.4,3.4-3.4C15,21.6,16.5,23.1,16.5,24.9z
		"/>
	<path class="st1" d="M32.1,25c0-1.9,1.5-3.4,3.3-3.4c1.9,0,3.4,1.5,3.4,3.4c0,1.9-1.5,3.4-3.4,3.4C33.6,28.3,32.1,26.8,32.1,25z"/>
</g>
</svg>
