<svg xmlns="http://www.w3.org/2000/svg" xmlns:xlink="http://www.w3.org/1999/xlink" viewBox="0 0 180 180"><defs><style>.cls-1{fill:none;}.cls-2{isolation:isolate;}.cls-3{fill:#f1511b;}.cls-4,.cls-7{fill:#1f364f;}.cls-4{opacity:0.15;mix-blend-mode:multiply;}.cls-5{fill:#fcb504;}.cls-6{fill:#c3d3e2;}.cls-8{fill:#fff;}.cls-9{fill:#c5d2d8;}.cls-10{fill:#e1dad3;}.cls-11{fill:#ff6d3b;}.cls-12{fill:#ffd55c;}.cls-13{fill:#78d8fb;}.cls-14{clip-path:url(#clip-path);}.cls-15{fill:#00cad1;}.cls-16{fill:#45525b;}.cls-17{fill:#1a5c56;}.cls-18{fill:#f4ecda;}</style><clipPath id="clip-path"><rect class="cls-1" x="67.36" y="59.77" width="16.2" height="16.04"/></clipPath></defs><title>Assets</title><g class="cls-2"><g id="CONTENT"><path class="cls-1" d="M89,13.18c-.61,0-1.21,0-1.82,0h3.6C90.14,13.21,89.55,13.18,89,13.18Z"/><path class="cls-3" d="M83.93,168l-.41-.41-2.19-2.19-.33-.33-.55-.55-3.83-3.83h0l-.55-.55-4.27-4.27h0l-.55-.55-6.19-6.19h0l-.55-.55L52.31,136.38V121.92h6.2v-8.55l-2.14-2.14v-6h6l.55.55,1.92,1.92H80.48l-3.64-3.64h0l-.55-.55L64.08,91.32V49.87a2.41,2.41,0,0,1,2.41-2.41h47a2.4,2.4,0,0,1,1.7.7h0l.55.55h0L122,54.9h0l.55.54h0l4.26,4.26h0l.55.55,3.82,3.83h0l.55.55L132,65l.55.55,1.64,1.64h0l.55.55h0l2.86,2.86h0l.55.54.59.59h0l.55.55L142,74.94h0l.55.55,1,1,.55.55,3.82,3.83h0l.55.55h0l.07.07h0l.26.26.29.29L151,84l.55.55L154.08,87h0l.35.35.2.2.35.35h0l1.82,1.82h0l.55.54h0l1.46,1.46.18.18.37.37.17.18,5.83,5.83h0l.44.44h0l.1.1h0L166,99c.23-2.13.35-4.3.4-6.48V88.88A77.47,77.47,0,0,0,90.73,13.22h-3.6A77.47,77.47,0,0,0,11.5,88.88v3.59A77.48,77.48,0,0,0,83.93,168Z"/><polygon class="cls-3" points="137.63 70.57 137.63 70.57 137.63 70.57 137.63 70.57"/><polygon class="cls-4" points="137.63 70.57 137.63 70.57 137.63 70.57 137.63 70.57"/><path class="cls-3" d="M166,99l-.09-.09h0l-.1-.1h0l-.44-.44h0l-5.83-5.83-.17-.18-.37-.37-.18-.18-1.46-1.46h0l-.55-.54h0L155,87.92h0l-.35-.35-.2-.2-.35-.35h0l-2.51-2.51L151,84l-1.9-1.9-.29-.29-.26-.26h0l-.07-.07h0l-.55-.55h0l-3.82-3.83-.55-.55-1-1-.55-.55h0l-2.69-2.69-.55-.55h0l-.59-.59-.55-.54h0l-2.86-2.86h0l-.55-.55h0l-1.64-1.64L132,65l-.33-.33-.55-.55h0l-3.82-3.83-.55-.55h0l-4.26-4.26h0L122,54.9h0l-6.18-6.19h0l-.55-.55h0a2.4,2.4,0,0,0-1.7-.7h-47a2.41,2.41,0,0,0-2.41,2.41V91.32L76.3,103.54l.55.55h0l3.64,3.64H64.81l-1.92-1.92-.55-.55h-6v6l2.14,2.14v8.55h-6.2v14.45l12.22,12.22.55.55h0l6.19,6.19.55.55h0l4.27,4.27.55.55h0l3.83,3.83.55.55.33.33,2.19,2.19.41.41q2.07.13,4.18.16h1.7A77.49,77.49,0,0,0,166,99Z"/><path class="cls-4" d="M166,99l-.09-.09h0l-.1-.1h0l-.44-.44h0l-5.83-5.83-.17-.18-.37-.37-.18-.18-1.46-1.46h0l-.55-.54h0L155,87.92h0l-.35-.35-.2-.2-.35-.35h0l-2.51-2.51L151,84l-1.9-1.9-.29-.29-.26-.26h0l-.07-.07h0l-.55-.55h0l-3.82-3.83-.55-.55-1-1-.55-.55h0l-2.69-2.69-.55-.55h0l-.59-.59-.55-.54h0l-2.86-2.86h0l-.55-.55h0l-1.64-1.64L132,65l-.33-.33-.55-.55h0l-3.82-3.83-.55-.55h0l-4.26-4.26h0L122,54.9h0l-6.18-6.19h0l-.55-.55h0a2.4,2.4,0,0,0-1.7-.7h-47a2.41,2.41,0,0,0-2.41,2.41V91.32L76.3,103.54l.55.55h0l3.64,3.64H64.81l-1.92-1.92-.55-.55h-6v6l2.14,2.14v8.55h-6.2v14.45l12.22,12.22.55.55h0l6.19,6.19.55.55h0l4.27,4.27.55.55h0l3.83,3.83.55.55.33.33,2.19,2.19.41.41q2.07.13,4.18.16h1.7A77.49,77.49,0,0,0,166,99Z"/><polygon class="cls-5" points="80.15 107.56 80.09 107.49 64.43 107.49 64.49 107.56 80.15 107.56"/><path class="cls-5" d="M68.68,47.29l-2.74-.06-.14.14a2.31,2.31,0,0,1,.37-.08Z"/><path class="cls-6" d="M63.85,49.31l2-1.95A2.35,2.35,0,0,0,63.85,49.31Z"/><polygon class="cls-7" points="123.79 105.03 117.81 105.03 117.81 107.49 92.24 107.49 92.24 105.03 89.89 105.03 89.89 90.19 88.65 90.19 88.65 105.03 86.27 105.03 86.27 107.49 61.81 107.49 61.81 105.03 55.84 105.03 55.84 111 57.98 111 57.98 123.7 59.23 123.7 59.23 111 61.81 111 61.81 108.74 86.27 108.74 86.27 111 88.65 111 88.65 123.7 89.89 123.7 89.89 111 92.24 111 92.24 108.74 117.81 108.74 117.81 111 120.38 111 120.38 123.7 121.63 123.7 121.63 111 123.79 111 123.79 105.03"/><polygon class="cls-8" points="107.8 52.94 63.53 52.94 63.53 91.09 115.39 91.09 115.39 52.98 107.8 52.94"/><rect class="cls-9" x="85.31" y="63.52" width="23.76" height="1.07"/><rect class="cls-9" x="85.31" y="67.24" width="8.11" height="1.08"/><rect class="cls-9" x="85.31" y="59.77" width="23.76" height="1.07"/><polygon class="cls-8" points="70.45 121.7 51.77 121.7 51.77 136.15 73.01 136.15 73.01 124.25 70.45 121.7"/><polygon class="cls-10" points="73 126.77 70.45 124.26 70.45 121.7 73.01 124.25 73 126.77"/><polygon class="cls-9" points="73.01 124.25 70.45 124.25 70.45 121.7 73.01 124.25"/><rect class="cls-9" x="53.86" y="128.03" width="17.14" height="0.36"/><rect class="cls-9" x="53.86" y="129.57" width="17.14" height="0.36"/><rect class="cls-9" x="53.86" y="131.11" width="14.61" height="0.36"/><polygon class="cls-8" points="97.53 121.7 78.85 121.7 78.85 136.15 100.08 136.15 100.08 124.25 97.53 121.7"/><polygon class="cls-10" points="100.08 126.77 97.53 124.26 97.53 121.7 100.08 124.25 100.08 126.77"/><polygon class="cls-9" points="100.08 124.25 97.53 124.25 97.53 121.7 100.08 124.25"/><rect class="cls-9" x="80.94" y="128.03" width="17.14" height="0.36"/><rect class="cls-9" x="80.94" y="129.57" width="17.14" height="0.36"/><rect class="cls-9" x="80.94" y="131.11" width="14.61" height="0.36"/><polygon class="cls-8" points="124.61 121.7 105.93 121.7 105.93 136.15 127.16 136.15 127.16 124.25 124.61 121.7"/><polygon class="cls-10" points="127.15 126.77 124.61 124.26 124.61 121.7 127.16 124.25 127.15 126.77"/><polygon class="cls-9" points="127.16 124.25 124.61 124.25 124.61 121.7 127.16 124.25"/><rect class="cls-9" x="108.02" y="128.03" width="17.14" height="0.36"/><rect class="cls-9" x="108.02" y="129.57" width="17.14" height="0.36"/><rect class="cls-9" x="108.02" y="131.11" width="14.61" height="0.36"/><path class="cls-7" d="M115.38,53.16V49.63A2.41,2.41,0,0,0,113,47.22h-47a2.4,2.4,0,0,0-2.41,2.41v3.53Z"/><circle class="cls-11" cx="66.8" cy="50.57" r="1.02"/><circle class="cls-12" cx="70.01" cy="50.57" r="1.02"/><circle class="cls-13" cx="73.54" cy="50.57" r="1.02"/><g class="cls-14"><rect class="cls-15" x="66.68" y="59.09" width="17.81" height="17.49"/><polygon class="cls-16" points="84.58 75.9 78.96 69.06 77.53 70.78 73.91 66.59 66.4 75.83 73.95 78.44 84.58 75.9"/><polygon class="cls-17" points="78.96 69.06 78.96 72.51 77.53 70.78 78.96 69.06"/><polygon class="cls-17" points="73.91 66.59 73.95 78.44 66.38 75.85 73.91 66.59"/><circle class="cls-18" cx="79.7" cy="63.19" r="1.57"/></g><path class="cls-9" d="M80.64,83.34a1.53,1.53,0,0,1-1.53,1.53H69.66a1.53,1.53,0,0,1-1.52-1.53h0a1.53,1.53,0,0,1,1.52-1.53h9.45a1.53,1.53,0,0,1,1.53,1.53Z"/><path class="cls-9" d="M95.82,83.34a1.52,1.52,0,0,1-1.52,1.53H84.85a1.53,1.53,0,0,1-1.53-1.53h0a1.53,1.53,0,0,1,1.53-1.53H94.3a1.53,1.53,0,0,1,1.52,1.53Z"/><path class="cls-9" d="M111,83.34a1.53,1.53,0,0,1-1.53,1.53H100a1.52,1.52,0,0,1-1.52-1.53h0A1.53,1.53,0,0,1,100,81.81h9.45A1.53,1.53,0,0,1,111,83.34Z"/></g></g></svg>