<svg xmlns="http://www.w3.org/2000/svg" viewBox="0 0 180 180"><defs><style>.cls-1{isolation:isolate;}.cls-2{fill:#146da3;}.cls-3,.cls-4{fill:#1f364f;}.cls-3{opacity:0.15;mix-blend-mode:multiply;}.cls-5{fill:#fff;}.cls-6{fill:#d9d8d7;}.cls-7{fill:#c5d2d8;}.cls-8{fill:#ea6552;}</style></defs><title>Assets</title><g class="cls-1"><g id="CONTENT"><circle class="cls-2" cx="89" cy="90.68" r="77.5"/><path class="cls-3" d="M123.68,56.79l-8.61-8.61H75.17a2.31,2.31,0,0,0-1.66.69,2.34,2.34,0,0,0-.69,1.66v2.86l-5.21-5.21h-6a7.31,7.31,0,0,0-7.29,7.29v3H52.61l8.21,8.21H56.67A2.34,2.34,0,0,0,54.32,69v61.81a2.34,2.34,0,0,0,.69,1.66l35.65,35.65a77.49,77.49,0,0,0,75.37-69Z"/><path class="cls-4" d="M105.18,75.28v55.55a2.35,2.35,0,0,1-2.35,2.35H56.67a2.35,2.35,0,0,1-2.35-2.35V69a2.35,2.35,0,0,1,2.35-2.35h39.9Z"/><path class="cls-5" d="M123.68,56.78v55.55a2.35,2.35,0,0,1-2.35,2.35H75.17a2.35,2.35,0,0,1-2.35-2.35V50.52a2.35,2.35,0,0,1,2.35-2.35h39.9Z"/><path class="cls-6" d="M123.68,56.78h-6.26a2.35,2.35,0,0,1-2.35-2.35V48.18Z"/><rect class="cls-7" x="81.42" y="67.31" width="33.65" height="2.63"/><rect class="cls-7" x="81.42" y="72.58" width="33.65" height="2.63"/><rect class="cls-8" x="81.42" y="56.78" width="16.82" height="2.63"/><rect class="cls-7" x="81.42" y="62.05" width="33.65" height="2.63"/><rect class="cls-7" x="81.42" y="104.16" width="33.65" height="2.63"/><rect class="cls-7" x="81.42" y="98.9" width="33.65" height="2.63"/><rect class="cls-7" x="81.42" y="93.63" width="33.65" height="2.63"/><rect class="cls-7" x="81.42" y="88.37" width="33.65" height="2.63"/><rect class="cls-7" x="81.42" y="83.11" width="33.65" height="2.63"/><rect class="cls-7" x="81.42" y="77.84" width="33.65" height="2.63"/><path class="cls-5" d="M56.89,58.46H54.32v-3a7.29,7.29,0,0,1,7.29-7.29h6v2.57h-6a4.71,4.71,0,0,0-4.71,4.71Z"/><polygon class="cls-5" points="52.61 58.46 55.61 61.46 58.61 58.46 52.61 58.46"/><path class="cls-5" d="M121.11,122.89h2.57v3a7.28,7.28,0,0,1-7.29,7.29h-6v-2.57h6a4.71,4.71,0,0,0,4.71-4.71Z"/><polygon class="cls-5" points="125.39 122.89 122.39 119.89 119.39 122.89 125.39 122.89"/></g></g></svg>