<svg xmlns="http://www.w3.org/2000/svg" viewBox="0 0 29 31.25"><defs><style>.cls-1{fill:#146da3;}</style></defs><title>InnerPage_Asset</title><g id="CONTENT"><path class="cls-1" d="M14.78,2.35A13.22,13.22,0,1,0,28,15.57,13.23,13.23,0,0,0,14.78,2.35Zm0,24.7A11.48,11.48,0,1,1,26.27,15.57,11.5,11.5,0,0,1,14.78,27.05Z"/><path class="cls-1" d="M14.54,10.67a1.16,1.16,0,1,0-1.16-1.16A1.16,1.16,0,0,0,14.54,10.67Z"/><path class="cls-1" d="M16.37,20.83h-.72V12.56a.87.87,0,0,0-.87-.87H13.19a.87.87,0,0,0,0,1.73h.73v7.4h-.73a.87.87,0,0,0,0,1.73h3.18a.87.87,0,1,0,0-1.73Z"/></g></svg>