<svg xmlns="http://www.w3.org/2000/svg" viewBox="0 0 42.5 48.5"><defs><style>.cls-1{fill:#959595;}</style></defs><title>InnerPage_Asset</title><g id="PREDEFINED"><path class="cls-1" d="M36.66,16.25l-.1-.05A12.81,12.81,0,0,0,23.81,2H8.51a.83.83,0,0,0-.82.71L2.35,40.78a.83.83,0,0,0,.82.94h8.54c-.35,2.29-.69,4-.69,4a.83.83,0,0,0,.81,1h8.54a.83.83,0,0,0,.82-.71L22.73,35.2H29.9A10.76,10.76,0,0,0,40.77,24.58,10.49,10.49,0,0,0,36.66,16.25ZM9.23,3.67H23.82a11.17,11.17,0,1,1,0,22.33H14.66a.83.83,0,0,0-.82.71L12,40.07H4.12ZM29.9,33.54H22a.83.83,0,0,0-.82.71L19.64,45H12.83c.16-.88.41-2.28.64-3.91,0,0,0,0,0,0a.68.68,0,0,0,0-.09l1.88-13.35h8.44A12.83,12.83,0,0,0,36.21,18a8.81,8.81,0,0,1,2.91,6.53A9.1,9.1,0,0,1,29.9,33.54Z"/></g></svg>