<svg xmlns="http://www.w3.org/2000/svg" viewBox="0 0 94.33 80.67"><defs><style>.cls-1{fill:#146da3;}</style></defs><title>InnerPage_Asset</title><g id="PREDEFINED"><path class="cls-1" d="M77.64,27.09A25.07,25.07,0,0,0,52.91,3.38,25.81,25.81,0,0,0,32.49,13.64l-.33-.15c-.29-.14-.58-.28-.89-.39l-.51-.19c-.3-.1-.59-.19-.9-.28l-.51-.13c-.33-.07-.66-.13-1-.18l-.45-.07a13.58,13.58,0,0,0-1.47-.09A13.19,13.19,0,0,0,13.26,25.34c0,.19,0,.37,0,.56A20.24,20.24,0,0,0,3,43.13,18.83,18.83,0,0,0,21.81,61.94h7.55a1.46,1.46,0,0,0,0-2.93H21.81A15.9,15.9,0,0,1,5.94,43.13a17.4,17.4,0,0,1,9.42-15l.83-.4V26.8c0-.18,0-.36,0-.55V26l0-.28c0-.13,0-.25,0-.38A10.18,10.18,0,0,1,27.78,15.19l.34.05a10.05,10.05,0,0,1,1.16.26l.15,0a10,10,0,0,1,1.23.47l.3.14a10,10,0,0,1,1,.58,10.24,10.24,0,0,1,4.7,8.6,1.46,1.46,0,0,0,2.93,0,13.15,13.15,0,0,0-4.68-10.06,23.19,23.19,0,0,1,18-9A22.1,22.1,0,0,1,74.65,26.64a27.88,27.88,0,0,0-6,.18,1.46,1.46,0,0,0,.22,2.91l.22,0a27,27,0,0,1,6.86,0,15,15,0,0,1,12,14.62A14.7,14.7,0,0,1,73.24,59H67.43a1.46,1.46,0,0,0,0,2.93h5.82A17.63,17.63,0,0,0,90.85,44.33,18,18,0,0,0,77.64,27.09Z"/><path class="cls-1" d="M49.43,41.88a1.45,1.45,0,0,0-.48-.32,1.47,1.47,0,0,0-1.6.32L35.65,53.59a1.46,1.46,0,1,0,2.07,2.07l9.21-9.21V76.58a1.46,1.46,0,1,0,2.93,0V46.44l9.21,9.21a1.46,1.46,0,0,0,2.07-2.07Z"/></g></svg>