<svg xmlns="http://www.w3.org/2000/svg" viewBox="0 0 21.25 21.49"><defs><style>.cls-1{opacity:0.99;}.cls-2{fill:#146da3;stroke:#146da3;stroke-miterlimit:10;stroke-width:0.25px;}</style></defs><title>InnerPage_Asset</title><g id="PREDEFINED"><g class="cls-1"><path class="cls-2" d="M19.42,8.56H17.6a.7.7,0,0,1-.5-1.2l1.29-1.29a1,1,0,0,0,0-1.42L16.75,3a1,1,0,0,0-1.42,0L14,4.3a.7.7,0,0,1-1.2-.5V2a1,1,0,0,0-1-1H9.51a1,1,0,0,0-1,1V3.81a.7.7,0,0,1-1.2.5L6,3A1,1,0,0,0,4.61,3L3,4.66A1,1,0,0,0,3,6.08L4.25,7.37a.7.7,0,0,1-.5,1.2H1.93a1,1,0,0,0-1,1v2.33a1,1,0,0,0,1,1H3.76a.7.7,0,0,1,.5,1.2L3,15.38A1,1,0,0,0,3,16.8l1.64,1.64a1,1,0,0,0,1.42,0l1.29-1.29a.7.7,0,0,1,1.2.5v1.82a1,1,0,0,0,1,1h2.33a1,1,0,0,0,1-1V17.65a.7.7,0,0,1,1.2-.5l1.29,1.29a1,1,0,0,0,1.42,0l1.64-1.64a1,1,0,0,0,0-1.42L17.1,14.09a.7.7,0,0,1,.5-1.2h1.82a1,1,0,0,0,1-1V9.57A1,1,0,0,0,19.42,8.56Zm.28,3.33a.28.28,0,0,1-.28.28H17.6a1.42,1.42,0,0,0-1,2.43l1.29,1.29a.28.28,0,0,1,0,.4l-1.64,1.64a.28.28,0,0,1-.4,0l-1.29-1.29a1.42,1.42,0,0,0-2.43,1v1.82a.28.28,0,0,1-.28.28H9.51a.28.28,0,0,1-.28-.28V17.65a1.4,1.4,0,0,0-.88-1.31,1.44,1.44,0,0,0-.55-.11,1.4,1.4,0,0,0-1,.42L5.51,17.94a.28.28,0,0,1-.4,0L3.47,16.29a.28.28,0,0,1,0-.4L4.76,14.6a1.42,1.42,0,0,0-1-2.43H1.93a.28.28,0,0,1-.28-.28V9.57a.28.28,0,0,1,.28-.28H3.76a1.42,1.42,0,0,0,1-2.43L3.47,5.57a.28.28,0,0,1,0-.4L5.12,3.52a.28.28,0,0,1,.4,0L6.8,4.81a1.42,1.42,0,0,0,2.43-1V2a.28.28,0,0,1,.28-.28h2.33a.28.28,0,0,1,.28.28V3.81a1.42,1.42,0,0,0,2.43,1l1.29-1.29a.28.28,0,0,1,.4,0l1.64,1.64a.28.28,0,0,1,0,.4L16.59,6.86a1.42,1.42,0,0,0,1,2.43h1.82a.28.28,0,0,1,.28.28Z"/><path class="cls-2" d="M10.68,7.48a3.25,3.25,0,1,0,3.25,3.25A3.25,3.25,0,0,0,10.68,7.48Zm0,5.78a2.53,2.53,0,1,1,2.53-2.53A2.53,2.53,0,0,1,10.68,13.26Z"/></g></g></svg>