<svg xmlns="http://www.w3.org/2000/svg" viewBox="0 0 29 35"><defs><style>.cls-1{fill:#e9e9e0;}.cls-2{fill:#d9d7ca;}.cls-3{fill:#cc4b4c;}.cls-4{fill:#fff;}</style></defs><title>InnerPage_Asset</title><g id="CONTENT"><path class="cls-1" d="M19.45,2.82H4.16c-.43,0-.77.35-.77,1v28a.79.79,0,0,0,.77.53H25.28A.79.79,0,0,0,26,31.8V9.66c0-.37,0-.48-.14-.57L19.78,3A.47.47,0,0,0,19.45,2.82Z"/><polygon class="cls-2" points="19.72 2.9 19.72 9.15 25.97 9.15 19.72 2.9"/><path class="cls-3" d="M10.25,20.38h0a.85.85,0,0,1-.51-.17A1.26,1.26,0,0,1,9.15,19c.1-.86,1.16-1.76,3.15-2.67a35.36,35.36,0,0,0,2-5.66c-.53-1.14-1-2.63-.66-3.5a1,1,0,0,1,.6-.64,2.59,2.59,0,0,1,.54-.09c.27,0,.5.34.66.55s.51.62-.2,3.58a16.83,16.83,0,0,0,2.68,4,10.25,10.25,0,0,1,1.77-.19c.82,0,1.32.19,1.53.59A1.07,1.07,0,0,1,21,16.12a1.4,1.4,0,0,1-1.17.63,3.5,3.5,0,0,1-2.22-1.2A25.24,25.24,0,0,0,13,17a15,15,0,0,1-1.26,2.24C11.18,20,10.71,20.38,10.25,20.38Zm1.4-2.7c-1.13.63-1.58,1.15-1.62,1.45,0,0,0,.18.23.36C10.34,19.47,10.8,19.26,11.65,17.68Zm7.18-2.34c.43.33.53.5.81.5a.79.79,0,0,0,.64-.23.83.83,0,0,0,.12-.22c-.06,0-.15-.1-.62-.1A7.7,7.7,0,0,0,18.84,15.34ZM14.9,11.87a37.56,37.56,0,0,1-1.41,4,26.32,26.32,0,0,1,3.42-1.06A18,18,0,0,1,14.9,11.87Zm-.32-4.46a1.26,1.26,0,0,0,.05,1.69C15.13,8,14.6,7.41,14.58,7.41Z"/><path class="cls-3" d="M25.28,32.33H4.16a.77.77,0,0,1-.77-.77V23.37H26v8.19A.77.77,0,0,1,25.28,32.33Z"/><path class="cls-4" d="M9.13,30.75H8.26V25.44H9.79a2.14,2.14,0,0,1,.67.11,1.82,1.82,0,0,1,.59.32,1.69,1.69,0,0,1,.43.52,1.45,1.45,0,0,1,.16.69,1.88,1.88,0,0,1-.14.73,1.53,1.53,0,0,1-.38.55,1.72,1.72,0,0,1-.59.35,2.27,2.27,0,0,1-.76.12H9.13v1.92Zm0-4.65v2.1h.79a.94.94,0,0,0,.31-.05.79.79,0,0,0,.28-.18.86.86,0,0,0,.21-.34,1.62,1.62,0,0,0,.08-.54,1.47,1.47,0,0,0,0-.3.86.86,0,0,0-.15-.32.87.87,0,0,0-.31-.26,1.16,1.16,0,0,0-.53-.1H9.13Z"/><path class="cls-4" d="M16.94,27.94a3.9,3.9,0,0,1-.14,1.12,2.78,2.78,0,0,1-.36.78,1.83,1.83,0,0,1-.49.49,2.44,2.44,0,0,1-.52.27,2.16,2.16,0,0,1-.46.12l-.31,0h-2V25.44h1.6a3,3,0,0,1,1.18.21,2.44,2.44,0,0,1,.84.57,2.32,2.32,0,0,1,.5.8A2.66,2.66,0,0,1,16.94,27.94Zm-2.56,2.17a1.43,1.43,0,0,0,1.27-.56A2.85,2.85,0,0,0,16,27.92a2.76,2.76,0,0,0-.08-.66,1.4,1.4,0,0,0-.31-.59,1.62,1.62,0,0,0-.62-.43,2.65,2.65,0,0,0-1-.16h-.5v4Z"/><path class="cls-4" d="M19.07,26.09v1.67h2.22v.59H19.07v2.39H18.2V25.44h3.32v.66Z"/></g></svg>