<svg xmlns="http://www.w3.org/2000/svg" viewBox="0 0 21.25 21.49"><defs><style>.cls-1{fill:#146da3;}</style></defs><title>InnerPage_Asset</title><g id="PREDEFINED"><g id="Sign_Out" data-name="Sign Out"><path class="cls-1" d="M10.45,18.47H3.34V3.16h7.11a.55.55,0,0,0,0-1.09H2.8a.55.55,0,0,0-.55.55V19a.55.55,0,0,0,.55.55h7.65a.55.55,0,0,0,0-1.09Z"/><path class="cls-1" d="M19.59,10.43,15.81,6.61a.54.54,0,0,0-.77,0,.56.56,0,0,0,0,.78l2.84,2.88H6.63a.55.55,0,0,0,0,1.1H17.88L15,14.26A.56.56,0,0,0,15,15a.54.54,0,0,0,.77,0l3.77-3.83A.56.56,0,0,0,19.59,10.43Z"/></g></g></svg>