<svg xmlns="http://www.w3.org/2000/svg" viewBox="0 0 52.17 42.5"><defs><style>.cls-1{fill:#959595;}</style></defs><title>InnerPage_Asset</title><g id="PREDEFINED"><path class="cls-1" d="M49.14,3.39a3.28,3.28,0,0,0-2.43-1H5.9a3.28,3.28,0,0,0-2.43,1,3.28,3.28,0,0,0-1,2.43v31a3.28,3.28,0,0,0,1,2.43,3.28,3.28,0,0,0,2.43,1H46.71a3.45,3.45,0,0,0,3.44-3.44v-31A3.28,3.28,0,0,0,49.14,3.39Zm-1,33.44a1.47,1.47,0,0,1-1.46,1.46H5.9a1.47,1.47,0,0,1-1.46-1.46V20.68H48.18Zm0-24.66H4.44V5.81A1.47,1.47,0,0,1,5.9,4.35H46.71a1.47,1.47,0,0,1,1.46,1.46Z"/><rect class="cls-1" x="8.99" y="31.77" width="5.24" height="1.97"/><rect class="cls-1" x="18.79" y="31.77" width="8.5" height="1.97"/></g></svg>