<svg xmlns="http://www.w3.org/2000/svg" viewBox="0 0 21.25 21.49"><defs><style>.cls-1{fill:#146da3;stroke:#146da3;stroke-miterlimit:10;stroke-width:0.25px;opacity:0.99;}</style></defs><title>InnerPage_Asset</title><g id="PREDEFINED"><path class="cls-1" d="M20.35,10.65A9.78,9.78,0,1,0,4,17.85H4l.32.27.06,0c.17.14.34.27.52.4L5,18.7l.58.37.13.08c.22.12.44.24.67.35l.05,0a9.69,9.69,0,0,0,2.36.75H8.9c.26,0,.52.08.78.1h.1c.26,0,.53,0,.8,0s.53,0,.79,0h.1q.39,0,.77-.1h.07a9.69,9.69,0,0,0,2.33-.73l.08,0q.33-.15.64-.33l.16-.09.56-.36.2-.14.46-.35.1-.08.33-.27h0A9.75,9.75,0,0,0,20.35,10.65Zm-18.84,0a9.07,9.07,0,1,1,15.08,6.78,2.66,2.66,0,0,0-.32-.19l-3-1.5a.79.79,0,0,1-.44-.71V14l.22-.29A7.24,7.24,0,0,0,14,11.86a1.29,1.29,0,0,0,.74-1.17V9.43a1.29,1.29,0,0,0-.32-.84V6.93a2.87,2.87,0,0,0-.67-2.08,4,4,0,0,0-3.15-1.13A4,4,0,0,0,7.42,4.84a2.87,2.87,0,0,0-.67,2.08V8.58a1.3,1.3,0,0,0-.32.84v1.26a1.29,1.29,0,0,0,.48,1A6.68,6.68,0,0,0,8,14v1a.79.79,0,0,1-.41.7L4.79,17.22l-.27.17A9,9,0,0,1,1.51,10.65ZM15.89,18l-.38.26-.18.11-.51.3-.12.06a9.06,9.06,0,0,1-1.24.52l0,0-.68.2h0l-.7.14h0l-.67.08h-.12l-.67,0-.67,0H9.78l-.67-.08h0a9,9,0,0,1-1.38-.35h0L7,19H7l-.61-.29-.08,0-.53-.31-.15-.1-.48-.33,0,0,0,0,2.81-1.53A1.5,1.5,0,0,0,8.72,15V13.71l-.08-.1A5.94,5.94,0,0,1,7.57,11.4l0-.14-.12-.08a.59.59,0,0,1-.27-.49V9.43A.58.58,0,0,1,7.34,9l.12-.11v-2A2.14,2.14,0,0,1,8,5.31a3.35,3.35,0,0,1,2.62-.88,3.36,3.36,0,0,1,2.61.88,2.18,2.18,0,0,1,.5,1.56v2L13.8,9a.58.58,0,0,1,.2.43v1.26a.59.59,0,0,1-.42.56l-.18.05-.06.18a6.58,6.58,0,0,1-.89,1.79c-.09.13-.18.25-.26.34l-.09.1V15a1.49,1.49,0,0,0,.83,1.34l3,1.5.06,0Z"/></g></svg>