<svg xmlns="http://www.w3.org/2000/svg" viewBox="0 0 29 35"><defs><style>.cls-1{fill:#e9e9e0;}.cls-2{fill:#d9d7ca;}.cls-3{fill:#f3d55b;}.cls-4{fill:#26b99a;}.cls-5{fill:#14a085;}.cls-6{fill:#fff;}</style></defs><title>InnerPage_Asset</title><g id="CONTENT"><path class="cls-1" d="M19.55,3.21H4.41c-.42,0-.76.34-.76,1V31.91a.79.79,0,0,0,.76.52H25.32a.79.79,0,0,0,.76-.52V10c0-.36,0-.48-.13-.57L19.87,3.35A.46.46,0,0,0,19.55,3.21Z"/><polygon class="cls-2" points="19.82 3.29 19.82 9.47 26 9.47 19.82 3.29"/><circle class="cls-3" cx="10.13" cy="10.74" r="2.38"/><polygon class="cls-4" points="3.64 23.56 9.38 23.56 26.08 23.56 26.08 17.82 20.86 12.87 15.38 18.87 12.52 16 3.64 23.56"/><path class="cls-5" d="M25.32,32.43H4.41a.76.76,0,0,1-.76-.76V23.56H26.08v8.11A.76.76,0,0,1,25.32,32.43Z"/><path class="cls-6" d="M11.43,25.47v4.1a1.31,1.31,0,0,1-.14.62,1.12,1.12,0,0,1-.36.41,1.45,1.45,0,0,1-.52.21,3,3,0,0,1-.61.06l-.37,0a3.12,3.12,0,0,1-.44-.1l-.43-.15a1.58,1.58,0,0,1-.35-.19l.36-.58.2.1.29.1.33.08a1.56,1.56,0,0,0,.32,0,1.1,1.1,0,0,0,.6-.15.58.58,0,0,0,.24-.5v-4Z"/><path class="cls-6" d="M13.56,30.83h-.86V25.57h1.51a2.12,2.12,0,0,1,.66.11,1.8,1.8,0,0,1,.59.32,1.68,1.68,0,0,1,.42.52,1.43,1.43,0,0,1,.16.68,1.86,1.86,0,0,1-.14.72,1.51,1.51,0,0,1-.38.55,1.7,1.7,0,0,1-.58.34,2.25,2.25,0,0,1-.76.12h-.64v1.9Zm0-4.61v2.08h.78a.93.93,0,0,0,.31-.05.78.78,0,0,0,.28-.17.85.85,0,0,0,.21-.34,1.6,1.6,0,0,0,.08-.54,1.46,1.46,0,0,0,0-.3.85.85,0,0,0-.15-.32.86.86,0,0,0-.31-.26,1.15,1.15,0,0,0-.53-.1Z"/><path class="cls-6" d="M20.86,28.12v2a1.54,1.54,0,0,1-.37.34,2.25,2.25,0,0,1-.43.22,2.21,2.21,0,0,1-.46.12,3,3,0,0,1-.47,0,2.16,2.16,0,0,1-.87-.17,1.94,1.94,0,0,1-.69-.51,2.39,2.39,0,0,1-.46-.84,4.16,4.16,0,0,1,0-2.34,2.38,2.38,0,0,1,.46-.84,2,2,0,0,1,.7-.51,2.12,2.12,0,0,1,.86-.17,2.21,2.21,0,0,1,.8.14,2,2,0,0,1,.66.43l-.59.53a1,1,0,0,0-.39-.3,1.17,1.17,0,0,0-.46-.09,1.29,1.29,0,0,0-.5.1,1.08,1.08,0,0,0-.43.34,1.74,1.74,0,0,0-.3.62,3.64,3.64,0,0,0-.11.93,3.87,3.87,0,0,0,.11.93,1.9,1.9,0,0,0,.29.64,1.22,1.22,0,0,0,.41.37,1,1,0,0,0,.49.12h.21l.26,0,.25-.07A.36.36,0,0,0,20,30V28.7h-.89v-.58h1.74Z"/></g></svg>