<svg xmlns="http://www.w3.org/2000/svg" viewBox="0 0 29 35"><defs><style>.cls-1{fill:#e9e9e0;}.cls-2{fill:#d9d7ca;}.cls-3{fill:#8697cb;}.cls-4{fill:#0096e6;}.cls-5{fill:#fff;}</style></defs><title>InnerPage_Asset</title><g id="CONTENT"><path class="cls-1" d="M19.39,3.46H4.21c-.42,0-.77.34-.77,1V32.23a.79.79,0,0,0,.77.52h21a.79.79,0,0,0,.77-.52v-22c0-.36,0-.48-.13-.57L19.72,3.6A.46.46,0,0,0,19.39,3.46Z"/><polygon class="cls-2" points="19.66 3.54 19.66 9.74 25.86 9.74 19.66 3.54"/><path class="cls-3" d="M11.45,12.88a.52.52,0,1,1,.37-.15A.55.55,0,0,1,11.45,12.88Z"/><path class="cls-3" d="M16,18.11H10.77a.52.52,0,0,1,0-1H16a.52.52,0,0,1,0,1Z"/><path class="cls-3" d="M12.86,19.68H6.74l-.09,0a.53.53,0,0,0-.44.13.52.52,0,0,0,.37.89l.08,0,.08,0h6.12a.52.52,0,0,0,0-1Z"/><path class="cls-3" d="M6.59,10.26H9.72a.52.52,0,1,0,0-1H6.59a.52.52,0,0,0,0,1Z"/><path class="cls-3" d="M22.8,11.83h-1l-.09,0-.09,0h-10l-.14,0-.14,0H6.59a.52.52,0,1,0,0,1h4.71l.14,0,.14,0h10l.09,0,.09,0h1a.52.52,0,1,0,0-1Z"/><path class="cls-3" d="M22.8,14.45H6.59a.52.52,0,0,0,0,1H22.8a.52.52,0,0,0,0-1Z"/><path class="cls-3" d="M22.8,17.06H14.9a.52.52,0,0,0,0,1H22.8a.52.52,0,1,0,0-1Z"/><path class="cls-3" d="M12.64,17.06H6.59a.52.52,0,0,0,0,1h6.05a.52.52,0,1,0,0-1Z"/><path class="cls-4" d="M25.17,32.75h-21A.77.77,0,0,1,3.45,32V23.86H25.93V32A.77.77,0,0,1,25.17,32.75Z"/><path class="cls-5" d="M12.34,28.4a3.87,3.87,0,0,1-.14,1.11,2.76,2.76,0,0,1-.35.77,1.82,1.82,0,0,1-.48.49,2.42,2.42,0,0,1-.52.27,2.14,2.14,0,0,1-.46.11l-.31,0h-2V25.91H9.67a3,3,0,0,1,1.17.21,2.43,2.43,0,0,1,.84.56,2.3,2.3,0,0,1,.5.8A2.64,2.64,0,0,1,12.34,28.4ZM9.79,30.55A1.42,1.42,0,0,0,11.05,30a2.83,2.83,0,0,0,.39-1.62,2.74,2.74,0,0,0-.08-.65,1.39,1.39,0,0,0-.3-.58,1.6,1.6,0,0,0-.61-.42,2.63,2.63,0,0,0-1-.16h-.5v4Z"/><path class="cls-5" d="M17.55,28.52a3.73,3.73,0,0,1-.17,1.17,2.39,2.39,0,0,1-.46.84,2,2,0,0,1-.69.51,2.29,2.29,0,0,1-1.74,0,2,2,0,0,1-.69-.51,2.4,2.4,0,0,1-.46-.84,4.17,4.17,0,0,1,0-2.34,2.38,2.38,0,0,1,.46-.84,2,2,0,0,1,.69-.51,2.24,2.24,0,0,1,1.74,0,2,2,0,0,1,.69.51,2.41,2.41,0,0,1,.46.84A3.71,3.71,0,0,1,17.55,28.52Zm-2.22,2a1.26,1.26,0,0,0,.5-.1,1.13,1.13,0,0,0,.43-.34,1.72,1.72,0,0,0,.3-.62,3.72,3.72,0,0,0,.11-.93,3.65,3.65,0,0,0-.11-.91,1.83,1.83,0,0,0-.29-.62,1.1,1.1,0,0,0-.41-.35,1.15,1.15,0,0,0-.49-.11,1.29,1.29,0,0,0-.5.1,1.08,1.08,0,0,0-.43.34,1.75,1.75,0,0,0-.3.62,3.65,3.65,0,0,0-.11.93,3.69,3.69,0,0,0,.11.92,1.79,1.79,0,0,0,.29.62,1.15,1.15,0,0,0,.41.35A1.13,1.13,0,0,0,15.34,30.52Z"/><path class="cls-5" d="M22.33,30.64a2,2,0,0,1-.66.43,2.2,2.2,0,0,1-.8.14A2.16,2.16,0,0,1,20,31a2,2,0,0,1-.69-.51,2.4,2.4,0,0,1-.46-.84,4.17,4.17,0,0,1,0-2.34,2.38,2.38,0,0,1,.46-.84A2,2,0,0,1,20,26a2.13,2.13,0,0,1,.86-.18,2.21,2.21,0,0,1,.8.14,2,2,0,0,1,.66.43l-.59.53a1.08,1.08,0,0,0-.4-.3,1.15,1.15,0,0,0-.45-.09,1.29,1.29,0,0,0-.5.1A1.08,1.08,0,0,0,20,27a1.75,1.75,0,0,0-.3.62,3.65,3.65,0,0,0-.11.93,3.69,3.69,0,0,0,.11.92,1.79,1.79,0,0,0,.29.62,1.15,1.15,0,0,0,.41.35,1.12,1.12,0,0,0,.49.11,1.26,1.26,0,0,0,.48-.09,1.13,1.13,0,0,0,.41-.3Z"/></g></svg>