<?xml version="1.0" encoding="UTF-8" standalone="no"?>
<svg
   xmlns:dc="http://purl.org/dc/elements/1.1/"
   xmlns:cc="http://creativecommons.org/ns#"
   xmlns:rdf="http://www.w3.org/1999/02/22-rdf-syntax-ns#"
   xmlns:svg="http://www.w3.org/2000/svg"
   xmlns="http://www.w3.org/2000/svg"
   viewBox="0 0 74.666664 85.333336"
   height="85.333336"
   width="74.666664"
   xml:space="preserve"
   id="svg2"
   version="1.1"><metadata
     id="metadata8"><rdf:RDF><cc:Work
         rdf:about=""><dc:format>image/svg+xml</dc:format><dc:type
           rdf:resource="http://purl.org/dc/dcmitype/StillImage" /></cc:Work></rdf:RDF></metadata><defs
     id="defs6" /><g
     transform="matrix(1.3333333,0,0,-1.3333333,0,85.333333)"
     id="g10"><g
       transform="scale(0.1)"
       id="g12"><path
         id="path14"
         style="fill:#f1511b;fill-opacity:1;fill-rule:nonzero;stroke:none"
         d="M 382.578,74.8945 454.895,2.57813 557.422,105.105 485.105,177.422 382.578,74.8945" /><path
         id="path16"
         style="fill:#ffffff;fill-opacity:1;fill-rule:nonzero;stroke:none"
         d="M 160,100 H 550 V 570 H 160 V 100" /><path
         id="path18"
         style="fill:#ffffff;fill-opacity:1;fill-rule:nonzero;stroke:none"
         d="M 160,15 H 460 V 160 H 160 V 15" /><path
         id="path20"
         style="fill:#532e90;fill-opacity:1;fill-rule:nonzero;stroke:none"
         d="M 277.078,262.914 H 240 V 300 h 37.078 v -37.086" /><path
         id="path22"
         style="fill:#f1511b;fill-opacity:1;fill-rule:nonzero;stroke:none"
         d="M 277.078,181.461 H 240 v 37.078 h 37.078 v -37.078" /><path
         id="path24"
         style="fill:#66c430;fill-opacity:1;fill-rule:nonzero;stroke:none"
         d="M 277.078,100 H 240 v 37.078 h 37.078 V 100" /><path
         id="path26"
         style="fill:#146da3;fill-opacity:1;fill-rule:nonzero;stroke:none"
         d="M 312.813,464.164 290,405.836 252.188,364.855 490,359.164 v 99.172 l -177.187,5.828" /><path
         id="path28"
         style="fill:#532e90;fill-opacity:1;fill-rule:nonzero;stroke:none"
         d="M 200,332.5 H 116.121 V 150 H 200 v 182.5" /><path
         id="path30"
         style="fill:#66c430;fill-opacity:1;fill-rule:nonzero;stroke:none"
         d="M 307.5,480 C 307.5,398.539 241.465,332.5 160,332.5 78.5391,332.5 12.5,398.539 12.5,480 c 0,81.461 66.0391,147.5 147.5,147.5 81.465,0 147.5,-66.039 147.5,-147.5" /><path
         id="path32"
         style="fill:#532e90;fill-opacity:1;fill-rule:nonzero;stroke:none"
         d="m 205,140 c 0,-24.855 -20.145,-45 -45,-45 -24.855,0 -45,20.145 -45,45 0,24.855 20.145,45 45,45 24.855,0 45,-20.145 45,-45" /><path
         id="path34"
         style="fill:#142339;fill-opacity:1;fill-rule:nonzero;stroke:none"
         d="M 160,620 C 82.8008,620 20,557.199 20,480 20,402.805 82.8008,340 160,340 c 77.195,0 140,62.805 140,140 0,77.199 -62.805,140 -140,140 z m 0,-300 C 71.7773,320 0,391.777 0,480 c 0,88.223 71.7773,160 160,160 88.223,0 160,-71.777 160,-160 0,-88.223 -71.777,-160 -160,-160" /><path
         id="path36"
         style="fill:#142339;fill-opacity:1;fill-rule:nonzero;stroke:none"
         d="m 160,80 c -27.566,0 -50,22.434 -50,50 v 200 h 20 V 130 c 0,-16.543 13.457,-30 30,-30 16.543,0 30,13.457 30,30 v 200 h 20 V 130 c 0,-27.566 -22.434,-50 -50,-50" /><path
         id="path38"
         style="fill:#ffffff;fill-opacity:1;fill-rule:nonzero;stroke:none"
         d="m 170,220 h -20 v 20 h 20 v -20" /><path
         id="path40"
         style="fill:#ffffff;fill-opacity:1;fill-rule:nonzero;stroke:none"
         d="m 170,180 h -20 v 20 h 20 v -20" /><path
         id="path42"
         style="fill:#ffffff;fill-opacity:1;fill-rule:nonzero;stroke:none"
         d="m 170,140 h -20 v 20 h 20 v -20" /><path
         id="path44"
         style="fill:#142339;fill-opacity:1;fill-rule:nonzero;stroke:none"
         d="M 464.141,0 H 150 v 83.4375 h 20 V 20 H 455.859 L 540,104.141 V 560 H 282.188 v 20 H 560 V 95.8594 L 464.141,0" /><path
         id="path46"
         style="fill:#142339;fill-opacity:1;fill-rule:nonzero;stroke:none"
         d="M 470,10 H 450 V 110 H 550 V 90 H 470 V 10" /><path
         id="path48"
         style="fill:#ffffff;fill-opacity:1;fill-rule:nonzero;stroke:none"
         d="M 240,400 H 80 V 560 H 200 V 540 H 100 V 420 h 120 v 60 h 20 v -80" /><path
         id="path50"
         style="fill:#ffffff;fill-opacity:1;fill-rule:nonzero;stroke:none"
         d="M 160,445.859 122.93,482.93 137.07,497.07 160,474.141 222.93,537.07 237.07,522.93 160,445.859" /><path
         id="path52"
         style="fill:#142339;fill-opacity:1;fill-rule:nonzero;stroke:none"
         d="m 250,270 h 20 v 20 h -20 z m 40,-20 h -60 v 60 h 60 v -60" /><path
         id="path54"
         style="fill:#142339;fill-opacity:1;fill-rule:nonzero;stroke:none"
         d="m 250,190 h 20 v 20 h -20 z m 40,-20 h -60 v 60 h 60 v -60" /><path
         id="path56"
         style="fill:#142339;fill-opacity:1;fill-rule:nonzero;stroke:none"
         d="m 250,110 h 20 v 20 h -20 z m 40,-20 h -60 v 60 h 60 V 90" /><path
         id="path58"
         style="fill:#142339;fill-opacity:1;fill-rule:nonzero;stroke:none"
         d="M 500,290 H 310 v 20 h 190 v -20" /><path
         id="path60"
         style="fill:#142339;fill-opacity:1;fill-rule:nonzero;stroke:none"
         d="M 500,250 H 310 v 20 h 190 v -20" /><path
         id="path62"
         style="fill:#142339;fill-opacity:1;fill-rule:nonzero;stroke:none"
         d="M 500,210 H 310 v 20 h 190 v -20" /><path
         id="path64"
         style="fill:#142339;fill-opacity:1;fill-rule:nonzero;stroke:none"
         d="M 500,170 H 310 v 20 h 190 v -20" /><path
         id="path66"
         style="fill:#142339;fill-opacity:1;fill-rule:nonzero;stroke:none"
         d="M 410,90 H 310 v 20 H 410 V 90" /><path
         id="path68"
         style="fill:#142339;fill-opacity:1;fill-rule:nonzero;stroke:none"
         d="M 500,130 H 310 v 20 h 190 v -20" /><path
         id="path70"
         style="fill:#142339;fill-opacity:1;fill-rule:nonzero;stroke:none"
         d="M 500,350 H 252.188 v 20 H 480 v 80 H 312.813 v 20 H 500 V 350" /><path
         id="path72"
         style="fill:#142339;fill-opacity:1;fill-rule:nonzero;stroke:none"
         d="m 500,490 h -20 v 20 h 20 v -20" /><path
         id="path74"
         style="fill:#142339;fill-opacity:1;fill-rule:nonzero;stroke:none"
         d="m 460,490 h -20 v 20 h 20 v -20" /><path
         id="path76"
         style="fill:#142339;fill-opacity:1;fill-rule:nonzero;stroke:none"
         d="m 420,490 h -20 v 20 h 20 v -20" /></g></g></svg>