<?xml version="1.0" encoding="UTF-8" standalone="no"?>
<svg
   xmlns:dc="http://purl.org/dc/elements/1.1/"
   xmlns:cc="http://creativecommons.org/ns#"
   xmlns:rdf="http://www.w3.org/1999/02/22-rdf-syntax-ns#"
   xmlns:svg="http://www.w3.org/2000/svg"
   xmlns="http://www.w3.org/2000/svg"
   viewBox="0 0 167.94667 184.22667"
   height="184.22667"
   width="167.94667"
   xml:space="preserve"
   id="svg2"
   version="1.1"><metadata
     id="metadata8"><rdf:RDF><cc:Work
         rdf:about=""><dc:format>image/svg+xml</dc:format><dc:type
           rdf:resource="http://purl.org/dc/dcmitype/StillImage" /></cc:Work></rdf:RDF></metadata><defs
     id="defs6" /><g
     transform="matrix(1.3333333,0,0,-1.3333333,0,184.22667)"
     id="g10"><g
       transform="scale(0.1)"
       id="g12"><path
         id="path14"
         style="fill:#ffffff;fill-opacity:1;fill-rule:nonzero;stroke:none"
         d="m 500.363,373.898 129.45,-221.668 43.878,43.329 86.672,178.339 -41.672,10 -38.328,-10 -50.547,6.661 -41.117,-6.661 -52.086,10 -36.25,-10" /><path
         id="path16"
         style="fill:#66c430;fill-opacity:1;fill-rule:nonzero;stroke:none"
         d="m 760.363,1123.89 h -260 v 51.68 h 260 v -51.68" /><path
         id="path18"
         style="fill:#146da3;fill-opacity:1;fill-rule:nonzero;stroke:none"
         d="m 760.363,1175.57 h -260 v 51.66 h 260 v -51.66" /><path
         id="path20"
         style="fill:#f1511b;fill-opacity:1;fill-rule:nonzero;stroke:none"
         d="m 500.363,373.898 48.336,13.332 40,-13.332 41.117,6.661 50.547,-6.661 46.668,13.332 40,-13.332 V 1123.89 H 500.363 V 373.898" /><path
         id="path22"
         style="fill:#532e90;fill-opacity:1;fill-rule:nonzero;stroke:none"
         d="m 512.473,1220.57 42.539,2.45 35.199,-2.45 36.187,1.22 44.481,-1.22 41.074,2.45 35.195,-2.45 v 138.32 H 512.473 v -138.32" /><path
         id="path24"
         style="fill:#142339;fill-opacity:1;fill-rule:nonzero;stroke:none"
         d="m 527.438,1336.6 c 9.71,9.71 22.628,15.06 36.363,15.06 h 132.031 c 13.731,0 26.641,-5.35 36.356,-15.06 9.707,-9.72 15.058,-22.63 15.05,-36.37 l -0.011,-57.55 H 512.402 l -0.011,57.56 c -0.008,13.73 5.336,26.64 15.047,36.36 z m 43.23,-228.03 -0.09,-715.949 c -9.469,4.043 -19.586,6.406 -29.879,6.406 -9.492,0 -19.105,-1.777 -28.07,-5.058 l -0.188,714.601 z m 176.531,51.78 v -21.78 H 512.434 l -0.004,21.78 z m 0.008,30 H 512.418 l -0.004,22.33 h 234.805 z m -58.152,-799.155 -0.09,717.375 h 58.223 l -0.196,-713.851 c -18.582,6.66 -39.773,5.109 -57.937,-3.524 z m -88.387,717.375 h 58.297 l 0.09,-715.179 c -18.801,7.05 -40.004,6.601 -58.477,-1.328 z M 598.66,209.09 512.766,360.762 c 7.992,5.179 18.183,8.269 27.933,8.269 10.684,0 21.262,-3.84 29.77,-10.793 8.691,-7.097 22.492,-7.136 31.203,0 17.031,13.891 42.527,13.91 59.551,0 4.355,-3.558 9.89,-5.519 15.605,-5.519 5.711,0 11.25,1.961 15.594,5.519 15.558,12.703 37.695,14.332 54.445,3.184 L 660.84,209.09 Z m 585.46,-94.059 H 642.18 l 51.863,91.84 1.641,2.219 h -0.391 l 81.691,144.648 v 4.403 l 0.254,942.089 c 0.008,21.75 -8.457,42.19 -23.84,57.57 -15.371,15.39 -35.82,23.86 -57.566,23.86 H 563.801 c -21.754,0 -42.203,-8.47 -57.578,-23.86 -15.375,-15.38 -23.844,-35.83 -23.832,-57.57 l 0.246,-942.089 V 353.07 L 617.449,115.031 H 75.5039 V 85.0313 H 1184.12 v 29.9997" /><path
         id="path26"
         style="fill:#142339;fill-opacity:1;fill-rule:nonzero;stroke:none"
         d="M 860.664,0 V 30 H 438.797 V 0 h 421.867" /><path
         id="path28"
         style="fill:#146da3;fill-opacity:1;fill-rule:nonzero;stroke:none"
         d="m 974.395,293.34 c 2.863,-4.508 7.726,-6.981 12.695,-6.981 2.746,0 5.519,0.75 8.008,2.332 l 157.252,99.524 c 7.01,4.433 9.09,13.703 4.66,20.695 -4.44,7 -13.69,9.082 -20.7,4.656 L 979.055,314.039 c -7.004,-4.437 -9.082,-13.699 -4.66,-20.699" /><path
         id="path30"
         style="fill:#66c430;fill-opacity:1;fill-rule:nonzero;stroke:none"
         d="m 1056.73,596.508 c -6.9,4.617 -16.21,2.734 -20.8,-4.16 L 940,448.461 c -4.598,-6.895 -2.734,-16.203 4.16,-20.801 2.559,-1.711 5.449,-2.519 8.301,-2.519 4.855,0 9.609,2.343 12.5,6.679 l 95.929,143.887 c 4.59,6.895 2.73,16.199 -4.16,20.801" /><path
         id="path32"
         style="fill:#f1511b;fill-opacity:1;fill-rule:nonzero;stroke:none"
         d="m 1099.44,230.891 c 1.96,-6.5 7.91,-10.692 14.37,-10.692 1.43,0 2.87,0.199 4.32,0.633 l 130.81,39.25 c 7.93,2.379 12.43,10.738 10.05,18.668 -2.38,7.941 -10.73,12.449 -18.68,10.059 l -130.81,-39.25 c -7.94,-2.379 -12.44,-10.739 -10.06,-18.668" /><path
         id="path34"
         style="fill:#532e90;fill-opacity:1;fill-rule:nonzero;stroke:none"
         d="m 895.801,590.836 c 6.73,0 12.844,4.547 14.543,11.355 l 26.16,104.645 c 2.012,8.035 -2.871,16.18 -10.906,18.191 -8.078,2.024 -16.184,-2.879 -18.196,-10.906 l -26.16,-104.644 c -2.012,-8.039 2.879,-16.184 10.918,-18.196 1.219,-0.301 2.442,-0.445 3.641,-0.445" /><path
         id="path36"
         style="fill:#146da3;fill-opacity:1;fill-rule:nonzero;stroke:none"
         d="m 102.613,408.91 c -4.4294,-6.992 -2.343,-16.262 4.653,-20.695 l 157.261,-99.524 c 2.493,-1.582 5.262,-2.332 8.008,-2.332 4.973,0 9.836,2.473 12.692,6.981 4.429,7 2.347,16.262 -4.653,20.699 l -157.261,99.527 c -7.004,4.426 -16.266,2.344 -20.7,-4.656" /><path
         id="path38"
         style="fill:#66c430;fill-opacity:1;fill-rule:nonzero;stroke:none"
         d="m 307.16,425.141 c 2.856,0 5.746,0.808 8.305,2.519 6.894,4.598 8.754,13.906 4.16,20.801 l -95.926,143.887 c -4.601,6.894 -13.91,8.777 -20.801,4.16 -6.894,-4.602 -8.757,-13.906 -4.16,-20.801 L 294.664,431.82 c 2.891,-4.336 7.649,-6.679 12.496,-6.679" /><path
         id="path40"
         style="fill:#f1511b;fill-opacity:1;fill-rule:nonzero;stroke:none"
         d="M 0.636719,278.75 C -1.74609,270.82 2.75391,262.461 10.6914,260.082 L 141.5,220.832 c 1.441,-0.434 2.891,-0.633 4.316,-0.633 6.45,0 12.414,4.192 14.36,10.692 2.383,7.929 -2.117,16.289 -10.051,18.668 L 19.3125,288.809 C 11.3555,291.191 3.01563,286.691 0.636719,278.75" /><path
         id="path42"
         style="fill:#532e90;fill-opacity:1;fill-rule:nonzero;stroke:none"
         d="m 363.82,590.836 c 1.2,0 2.426,0.144 3.649,0.445 8.035,2.012 12.922,10.157 10.91,18.196 l -26.16,104.644 c -2.012,8.027 -10.141,12.918 -18.188,10.906 -8.039,-2.011 -12.926,-10.156 -10.914,-18.191 l 26.16,-104.645 c 1.707,-6.808 7.821,-11.355 14.543,-11.355" /></g></g></svg>