<?xml version="1.0" encoding="utf-8"?>
<!-- Generator: Adobe Illustrator 21.1.0, SVG Export Plug-In . SVG Version: 6.00 Build 0)  -->
<svg version="1.1" id="Layer_1" xmlns="http://www.w3.org/2000/svg" xmlns:xlink="http://www.w3.org/1999/xlink" x="0px" y="0px"
	 viewBox="0 0 966.2 955.2" style="enable-background:new 0 0 966.2 955.2;" xml:space="preserve">
<style type="text/css">
	.st0{fill:#1C6EA1;}
	.st1{fill:#FFFFFF;}
</style>
<circle class="st0" cx="478" cy="479" r="467"/>
<path class="st1" d="M422.7,667.1c-5.1,0-10-1.7-14-4.9L224.8,515c-9.6-7.7-11.2-21.8-3.5-31.5c4.3-5.3,10.7-8.4,17.5-8.4
	c5.1,0,10,1.7,14,4.9l167.4,133.9l280.2-315.3c4.3-4.8,10.4-7.5,16.8-7.5c5.5,0,10.8,2,14.9,5.7c4.5,4,7.1,9.4,7.5,15.4
	c0.4,6-1.6,11.7-5.6,16.2L439.5,659.6C435.3,664.3,429.1,667.1,422.7,667.1z"/>
</svg>
