<?xml version="1.0" encoding="utf-8"?>
<!-- Generator: Adobe Illustrator 21.1.0, SVG Export Plug-In . SVG Version: 6.00 Build 0)  -->
<svg version="1.1" id="Layer_1" xmlns="http://www.w3.org/2000/svg" xmlns:xlink="http://www.w3.org/1999/xlink" x="0px" y="0px"
	 viewBox="0 0 966.2 955.2" style="enable-background:new 0 0 966.2 955.2;" xml:space="preserve">
<style type="text/css">
	.st0{fill:#243B5C;}
	.st1{fill:#FFFFFF;}
</style>
<circle class="st0" cx="487.5" cy="479" r="467"/>
<path class="st1" d="M517.1,479L664,332c8.2-8.2,8.2-21.5,0-29.7c-4-4-9.2-6.1-14.8-6.1s-10.9,2.2-14.8,6.1L487.5,449.3L340.5,302.4
	c-4-4-9.2-6.1-14.8-6.1s-10.9,2.2-14.8,6.1c-8.2,8.2-8.2,21.5,0,29.7L457.8,479L310.9,625.9c-8.2,8.2-8.2,21.5,0,29.7
	c4,4,9.2,6.1,14.8,6.1s10.9-2.2,14.8-6.1l146.9-146.9l146.9,146.9c4,4,9.2,6.1,14.8,6.1s10.9-2.2,14.8-6.1c8.2-8.2,8.2-21.5,0-29.7
	L517.1,479z"/>
</svg>
