<?xml version="1.0" encoding="utf-8"?>
<!-- Generator: Adobe Illustrator 21.1.0, SVG Export Plug-In . SVG Version: 6.00 Build 0)  -->
<svg version="1.1" id="Layer_1" xmlns="http://www.w3.org/2000/svg" xmlns:xlink="http://www.w3.org/1999/xlink" x="0px" y="0px"
	 viewBox="0 0 966.2 955.2" style="enable-background:new 0 0 966.2 955.2;" xml:space="preserve">
<style type="text/css">
	.st0{fill:#53318E;}
	.st1{fill:#FFFFFF;}
</style>
<circle class="st0" cx="487.3" cy="478.8" r="467"/>
<path class="st1" d="M713.3,287.2c0-10.3-6.9-18.7-15.4-18.7l0,0l-421.2,0.4c-8.5,0-15.4,8.4-15.4,18.7c0,10.3,6.9,18.7,15.4,18.7
	l0,0l421.2-0.4C706.4,305.7,713.3,297.4,713.3,287.2z"/>
<path class="st1" d="M713.3,478.6c0-10.3-6.9-18.7-15.4-18.7l0,0l-421.2,0.4c-8.5,0-15.4,8.4-15.4,18.7s6.9,18.7,15.4,18.7l0,0
	l421.2-0.4C706.4,497.1,713.3,488.9,713.3,478.6z"/>
<path class="st1" d="M261.3,670.4c0,10.3,6.9,18.7,15.4,18.7l0,0l421.2-0.4c8.5,0,15.4-8.4,15.4-18.7s-6.9-18.7-15.4-18.7l0,0
	l-421.4,0.6C268.1,651.9,261.3,660.2,261.3,670.4z"/>
</svg>
