<svg id="svg" version="1.1" width="400" height="397.79917469050895" xmlns="http://www.w3.org/2000/svg" xmlns:xlink="http://www.w3.org/1999/xlink" style="display: block;"><g id="svgg"><path id="path0" d="M42.736 29.353 C 42.082 32.058,40.061 33.530,36.318 34.026 L 34.229 34.304 34.229 36.241 L 34.229 38.179 37.910 38.294 L 41.592 38.408 41.698 49.453 L 41.804 60.498 44.782 60.498 L 47.761 60.498 47.761 44.378 L 47.761 28.259 45.381 28.259 C 43.113 28.259,42.988 28.311,42.736 29.353 M19.900 226.667 L 19.900 380.896 200.597 380.896 L 381.294 380.896 381.294 226.667 L 381.294 72.438 200.597 72.438 L 19.900 72.438 19.900 226.667 M214.194 104.833 C 216.684 105.934,219.020 108.327,220.127 110.911 C 220.876 112.656,220.896 114.364,220.896 176.970 L 220.896 241.237 219.644 243.504 C 218.956 244.751,216.742 248.637,214.724 252.139 C 211.158 258.327,210.151 260.109,207.633 264.677 C 206.969 265.881,205.652 268.179,204.706 269.784 C 203.759 271.389,202.985 272.777,202.985 272.869 C 202.985 272.960,219.382 273.035,239.424 273.035 L 275.862 273.035 275.742 275.124 L 275.622 277.214 200.903 277.314 L 126.185 277.415 125.947 276.467 C 125.816 275.946,125.768 275.005,125.840 274.376 L 125.970 273.234 162.289 273.132 C 182.264 273.076,198.607 272.892,198.607 272.723 C 198.607 272.554,198.367 272.063,198.073 271.631 C 197.779 271.199,196.856 269.592,196.022 268.060 C 195.188 266.527,191.869 260.706,188.646 255.124 C 185.424 249.542,182.314 244.066,181.736 242.954 L 180.685 240.933 180.795 176.685 C 180.919 104.524,180.628 110.665,184.089 107.264 C 187.356 104.054,187.907 103.944,200.846 103.910 C 211.820 103.881,212.083 103.899,214.194 104.833 M162.893 191.940 C 163.255 192.214,163.748 193.244,163.989 194.229 C 164.231 195.214,164.665 197.005,164.955 198.209 C 165.244 199.413,165.757 201.417,166.095 202.663 C 167.189 206.693,167.313 208.352,166.574 209.090 C 165.739 209.926,164.236 209.942,163.556 209.123 C 162.872 208.299,159.629 195.652,159.614 193.751 C 159.598 191.713,161.330 190.757,162.893 191.940 M241.801 192.250 C 242.514 193.037,242.483 193.254,240.586 200.862 C 238.575 208.923,238.205 209.751,236.617 209.751 C 234.498 209.751,234.101 208.489,235.052 204.776 C 235.388 203.463,235.903 201.403,236.196 200.199 C 238.341 191.378,239.511 189.719,241.801 192.250 M152.088 218.100 C 160.106 230.008,159.977 229.771,159.023 230.826 C 157.130 232.918,157.025 232.815,149.037 220.920 C 142.170 210.695,142.062 210.483,143.113 209.321 C 144.745 207.518,145.380 208.139,152.088 218.100 M258.686 209.130 C 258.948 209.445,259.104 210.134,259.034 210.661 C 258.814 212.299,245.917 231.200,244.814 231.499 C 240.252 232.737,243.427 226.180,255.483 209.465 C 256.214 208.451,257.970 208.267,258.686 209.130 M141.475 238.593 C 155.218 247.221,154.608 246.778,154.750 248.235 C 154.890 249.678,153.778 250.571,152.301 250.200 C 150.745 249.810,129.991 236.527,129.612 235.679 C 129.124 234.584,130.244 232.836,131.434 232.836 C 131.912 232.836,136.430 235.427,141.475 238.593 M271.627 233.616 C 273.272 235.434,272.861 235.818,261.990 242.620 C 258.871 244.572,254.841 247.103,253.035 248.245 C 249.425 250.526,248.446 250.749,247.352 249.540 C 246.212 248.280,246.955 246.885,249.660 245.206 C 255.382 241.655,265.457 235.317,267.255 234.136 C 269.530 232.643,270.628 232.512,271.627 233.616 M186.168 240.033 C 185.519 240.411,185.544 240.570,186.526 242.309 C 187.107 243.338,188.137 245.171,188.816 246.384 C 189.494 247.597,191.564 251.224,193.416 254.444 L 196.781 260.299 200.818 260.299 L 204.855 260.299 210.160 251.045 C 213.078 245.955,215.657 241.472,215.892 241.082 C 216.944 239.335,212.801 239.040,209.733 240.645 C 207.555 241.784,205.845 241.744,204.498 240.525 C 203.199 239.350,199.891 239.365,197.651 240.556 C 195.237 241.840,194.451 241.847,192.438 240.607 C 190.729 239.555,187.497 239.259,186.168 240.033 M123.526 251.306 C 125.965 252.051,129.572 253.133,131.542 253.710 C 137.780 255.538,138.988 256.577,137.086 258.479 C 136.201 259.364,136.112 259.350,128.955 257.197 C 127.532 256.769,124.239 255.785,121.638 255.011 C 116.868 253.593,116.236 253.209,116.225 251.721 C 116.209 249.578,117.612 249.498,123.526 251.306 M285.545 251.252 C 286.073 252.762,285.065 253.679,281.990 254.486 C 280.677 254.831,277.453 255.762,274.826 256.556 C 265.962 259.234,265.564 259.310,264.666 258.498 C 262.510 256.546,263.909 255.552,272.262 253.102 C 276.080 251.982,279.920 250.819,280.796 250.517 C 283.312 249.651,285.081 249.925,285.545 251.252 M231.961 286.470 L 232.082 288.562 203.503 288.460 L 174.925 288.358 174.799 286.824 C 174.563 283.945,172.114 284.163,203.471 284.276 L 231.841 284.378 231.961 286.470 M180.498 304.279 C 180.498 305.406,180.408 305.473,178.911 305.473 C 177.272 305.473,176.746 304.817,177.277 303.435 C 177.758 302.181,180.498 302.898,180.498 304.279 M271.045 310.062 L 271.045 317.239 269.751 317.233 C 269.040 317.230,267.628 317.331,266.614 317.456 C 264.964 317.661,264.630 317.559,263.430 316.487 C 259.381 312.869,263.830 304.047,268.170 307.087 C 269.051 307.705,269.055 307.699,269.055 305.562 C 269.055 303.225,269.215 302.886,270.315 302.886 C 270.996 302.886,271.045 303.368,271.045 310.062 M132.106 306.327 C 134.101 309.770,133.897 309.808,136.234 305.572 C 137.372 303.510,137.626 303.284,138.798 303.284 C 140.452 303.284,140.536 302.984,137.512 307.876 C 135.019 311.910,134.925 312.155,134.925 314.664 L 134.925 317.267 133.831 317.141 C 132.759 317.018,132.734 316.953,132.618 314.069 C 132.516 311.532,132.319 310.842,131.199 309.094 C 127.122 302.736,127.323 303.282,129.055 303.288 C 130.246 303.293,130.488 303.534,132.106 306.327 M146.508 307.375 C 150.704 310.190,148.715 317.612,143.764 317.612 C 140.636 317.612,138.905 315.710,138.905 312.272 C 138.905 307.514,142.890 304.948,146.508 307.375 M174.359 307.631 C 176.034 309.306,175.898 310.050,173.918 310.050 C 172.859 310.050,172.235 309.847,172.084 309.453 C 171.778 308.655,169.552 308.648,169.552 309.445 C 169.552 309.769,170.045 310.144,170.647 310.277 C 174.595 311.151,176.168 312.492,175.743 314.619 C 174.945 318.608,165.970 318.552,165.970 314.557 C 165.970 313.293,168.688 313.192,169.460 314.428 C 169.991 315.279,170.976 315.444,171.929 314.841 C 172.730 314.334,172.402 314.100,169.492 313.102 C 165.786 311.831,165.019 309.670,167.468 307.401 C 169.059 305.926,172.778 306.050,174.359 307.631 M180.609 311.964 L 180.720 317.261 179.017 317.138 L 177.313 317.015 177.198 312.637 C 177.042 306.752,177.151 306.389,179.018 306.544 L 180.498 306.667 180.609 311.964 M188.659 306.867 C 189.157 307.134,189.486 307.134,189.651 306.867 C 190.185 306.002,192.212 306.420,192.470 307.448 C 193.230 310.476,192.462 319.163,191.334 320.290 C 189.077 322.546,183.050 321.657,182.617 319.005 C 182.447 317.958,185.042 317.636,185.992 318.586 C 187.132 319.726,188.554 319.278,189.150 317.590 C 189.336 317.063,189.020 316.995,187.050 317.138 C 184.991 317.287,184.621 317.195,183.740 316.313 C 179.613 312.187,183.751 304.240,188.659 306.867 M197.633 306.900 C 197.826 307.212,198.022 307.212,198.333 306.900 C 199.125 306.108,202.246 306.383,203.258 307.333 C 204.116 308.139,204.179 308.508,204.179 312.730 L 204.179 317.262 202.687 317.138 L 201.194 317.015 201.080 313.339 C 200.878 306.871,197.811 307.167,197.811 313.654 L 197.811 317.214 196.219 317.214 L 194.627 317.214 194.627 312.106 C 194.627 309.297,194.746 306.879,194.892 306.733 C 195.320 306.305,197.342 306.429,197.633 306.900 M214.824 309.453 C 214.989 314.191,215.186 314.826,216.493 314.826 C 217.914 314.826,218.109 314.320,218.109 310.647 C 218.109 306.856,218.280 306.468,219.943 306.468 L 221.294 306.468 221.294 311.877 L 221.294 317.286 219.602 317.169 C 218.672 317.105,217.328 317.192,216.617 317.364 C 212.914 318.255,211.741 316.643,211.741 310.661 L 211.741 306.420 213.234 306.543 L 214.726 306.667 214.824 309.453 M226.388 306.945 C 226.760 307.317,226.972 307.317,227.343 306.945 C 228.024 306.265,230.905 306.354,231.954 307.089 C 236.614 310.353,233.213 319.281,228.051 317.332 L 226.903 316.899 226.785 319.146 L 226.667 321.393 225.274 321.393 L 223.881 321.393 223.771 314.442 C 223.711 310.619,223.750 307.260,223.858 306.979 C 224.106 306.334,225.755 306.312,226.388 306.945 M248.389 307.631 C 249.494 308.736,249.552 308.966,249.552 312.208 C 249.552 314.219,249.716 315.622,249.950 315.622 C 250.169 315.622,250.348 316.070,250.348 316.617 C 250.348 317.749,248.792 318.043,247.894 317.081 C 247.481 316.640,247.228 316.639,246.386 317.079 C 242.935 318.879,239.106 315.994,240.784 312.858 C 241.256 311.977,243.959 310.846,245.593 310.846 C 246.944 310.846,247.519 309.962,246.762 309.050 C 245.966 308.091,244.094 308.312,243.346 309.453 C 242.167 311.253,240.392 310.577,241.265 308.659 C 242.368 306.239,246.413 305.655,248.389 307.631 M259.322 307.445 C 260.826 308.949,260.843 317.214,259.341 317.214 C 258.402 317.214,258.380 317.136,258.246 313.219 C 258.078 308.291,257.127 307.214,254.907 309.435 C 254.022 310.319,253.930 310.732,253.930 313.813 C 253.930 317.175,253.919 317.214,252.935 317.214 L 251.940 317.214 251.940 312.040 C 251.940 307.183,251.988 306.866,252.713 306.866 C 253.138 306.866,253.597 307.047,253.734 307.268 C 253.891 307.523,254.298 307.450,254.841 307.069 C 256.166 306.141,258.187 306.310,259.322 307.445 M152.438 310.474 C 152.438 314.488,152.822 315.622,154.181 315.622 C 155.921 315.622,156.556 314.328,156.744 310.409 C 156.906 307.025,156.963 306.830,157.761 306.944 C 158.566 307.059,158.612 307.309,158.718 312.150 L 158.830 317.235 157.325 317.250 C 156.498 317.258,154.887 317.297,153.747 317.336 C 150.755 317.439,150.476 316.930,150.460 311.343 L 150.448 306.866 151.443 306.866 C 152.431 306.866,152.438 306.890,152.438 310.474 M142.112 309.232 C 139.699 311.644,141.662 316.768,144.574 315.661 C 146.716 314.847,147.089 310.081,145.115 308.762 C 144.313 308.227,142.895 308.448,142.112 309.232 M265.075 309.254 C 264.357 309.972,264.079 311.166,264.243 312.836 C 264.695 317.463,269.055 316.653,269.055 311.942 C 269.055 308.982,266.842 307.487,265.075 309.254 M186.169 309.675 C 185.149 310.282,185.215 313.275,186.270 314.230 C 188.073 315.862,190.161 313.034,188.980 310.561 C 188.409 309.367,187.285 309.012,186.169 309.675 M227.562 309.675 C 226.670 310.205,226.579 313.695,227.439 314.408 C 228.640 315.405,230.217 314.756,230.627 313.095 C 231.273 310.478,229.514 308.516,227.562 309.675 M245.161 312.829 C 242.615 313.285,241.874 314.680,243.729 315.526 C 244.922 316.069,247.164 314.852,247.164 313.661 C 247.164 312.650,246.861 312.524,245.161 312.829 M121.791 328.557 C 121.791 330.583,122.193 331.307,122.786 330.348 C 123.239 329.616,126.391 329.896,127.499 330.768 C 131.861 334.199,127.212 343.783,122.764 340.530 C 122.224 340.136,121.844 340.089,121.499 340.376 C 120.047 341.580,119.801 340.560,119.801 333.346 L 119.801 326.368 120.796 326.368 C 121.737 326.368,121.791 326.488,121.791 328.557 M255.522 328.557 C 255.522 330.583,255.925 331.307,256.517 330.348 C 256.965 329.623,260.121 329.895,261.211 330.752 C 265.127 333.833,262.208 342.077,257.615 340.909 C 257.011 340.756,255.846 340.650,255.025 340.673 L 253.532 340.716 253.532 333.542 L 253.532 326.368 254.527 326.368 C 255.468 326.368,255.522 326.488,255.522 328.557 M147.488 330.134 C 148.817 330.689,150.257 332.875,149.792 333.628 C 149.395 334.270,148.122 333.885,147.499 332.935 C 145.948 330.568,143.284 332.204,143.284 335.522 C 143.284 338.948,145.564 340.295,147.327 337.910 C 148.816 335.896,150.370 336.391,149.447 338.585 C 148.864 339.972,147.086 341.095,145.473 341.095 C 139.826 341.095,139.144 331.252,144.693 329.843 C 145.963 329.520,146.036 329.528,147.488 330.134 M157.486 330.326 C 162.473 332.590,160.740 341.095,155.292 341.095 C 149.920 341.095,148.725 332.326,153.797 330.118 C 155.389 329.425,155.518 329.432,157.486 330.326 M138.388 331.241 C 139.066 331.920,139.458 332.840,139.598 334.083 L 139.805 335.920 136.358 335.920 C 132.525 335.920,131.927 336.323,133.100 338.113 C 133.980 339.456,135.820 339.454,136.990 338.109 C 138.535 336.332,139.977 337.103,138.894 339.127 C 137.368 341.977,132.221 341.559,130.753 338.465 C 128.123 332.922,134.261 327.115,138.388 331.241 M169.011 330.532 C 169.731 331.036,169.940 331.038,170.592 330.544 C 171.705 329.702,174.178 329.800,175.102 330.724 C 176.879 332.501,176.817 340.417,175.025 340.623 L 173.930 340.749 173.930 336.822 C 173.930 332.844,173.637 331.934,172.358 331.946 C 170.841 331.961,170.551 332.632,170.348 336.601 C 170.152 340.439,170.134 340.498,169.154 340.498 C 168.179 340.498,168.157 340.431,168.059 337.114 C 167.925 332.559,167.753 331.940,166.621 331.940 C 164.848 331.940,164.193 333.271,164.039 337.178 C 163.906 340.560,163.856 340.735,163.044 340.619 C 162.227 340.503,162.184 340.271,162.078 335.423 L 161.966 330.348 162.973 330.348 C 163.527 330.348,163.980 330.538,163.980 330.769 C 163.980 331.005,164.369 330.917,164.865 330.570 C 165.977 329.790,167.927 329.772,169.011 330.532 M185.079 330.613 C 186.421 331.406,187.065 332.681,187.065 334.546 L 187.065 335.920 183.669 335.920 C 179.888 335.920,179.344 336.292,180.513 338.077 C 181.411 339.447,183.190 339.462,184.443 338.109 C 185.212 337.279,187.065 336.698,187.065 337.288 C 187.065 340.582,181.965 342.237,179.366 339.786 C 174.715 335.400,179.682 327.425,185.079 330.613 M201.413 330.557 C 202.586 331.164,202.587 331.168,202.587 334.887 C 202.587 338.299,202.661 338.659,203.477 339.200 C 204.246 339.711,204.294 339.880,203.826 340.443 C 203.156 341.250,202.253 341.276,201.408 340.511 C 200.842 339.999,200.627 339.999,199.640 340.511 C 196.364 342.211,192.991 339.773,194.204 336.582 C 194.661 335.381,196.191 334.586,198.905 334.139 C 200.217 333.923,200.597 333.687,200.597 333.089 C 200.597 331.517,197.289 331.247,196.802 332.779 C 196.425 333.968,194.627 333.792,194.627 332.566 C 194.627 330.331,198.664 329.136,201.413 330.557 M217.568 330.532 C 218.289 331.036,218.497 331.038,219.149 330.544 C 220.276 329.691,222.736 329.801,223.682 330.746 C 224.980 332.045,224.892 340.811,223.582 340.625 C 222.733 340.504,222.681 340.297,222.573 336.654 C 222.450 332.482,222.055 331.663,220.372 332.085 C 219.023 332.424,218.507 333.937,218.507 337.559 C 218.507 340.642,218.477 340.748,217.612 340.625 C 216.773 340.506,216.710 340.285,216.617 337.114 C 216.482 332.559,216.310 331.940,215.178 331.940 C 213.433 331.940,212.797 333.230,212.609 337.153 C 212.448 340.538,212.390 340.732,211.592 340.618 C 210.786 340.503,210.741 340.254,210.634 335.369 L 210.523 330.240 211.863 330.458 C 212.600 330.577,213.456 330.515,213.766 330.319 C 214.630 329.771,216.644 329.884,217.568 330.532 M233.574 330.517 C 234.878 331.191,235.622 332.656,235.622 334.546 L 235.622 335.920 232.040 335.920 C 228.089 335.920,227.541 336.378,229.269 338.233 C 230.345 339.388,231.862 339.338,233.000 338.109 C 234.699 336.276,236.385 337.041,235.001 339.018 C 232.759 342.219,227.695 341.429,226.459 337.686 C 224.819 332.716,229.230 328.271,233.574 330.517 M244.422 330.587 C 245.067 331.170,245.201 331.170,246.034 330.587 C 247.521 329.546,250.322 329.932,251.238 331.303 C 251.399 331.544,251.533 333.756,251.536 336.219 L 251.542 340.697 250.555 340.697 C 249.353 340.697,249.191 340.137,249.055 335.522 C 248.957 332.187,248.940 332.138,247.899 332.017 C 246.161 331.816,245.572 333.128,245.572 337.203 C 245.572 340.664,245.563 340.697,244.577 340.697 C 243.592 340.697,243.582 340.662,243.577 337.214 C 243.570 332.819,243.344 331.940,242.219 331.940 C 240.332 331.940,239.891 332.763,239.639 336.757 C 239.419 340.250,239.344 340.506,238.507 340.625 C 237.618 340.751,237.612 340.719,237.612 335.498 L 237.612 330.244 238.940 330.460 C 239.670 330.578,240.521 330.515,240.830 330.319 C 241.728 329.750,243.657 329.894,244.422 330.587 M271.255 330.579 C 272.654 331.243,273.433 332.748,273.433 334.786 L 273.433 335.920 270.037 335.920 C 266.256 335.920,265.712 336.292,266.881 338.077 C 267.779 339.448,269.544 339.463,270.721 338.109 C 271.437 337.286,273.433 336.681,273.433 337.288 C 273.433 340.185,268.799 342.100,266.225 340.267 C 260.770 336.383,265.261 327.735,271.255 330.579 M280.597 330.945 C 280.597 331.577,280.373 331.940,279.982 331.940 C 278.269 331.940,277.413 333.733,277.413 337.323 C 277.413 340.651,277.387 340.748,276.517 340.625 C 275.649 340.501,275.619 340.344,275.510 335.423 L 275.399 330.348 276.406 330.348 C 276.960 330.348,277.413 330.566,277.413 330.832 C 277.413 331.133,277.669 331.058,278.095 330.633 C 279.169 329.559,280.597 329.737,280.597 330.945 M154.507 331.989 C 152.484 332.737,152.261 337.512,154.189 338.800 C 155.298 339.541,156.796 339.104,157.444 337.851 C 159.145 334.561,157.333 330.944,154.507 331.989 M122.828 332.536 C 121.633 333.441,121.486 336.629,122.577 338.010 C 124.330 340.231,126.965 338.638,126.965 335.358 C 126.965 332.407,124.879 330.984,122.828 332.536 M133.157 332.825 C 132.201 334.190,132.363 334.328,134.925 334.328 C 137.385 334.328,137.651 334.111,136.901 332.710 C 136.302 331.590,133.972 331.662,133.157 332.825 M180.543 332.921 C 179.630 334.315,179.647 334.328,182.289 334.328 C 184.323 334.328,184.677 334.222,184.677 333.612 C 184.677 331.744,181.646 331.238,180.543 332.921 M229.077 332.825 C 228.121 334.190,228.284 334.328,230.846 334.328 C 232.880 334.328,233.234 334.222,233.234 333.612 C 233.234 331.810,230.192 331.234,229.077 332.825 M256.308 333.035 C 254.704 335.068,255.923 339.104,258.142 339.104 C 260.257 339.104,261.545 334.921,260.077 332.825 C 259.185 331.551,257.401 331.651,256.308 333.035 M266.888 332.825 C 265.932 334.190,266.095 334.328,268.657 334.328 C 270.691 334.328,271.045 334.222,271.045 333.612 C 271.045 331.810,268.003 331.234,266.888 332.825 M197.504 336.334 C 196.367 336.791,195.982 337.742,196.621 338.513 C 197.734 339.854,200.597 338.561,200.597 336.716 C 200.597 335.836,199.180 335.661,197.504 336.334 " stroke="none" fill="#ffffff" fill-rule="evenodd"></path><path id="path1" d="M13.930 200.199 L 13.930 386.866 200.597 386.866 L 387.264 386.866 387.264 200.199 L 387.264 13.532 200.597 13.532 L 13.930 13.532 13.930 200.199 M48.358 44.577 L 48.358 61.095 44.882 61.209 L 41.405 61.324 41.300 50.065 L 41.194 38.806 37.313 38.692 L 33.433 38.578 33.433 36.247 C 33.433 33.640,33.641 33.433,36.264 33.433 C 39.268 33.433,42.189 31.379,42.189 29.266 C 42.189 27.946,42.512 27.819,45.555 27.944 L 48.358 28.060 48.358 44.577 M381.294 226.667 L 381.294 381.294 200.498 381.194 L 19.701 381.095 19.600 227.065 C 19.544 142.348,19.583 72.811,19.687 72.537 C 19.837 72.140,56.383 72.040,200.585 72.040 L 381.294 72.040 381.294 226.667 M189.254 104.639 C 185.946 105.476,183.159 108.053,181.936 111.405 L 181.095 113.714 181.095 177.409 L 181.095 241.104 186.866 251.103 C 190.040 256.603,192.637 261.163,192.637 261.236 C 192.637 261.309,194.144 263.980,195.987 267.172 C 198.607 271.710,199.207 273.025,198.740 273.204 C 198.412 273.330,182.029 273.433,162.333 273.433 L 126.521 273.433 126.644 275.124 L 126.766 276.816 200.896 276.916 L 275.025 277.017 275.025 275.225 L 275.025 273.433 239.028 273.433 C 214.746 273.433,202.950 273.299,202.779 273.023 C 202.639 272.797,204.401 269.349,206.694 265.361 C 208.986 261.373,211.354 257.214,211.954 256.119 C 212.554 255.025,214.724 251.214,216.776 247.650 L 220.507 241.171 220.403 176.605 L 220.299 112.040 219.418 110.394 C 218.298 108.299,216.477 106.478,214.382 105.358 C 212.653 104.433,192.363 103.853,189.254 104.639 M185.368 120.299 C 185.288 121.448,185.222 120.507,185.222 118.209 C 185.222 115.910,185.288 114.970,185.368 116.119 C 185.448 117.269,185.448 119.149,185.368 120.299 M216.413 120.299 C 216.332 121.448,216.267 120.507,216.267 118.209 C 216.267 115.910,216.332 114.970,216.413 116.119 C 216.493 117.269,216.493 119.149,216.413 120.299 M216.444 128.060 L 216.318 129.154 200.896 129.258 L 185.473 129.363 185.473 128.164 L 185.473 126.965 201.021 126.965 L 216.570 126.965 216.444 128.060 M216.716 135.124 L 216.716 136.318 200.896 136.422 L 185.075 136.527 185.075 135.124 L 185.075 133.722 200.896 133.826 L 216.716 133.930 216.716 135.124 M192.838 141.393 C 192.957 141.886,193.005 163.242,192.945 188.852 L 192.836 235.416 188.955 235.420 L 185.075 235.423 185.075 187.960 L 185.075 140.498 188.848 140.498 C 192.432 140.498,192.633 140.543,192.838 141.393 M204.577 188.097 L 204.577 235.697 202.687 235.445 C 201.647 235.307,199.945 235.356,198.905 235.555 L 197.015 235.917 197.015 188.207 L 197.015 140.498 200.796 140.498 L 204.577 140.498 204.577 188.097 M216.517 187.973 L 216.517 235.448 213.831 235.436 C 212.353 235.429,210.652 235.561,210.050 235.729 L 208.955 236.035 208.955 188.266 L 208.955 140.498 212.736 140.498 L 216.517 140.498 216.517 187.973 M160.178 192.935 C 160.011 193.318,159.926 193.811,159.989 194.030 C 160.152 194.590,161.043 198.301,161.805 201.592 C 162.160 203.124,162.558 204.647,162.690 204.975 C 162.821 205.303,163.120 206.289,163.355 207.164 C 163.707 208.478,163.973 208.778,164.878 208.882 C 166.420 209.060,166.616 208.202,165.855 204.618 C 165.049 200.823,164.134 197.000,163.843 196.219 C 163.721 195.891,163.427 194.861,163.188 193.930 C 162.709 192.056,160.834 191.436,160.178 192.935 M238.929 192.736 C 238.613 193.225,238.395 194.000,236.780 200.398 C 234.821 208.154,234.812 209.103,236.698 208.882 C 237.922 208.739,238.907 206.590,239.404 202.978 C 239.554 201.888,239.818 200.908,239.991 200.801 C 240.165 200.694,240.434 199.754,240.590 198.711 C 240.746 197.669,241.136 196.042,241.457 195.096 C 242.245 192.773,240.163 190.830,238.929 192.736 M192.509 240.238 C 194.588 241.434,195.196 241.428,197.354 240.194 C 199.691 238.858,202.341 238.860,204.739 240.199 C 206.969 241.444,207.528 241.437,209.751 240.137 C 211.854 238.908,214.999 238.709,216.031 239.741 C 216.817 240.527,217.508 239.104,209.564 253.060 L 205.216 260.697 200.944 260.697 C 196.731 260.697,196.661 260.681,195.917 259.602 C 195.139 258.475,190.271 250.039,188.968 247.562 C 188.565 246.796,187.865 245.542,187.412 244.776 C 184.815 240.382,184.814 240.379,185.680 239.868 C 187.776 238.631,189.915 238.747,192.509 240.238 M175.790 284.840 C 175.643 284.987,175.522 285.794,175.522 286.633 L 175.522 288.159 203.605 288.159 L 231.688 288.159 231.565 286.468 L 231.443 284.776 203.751 284.674 C 188.520 284.618,175.938 284.692,175.790 284.840 M177.910 304.279 C 177.910 305.075,178.109 305.274,178.905 305.274 C 179.701 305.274,179.900 305.075,179.900 304.279 C 179.900 303.483,179.701 303.284,178.905 303.284 C 178.109 303.284,177.910 303.483,177.910 304.279 M269.851 305.648 C 269.851 308.139,269.470 308.841,268.653 307.856 C 267.923 306.977,264.580 307.067,263.745 307.989 C 262.489 309.378,261.983 312.021,262.578 314.092 C 263.393 316.930,265.295 317.920,267.790 316.803 C 268.741 316.377,269.532 316.225,269.666 316.441 C 270.422 317.664,270.647 316.198,270.647 310.050 C 270.647 305.804,270.498 303.284,270.249 303.284 C 270.028 303.284,269.851 304.337,269.851 305.648 M128.557 303.935 C 128.557 304.075,129.363 305.412,130.348 306.907 C 131.333 308.403,132.139 309.789,132.139 309.988 C 132.139 310.187,132.408 310.573,132.736 310.846 C 133.161 311.198,133.333 312.131,133.333 314.079 C 133.333 316.246,133.458 316.816,133.930 316.816 C 134.396 316.816,134.527 316.282,134.527 314.398 C 134.527 312.254,134.719 311.666,136.219 309.205 C 137.149 307.679,138.097 306.099,138.324 305.695 C 138.551 305.291,138.976 304.673,139.268 304.321 C 139.730 303.764,139.677 303.683,138.855 303.691 C 138.102 303.698,137.543 304.325,136.101 306.775 C 134.024 310.307,133.945 310.346,132.796 308.406 C 132.325 307.612,131.504 306.224,130.971 305.322 C 130.152 303.934,128.557 303.018,128.557 303.935 M142.005 307.305 C 138.295 308.724,138.410 315.496,142.168 317.000 C 145.400 318.293,148.165 315.990,148.220 311.959 C 148.269 308.298,145.274 306.054,142.005 307.305 M167.861 307.652 C 165.351 309.633,167.613 313.234,171.368 313.234 C 172.330 313.234,173.214 314.450,172.701 315.067 C 171.989 315.925,169.651 315.770,169.062 314.826 C 168.561 314.023,166.368 313.673,166.368 314.395 C 166.368 317.873,173.680 318.354,175.219 314.977 C 175.974 313.319,174.875 312.031,171.877 311.063 C 169.890 310.422,169.353 310.079,169.353 309.453 C 169.353 308.424,171.557 308.113,172.321 309.034 C 172.944 309.784,174.726 309.856,174.726 309.131 C 174.726 307.014,169.968 305.989,167.861 307.652 M184.577 307.296 C 183.428 307.965,182.687 309.879,182.687 312.177 C 182.687 316.025,185.568 317.837,189.154 316.244 C 189.719 315.993,189.851 316.132,189.851 316.972 C 189.851 319.030,187.070 320.450,185.871 319.005 C 185.372 318.404,182.676 318.150,182.699 318.706 C 182.764 320.242,185.540 321.341,188.402 320.964 C 191.672 320.533,191.841 320.153,191.841 313.234 L 191.841 307.264 190.846 307.264 C 190.299 307.264,189.851 307.447,189.851 307.672 C 189.851 307.906,189.350 307.821,188.676 307.473 C 187.334 306.779,185.594 306.703,184.577 307.296 M198.369 307.559 C 197.871 308.057,197.630 308.113,197.511 307.758 C 197.421 307.486,196.824 307.264,196.186 307.264 L 195.025 307.264 195.025 312.040 L 195.025 316.816 196.219 316.816 L 197.413 316.816 197.413 313.509 C 197.413 309.543,197.837 308.735,199.819 308.924 L 201.194 309.055 201.308 312.935 L 201.422 316.816 202.800 316.816 L 204.179 316.816 204.179 313.214 C 204.179 309.470,203.623 307.594,202.370 307.113 C 201.134 306.639,199.057 306.870,198.369 307.559 M227.563 307.419 C 226.844 308.139,226.070 308.264,226.070 307.662 C 226.070 307.443,225.622 307.264,225.075 307.264 L 224.080 307.264 224.080 314.030 L 224.080 320.796 225.075 320.796 C 226.014 320.796,226.070 320.675,226.070 318.630 C 226.070 316.182,226.470 315.697,227.750 316.594 C 231.766 319.407,235.771 312.132,232.420 308.110 C 231.399 306.884,228.509 306.473,227.563 307.419 M243.922 307.139 C 242.536 307.362,241.413 308.615,241.773 309.537 C 242.022 310.173,242.145 310.132,242.931 309.154 C 244.520 307.177,247.812 307.879,247.493 310.127 C 247.381 310.920,247.028 311.099,244.888 311.443 C 242.066 311.897,241.061 312.674,241.061 314.404 C 241.061 316.903,243.683 318.005,246.348 316.627 C 247.347 316.111,247.540 316.111,247.969 316.627 C 248.526 317.299,249.784 317.406,250.151 316.813 C 250.287 316.593,250.119 316.305,249.776 316.174 C 249.284 315.985,249.154 315.272,249.154 312.755 C 249.154 309.391,248.391 307.269,247.178 307.258 C 246.842 307.255,246.209 307.189,245.771 307.111 C 245.333 307.033,244.501 307.045,243.922 307.139 M150.846 311.593 C 150.846 314.735,150.993 316.044,151.381 316.367 C 152.404 317.215,154.265 317.318,155.649 316.603 C 156.560 316.132,157.027 316.057,157.130 316.365 C 157.827 318.455,158.408 316.488,158.408 312.040 C 158.408 307.529,158.364 307.264,157.612 307.264 C 156.875 307.264,156.816 307.529,156.816 310.846 C 156.816 315.030,156.172 316.164,153.923 315.944 C 152.377 315.792,152.134 315.081,152.079 310.547 C 152.048 307.911,151.922 307.264,151.443 307.264 C 150.949 307.264,150.846 308.010,150.846 311.593 M177.910 312.040 L 177.910 316.816 178.905 316.816 L 179.900 316.816 179.900 312.040 L 179.900 307.264 178.905 307.264 L 177.910 307.264 177.910 312.040 M212.186 310.547 C 212.274 316.673,213.290 317.996,216.905 316.693 C 217.962 316.312,218.761 316.204,218.839 316.430 C 218.912 316.642,219.405 316.816,219.934 316.816 L 220.896 316.816 220.896 312.040 L 220.896 307.264 219.701 307.264 L 218.507 307.264 218.507 310.837 C 218.507 315.080,217.572 316.404,215.522 315.061 C 214.583 314.446,214.527 314.209,214.527 310.837 L 214.527 307.264 213.333 307.264 L 212.139 307.264 212.186 310.547 M252.338 312.040 C 252.338 316.020,252.438 316.816,252.935 316.816 C 253.419 316.816,253.532 316.173,253.532 313.414 C 253.532 310.246,253.605 309.945,254.585 309.036 C 257.184 306.628,258.706 308.154,258.706 313.166 C 258.706 316.551,258.764 316.816,259.502 316.816 C 260.589 316.816,260.680 310.877,259.628 308.670 C 258.900 307.145,255.613 306.578,254.358 307.761 C 253.936 308.159,253.794 308.159,253.648 307.761 C 252.894 305.703,252.338 307.517,252.338 312.040 M145.762 308.756 C 147.089 310.268,147.122 314.115,145.819 315.418 C 144.869 316.367,142.258 316.196,141.515 315.135 C 139.095 311.681,143.077 305.699,145.762 308.756 M268.943 309.611 C 270.797 312.373,269.374 315.999,266.430 316.014 C 264.592 316.023,263.727 314.830,263.702 312.253 C 263.663 308.236,266.918 306.596,268.943 309.611 M188.651 309.250 C 190.298 310.132,190.118 313.997,188.392 314.783 C 185.717 316.002,183.655 312.602,185.500 310.012 C 186.351 308.816,187.376 308.568,188.651 309.250 M230.624 309.740 C 231.331 310.750,231.438 312.923,230.837 314.047 C 229.075 317.338,225.098 314.248,226.466 310.651 C 227.237 308.622,229.495 308.128,230.624 309.740 M247.562 313.234 C 247.562 314.821,246.312 316.020,244.657 316.020 C 241.371 316.020,241.627 313.035,244.975 312.305 C 247.123 311.838,247.562 311.995,247.562 313.234 M120.199 333.532 C 120.199 339.104,120.299 340.299,120.763 340.299 C 121.073 340.299,121.400 340.078,121.490 339.809 C 121.609 339.450,121.932 339.503,122.703 340.008 C 126.746 342.657,130.870 335.546,127.567 331.621 C 126.356 330.182,123.842 329.833,122.726 330.949 C 121.789 331.885,121.393 331.285,121.393 328.932 C 121.393 327.272,121.254 326.766,120.796 326.766 C 120.289 326.766,120.199 327.783,120.199 333.532 M253.930 333.532 C 253.930 339.104,254.030 340.299,254.494 340.299 C 254.804 340.299,255.131 340.078,255.221 339.809 C 255.341 339.450,255.663 339.503,256.434 340.008 C 258.058 341.072,259.405 340.873,260.935 339.343 C 264.792 335.486,260.750 327.774,256.541 330.958 C 255.298 331.898,255.124 331.676,255.124 329.154 C 255.124 327.297,254.992 326.766,254.527 326.766 C 254.020 326.766,253.930 327.783,253.930 333.532 M132.392 331.328 C 128.931 334.536,130.630 340.646,134.994 340.684 C 136.557 340.697,138.905 339.130,138.905 338.074 C 138.905 337.225,138.262 337.396,137.103 338.555 C 135.273 340.385,132.518 339.508,132.402 337.058 L 132.338 335.721 135.821 335.606 C 139.660 335.480,139.768 335.382,138.876 332.822 C 137.991 330.284,134.410 329.458,132.392 331.328 M142.746 331.544 C 139.159 335.807,143.279 343.084,147.575 340.075 C 148.982 339.090,149.886 337.114,148.930 337.114 C 148.522 337.114,147.986 337.557,147.739 338.098 C 146.015 341.883,141.605 337.970,142.959 333.857 C 143.893 331.021,147.311 330.325,147.970 332.836 C 148.156 333.544,149.652 333.837,149.652 333.165 C 149.652 330.524,144.602 329.339,142.746 331.544 M152.978 331.054 C 148.226 334.887,152.272 342.861,157.578 340.117 C 160.224 338.749,160.802 333.834,158.589 331.524 C 157.242 330.117,154.431 329.882,152.978 331.054 M162.388 335.353 C 162.388 339.904,162.451 340.345,163.085 340.224 C 163.677 340.110,163.798 339.546,163.895 336.430 C 164.006 332.873,164.043 332.746,165.203 331.920 C 167.440 330.327,168.304 331.471,168.443 336.214 C 168.541 339.536,168.657 340.109,169.254 340.224 C 169.878 340.343,169.950 339.961,169.950 336.556 C 169.950 332.201,170.752 330.972,173.066 331.783 C 174.102 332.146,174.135 332.258,174.328 336.096 C 174.462 338.745,174.690 340.090,175.025 340.200 C 175.923 340.497,175.706 331.832,174.795 331.007 C 173.887 330.185,171.408 330.147,170.746 330.945 C 170.474 331.274,170.026 331.542,169.751 331.542 C 169.476 331.542,169.029 331.274,168.756 330.945 C 168.484 330.617,167.678 330.348,166.965 330.348 C 166.253 330.348,165.447 330.617,165.174 330.945 C 164.902 331.274,164.521 331.542,164.329 331.542 C 164.137 331.542,163.980 331.274,163.980 330.945 C 163.980 330.614,163.626 330.348,163.184 330.348 C 162.430 330.348,162.388 330.614,162.388 335.353 M179.526 331.717 C 176.465 334.876,178.431 340.697,182.560 340.697 C 184.206 340.697,186.248 339.215,186.263 338.010 C 186.272 337.231,185.599 337.422,184.514 338.507 C 182.734 340.288,179.963 339.354,179.787 336.915 L 179.701 335.721 183.383 335.607 C 185.408 335.544,187.065 335.347,187.065 335.169 C 187.065 331.024,182.309 328.846,179.526 331.717 M195.896 331.160 C 195.006 331.989,194.721 333.134,195.405 333.134 C 195.614 333.134,196.232 332.687,196.780 332.139 C 198.435 330.484,200.995 331.147,200.995 333.231 C 200.995 334.323,200.198 334.711,197.941 334.721 C 196.364 334.728,194.229 336.434,194.229 337.689 C 194.229 340.088,196.956 341.281,199.580 340.030 C 200.887 339.407,201.025 339.407,201.714 340.030 C 202.119 340.397,202.661 340.697,202.917 340.697 C 203.578 340.697,203.495 339.693,202.786 339.104 C 202.338 338.733,202.189 337.733,202.189 335.098 C 202.189 331.921,202.105 331.528,201.304 330.968 C 199.999 330.053,196.968 330.161,195.896 331.160 M210.945 335.323 C 210.945 339.480,211.043 340.299,211.542 340.299 C 212.020 340.299,212.139 339.704,212.139 337.332 C 212.139 332.769,213.804 330.318,215.948 331.723 C 216.865 332.324,216.915 332.562,216.915 336.328 C 216.915 339.592,217.022 340.299,217.512 340.299 C 217.990 340.299,218.109 339.704,218.109 337.339 C 218.109 332.687,219.445 330.754,221.891 331.868 C 222.856 332.308,222.886 332.440,222.886 336.339 C 222.886 339.951,222.956 340.343,223.582 340.224 C 224.702 340.009,224.788 333.419,223.694 331.642 C 222.795 330.182,220.270 329.781,219.303 330.945 C 219.031 331.274,218.583 331.542,218.308 331.542 C 218.034 331.542,217.586 331.274,217.313 330.945 C 217.041 330.617,216.235 330.348,215.522 330.348 C 214.810 330.348,214.004 330.617,213.731 330.945 C 213.459 331.274,212.989 331.542,212.688 331.542 C 212.386 331.542,212.139 331.274,212.139 330.945 C 212.139 330.617,211.871 330.348,211.542 330.348 C 211.043 330.348,210.945 331.166,210.945 335.323 M228.101 331.755 C 225.959 334.194,226.334 338.369,228.845 340.041 C 230.676 341.260,234.086 340.410,234.664 338.590 C 235.045 337.389,234.545 337.343,233.220 338.458 C 231.582 339.837,229.965 339.827,228.867 338.431 C 227.202 336.314,227.800 335.736,231.792 335.606 L 235.324 335.490 235.100 333.817 C 234.624 330.267,230.479 329.046,228.101 331.755 M238.010 335.323 C 238.010 339.480,238.108 340.299,238.607 340.299 C 239.088 340.299,239.204 339.676,239.204 337.088 C 239.204 332.560,240.819 330.285,243.013 331.723 C 243.930 332.324,243.980 332.562,243.980 336.328 C 243.980 339.592,244.086 340.299,244.577 340.299 C 245.062 340.299,245.175 339.644,245.180 336.816 C 245.187 333.061,245.358 332.530,246.812 331.770 C 249.091 330.578,249.950 331.826,249.950 336.329 C 249.950 339.592,250.056 340.299,250.547 340.299 C 251.328 340.299,251.397 333.063,250.632 331.542 C 250.013 330.313,247.228 329.909,246.385 330.926 C 245.738 331.704,245.014 331.711,244.378 330.945 C 243.749 330.188,241.630 330.195,240.620 330.958 C 239.636 331.703,239.204 331.699,239.204 330.945 C 239.204 330.617,238.935 330.348,238.607 330.348 C 238.108 330.348,238.010 331.166,238.010 335.323 M266.124 331.328 C 262.596 334.598,264.471 340.697,269.004 340.697 C 270.292 340.697,272.637 339.004,272.637 338.074 C 272.637 337.235,271.997 337.393,270.882 338.507 C 269.101 340.288,265.611 338.946,265.944 336.608 C 266.062 335.774,266.287 335.715,269.751 335.607 C 271.776 335.544,273.433 335.432,273.433 335.358 C 273.433 331.459,268.761 328.883,266.124 331.328 M275.821 335.323 C 275.821 339.480,275.919 340.299,276.418 340.299 C 276.899 340.299,277.015 339.678,277.015 337.100 C 277.015 333.298,277.655 331.940,279.449 331.940 C 280.332 331.940,280.597 331.756,280.597 331.144 C 280.597 330.178,278.821 330.012,278.463 330.945 C 278.337 331.274,277.960 331.542,277.624 331.542 C 277.289 331.542,277.015 331.274,277.015 330.945 C 277.015 330.617,276.746 330.348,276.418 330.348 C 275.919 330.348,275.821 331.166,275.821 335.323 M125.499 331.607 C 128.697 333.311,127.826 339.264,124.378 339.264 C 121.256 339.264,120.058 334.244,122.687 332.173 C 124.166 331.006,124.314 330.977,125.499 331.607 M136.662 332.040 C 138.888 334.063,138.515 334.726,135.151 334.726 C 132.992 334.726,132.147 334.586,132.167 334.229 C 132.310 331.698,134.899 330.437,136.662 332.040 M157.022 331.782 C 159.779 333.589,158.507 339.502,155.361 339.502 C 152.273 339.502,151.184 333.548,153.957 331.828 C 155.301 330.994,155.807 330.986,157.022 331.782 M183.850 331.725 C 184.810 332.222,185.446 333.286,185.467 334.428 C 185.470 334.592,184.117 334.726,182.461 334.726 C 179.079 334.726,178.696 334.008,181.029 332.042 C 182.284 330.984,182.393 330.972,183.850 331.725 M232.165 331.607 C 235.209 333.228,234.671 334.726,231.045 334.726 C 227.583 334.726,227.227 334.232,229.296 332.299 C 230.678 331.008,230.927 330.948,232.165 331.607 M259.997 332.145 C 262.408 334.556,261.478 338.729,258.393 339.346 C 255.306 339.964,253.788 334.702,256.360 332.299 C 257.877 330.882,258.699 330.848,259.997 332.145 M270.260 331.808 C 270.801 332.174,271.274 332.487,271.311 332.506 C 271.348 332.524,271.502 333.031,271.653 333.633 L 271.927 334.726 268.899 334.726 C 265.753 334.726,265.578 334.609,266.314 332.995 C 267.092 331.288,268.750 330.790,270.260 331.808 M200.995 336.489 C 200.995 338.718,199.071 339.962,196.900 339.136 C 194.010 338.038,196.077 335.878,200.697 335.170 C 200.861 335.145,200.995 335.738,200.995 336.489 " stroke="none" fill="#16243d" fill-rule="evenodd"></path><path id="path2" d="M42.418 28.341 C 41.987 29.747,41.871 30.724,42.173 30.406 C 42.358 30.210,42.574 29.692,42.652 29.254 C 42.775 28.565,43.156 28.442,45.481 28.340 L 48.168 28.222 48.064 44.459 L 47.960 60.697 44.676 60.697 C 42.870 60.697,41.392 60.838,41.392 61.011 C 41.393 61.183,42.960 61.273,44.876 61.210 L 48.358 61.095 48.358 44.577 L 48.358 28.060 45.467 27.943 C 43.366 27.858,42.532 27.966,42.418 28.341 M40.944 31.703 C 40.148 32.664,38.067 33.433,36.264 33.433 C 33.639 33.433,33.433 33.638,33.433 36.261 C 33.433 37.552,33.567 38.607,33.731 38.607 C 33.896 38.607,33.966 37.689,33.889 36.567 C 33.726 34.221,34.061 33.846,36.331 33.837 C 38.168 33.830,40.140 33.036,41.156 31.896 C 41.573 31.428,41.819 31.045,41.702 31.045 C 41.586 31.045,41.245 31.341,40.944 31.703 M19.701 226.667 L 19.701 381.095 200.398 381.095 L 381.095 381.096 200.498 380.995 L 19.902 380.895 19.801 226.567 L 19.700 72.239 19.701 226.667 M189.367 104.207 C 188.992 104.356,194.134 104.478,200.794 104.478 C 207.455 104.478,212.597 104.356,212.223 104.207 C 211.849 104.058,206.706 103.937,200.796 103.937 C 194.886 103.937,189.743 104.058,189.367 104.207 M185.950 105.761 C 185.031 106.357,184.279 107.015,184.279 107.223 C 184.279 107.431,184.682 107.234,185.174 106.784 C 185.667 106.335,186.607 105.684,187.264 105.338 C 187.920 104.992,188.270 104.701,188.040 104.693 C 187.810 104.684,186.870 105.164,185.950 105.761 M214.584 105.477 C 216.433 106.455,218.322 108.343,219.299 110.193 C 219.720 110.990,220.072 111.453,220.082 111.222 C 220.151 109.581,215.195 104.625,213.554 104.694 C 213.323 104.704,213.786 105.056,214.584 105.477 M181.960 110.149 C 181.517 111.012,181.019 113.035,181.249 113.035 C 181.342 113.035,181.692 112.229,182.028 111.244 C 182.646 109.429,182.612 108.876,181.960 110.149 M220.692 177.313 C 220.692 212.557,220.739 226.916,220.796 209.222 C 220.853 191.528,220.853 162.693,220.796 145.143 C 220.739 127.593,220.692 142.070,220.692 177.313 M185.222 118.209 C 185.222 120.507,185.288 121.448,185.368 120.299 C 185.448 119.149,185.448 117.269,185.368 116.119 C 185.288 114.970,185.222 115.910,185.222 118.209 M216.267 118.209 C 216.267 120.507,216.332 121.448,216.413 120.299 C 216.493 119.149,216.493 117.269,216.413 116.119 C 216.332 114.970,216.267 115.910,216.267 118.209 M185.473 128.164 L 185.473 129.363 200.896 129.258 L 216.318 129.154 216.444 128.060 L 216.570 126.965 201.021 126.965 L 185.473 126.965 185.473 128.164 M216.318 135.124 C 216.318 135.849,216.453 136.358,216.617 136.257 C 216.781 136.155,216.915 135.646,216.915 135.124 C 216.915 134.603,216.781 134.093,216.617 133.992 C 216.453 133.890,216.318 134.400,216.318 135.124 M160.197 192.241 C 159.799 192.680,159.588 193.154,159.728 193.293 C 159.867 193.433,160.094 193.252,160.232 192.893 C 160.799 191.416,162.718 192.091,163.182 193.930 C 163.417 194.861,163.782 196.033,163.994 196.536 C 164.205 197.039,164.379 197.755,164.380 198.128 C 164.384 199.207,165.270 202.037,165.448 201.537 C 165.536 201.288,165.139 199.228,164.565 196.960 C 163.251 191.769,161.923 190.334,160.197 192.241 M239.116 191.866 C 238.467 192.245,237.207 195.647,237.220 196.988 C 237.231 198.113,237.943 196.601,238.234 194.834 C 238.641 192.368,240.174 191.378,241.512 192.716 C 241.868 193.072,241.990 193.075,241.990 192.730 C 241.990 191.749,240.227 191.219,239.116 191.866 M159.602 194.150 C 159.602 195.070,162.148 204.700,162.284 204.293 C 162.361 204.061,162.139 202.731,161.789 201.338 C 161.440 199.945,160.914 197.766,160.622 196.496 C 160.123 194.331,159.602 193.132,159.602 194.150 M241.244 195.681 C 240.634 198.021,240.285 200.199,240.521 200.199 C 240.810 200.199,242.070 194.574,241.833 194.338 C 241.729 194.234,241.464 194.838,241.244 195.681 M235.911 201.824 C 234.229 208.408,234.271 208.002,235.189 208.921 C 236.157 209.889,237.314 209.993,237.993 209.174 C 238.465 208.606,240.398 202.094,240.398 201.074 C 240.398 199.764,239.648 201.200,239.404 202.978 C 238.907 206.590,237.922 208.739,236.698 208.882 C 234.853 209.098,234.840 207.999,236.607 201.050 C 236.961 199.657,237.188 198.329,237.111 198.098 C 237.034 197.867,236.494 199.544,235.911 201.824 M165.821 203.881 C 166.515 207.565,166.308 208.756,164.975 208.756 C 163.903 208.756,163.740 208.586,163.380 207.095 C 162.851 204.902,162.198 204.311,162.570 206.361 C 163.138 209.498,164.843 210.657,166.480 209.020 C 167.310 208.190,167.311 208.166,166.609 205.187 C 165.856 201.992,165.288 201.051,165.821 203.881 M130.636 233.455 C 128.239 235.134,128.392 235.279,140.722 243.028 C 153.822 251.259,153.511 251.127,154.525 248.902 C 155.237 247.338,156.061 247.932,134.629 234.538 C 131.511 232.589,131.771 232.660,130.636 233.455 M264.779 235.952 C 245.384 248.101,247.035 246.912,247.235 248.590 C 247.409 250.049,248.713 250.496,250.250 249.624 C 251.319 249.017,254.952 246.772,265.870 239.971 C 272.185 236.036,273.110 234.882,271.144 233.390 C 270.123 232.615,270.079 232.633,264.779 235.952 M187.463 239.093 C 186.915 239.191,186.311 239.421,186.120 239.605 C 185.930 239.788,186.422 239.792,187.215 239.613 C 188.008 239.434,189.323 239.438,190.138 239.622 C 190.953 239.806,191.686 239.889,191.767 239.808 C 191.921 239.655,189.010 238.770,188.657 238.862 C 188.547 238.891,188.010 238.995,187.463 239.093 M211.940 239.091 C 210.236 239.498,210.690 239.796,212.854 239.690 C 215.781 239.547,216.442 239.946,215.792 241.464 C 215.347 242.501,215.357 242.528,215.914 241.814 C 217.325 240.008,214.940 238.374,211.940 239.091 M198.469 239.502 C 198.367 239.667,199.503 239.801,200.993 239.801 C 202.483 239.801,203.620 239.667,203.519 239.502 C 203.419 239.338,202.283 239.204,200.995 239.204 C 199.707 239.204,198.571 239.338,198.469 239.502 M204.753 240.610 C 205.178 240.931,205.704 241.194,205.923 241.194 C 206.142 241.194,205.974 240.931,205.549 240.610 C 205.124 240.288,204.597 240.025,204.378 240.025 C 204.159 240.025,204.328 240.288,204.753 240.610 M181.692 242.786 C 182.031 243.443,182.399 243.980,182.508 243.980 C 182.617 243.980,182.429 243.443,182.090 242.786 C 181.750 242.129,181.383 241.592,181.273 241.592 C 181.164 241.592,181.352 242.129,181.692 242.786 M186.468 243.184 C 186.807 243.841,187.175 244.378,187.284 244.378 C 187.394 244.378,187.205 243.841,186.866 243.184 C 186.526 242.527,186.159 241.990,186.049 241.990 C 185.940 241.990,186.128 242.527,186.468 243.184 M217.910 245.572 C 217.571 246.229,217.383 246.766,217.492 246.766 C 217.601 246.766,217.969 246.229,218.308 245.572 C 218.648 244.915,218.836 244.378,218.727 244.378 C 218.617 244.378,218.250 244.915,217.910 245.572 M212.436 247.243 C 210.465 250.808,210.098 251.542,210.292 251.542 C 210.564 251.542,214.156 245.069,213.981 244.893 C 213.894 244.806,213.199 245.864,212.436 247.243 M184.478 247.562 C 184.817 248.219,185.185 248.756,185.294 248.756 C 185.404 248.756,185.215 248.219,184.876 247.562 C 184.536 246.905,184.169 246.368,184.059 246.368 C 183.950 246.368,184.138 246.905,184.478 247.562 M188.968 247.465 C 189.433 248.604,195.499 259.104,195.691 259.104 C 195.788 259.104,195.794 258.970,195.705 258.806 C 191.038 250.277,188.088 245.310,188.968 247.465 M216.318 248.358 C 215.979 249.015,215.791 249.552,215.900 249.552 C 216.009 249.552,216.377 249.015,216.716 248.358 C 217.056 247.701,217.244 247.164,217.135 247.164 C 217.025 247.164,216.658 247.701,216.318 248.358 M186.070 250.348 C 186.409 251.005,186.777 251.542,186.886 251.542 C 186.996 251.542,186.807 251.005,186.468 250.348 C 186.128 249.692,185.761 249.154,185.651 249.154 C 185.542 249.154,185.730 249.692,186.070 250.348 M213.660 253.026 C 211.759 256.427,211.430 257.132,212.032 256.517 C 212.575 255.962,215.822 249.950,215.578 249.950 C 215.469 249.950,214.605 251.334,213.660 253.026 M187.662 253.134 C 188.001 253.791,188.369 254.328,188.478 254.328 C 188.588 254.328,188.399 253.791,188.060 253.134 C 187.720 252.478,187.353 251.940,187.243 251.940 C 187.134 251.940,187.322 252.478,187.662 253.134 M209.154 253.134 C 208.815 253.791,208.626 254.328,208.736 254.328 C 208.845 254.328,209.213 253.791,209.552 253.134 C 209.892 252.478,210.080 251.940,209.971 251.940 C 209.861 251.940,209.494 252.478,209.154 253.134 M189.625 256.617 C 190.881 259.038,192.608 261.782,192.624 261.384 C 192.639 261.022,189.018 254.726,188.795 254.726 C 188.712 254.726,189.085 255.577,189.625 256.617 M207.562 255.920 C 207.223 256.577,207.034 257.114,207.144 257.114 C 207.253 257.114,207.621 256.577,207.960 255.920 C 208.300 255.264,208.488 254.726,208.379 254.726 C 208.269 254.726,207.902 255.264,207.562 255.920 M210.746 258.308 C 210.407 258.965,210.218 259.502,210.328 259.502 C 210.437 259.502,210.805 258.965,211.144 258.308 C 211.484 257.652,211.672 257.114,211.563 257.114 C 211.453 257.114,211.086 257.652,210.746 258.308 M205.970 258.706 C 205.631 259.363,205.442 259.900,205.552 259.900 C 205.661 259.900,206.029 259.363,206.368 258.706 C 206.708 258.050,206.896 257.512,206.787 257.512 C 206.677 257.512,206.310 258.050,205.970 258.706 M196.168 260.000 C 196.638 260.599,197.335 260.685,201.143 260.612 L 205.572 260.527 201.218 260.399 C 198.600 260.321,196.616 260.077,196.243 259.787 C 195.696 259.362,195.688 259.387,196.168 260.000 M207.960 263.085 C 207.621 263.741,207.432 264.279,207.542 264.279 C 207.651 264.279,208.019 263.741,208.358 263.085 C 208.698 262.428,208.886 261.891,208.777 261.891 C 208.667 261.891,208.300 262.428,207.960 263.085 M194.428 265.075 C 194.767 265.731,195.135 266.269,195.244 266.269 C 195.354 266.269,195.165 265.731,194.826 265.075 C 194.486 264.418,194.119 263.881,194.009 263.881 C 193.900 263.881,194.088 264.418,194.428 265.075 M206.368 265.871 C 206.029 266.527,205.840 267.065,205.950 267.065 C 206.059 267.065,206.427 266.527,206.766 265.871 C 207.106 265.214,207.294 264.677,207.185 264.677 C 207.075 264.677,206.708 265.214,206.368 265.871 M196.020 267.861 C 196.360 268.517,196.727 269.055,196.836 269.055 C 196.946 269.055,196.758 268.517,196.418 267.861 C 196.078 267.204,195.711 266.667,195.601 266.667 C 195.492 266.667,195.680 267.204,196.020 267.861 M204.776 268.657 C 204.437 269.313,204.248 269.851,204.358 269.851 C 204.467 269.851,204.835 269.313,205.174 268.657 C 205.514 268.000,205.702 267.463,205.593 267.463 C 205.483 267.463,205.116 268.000,204.776 268.657 M197.612 270.647 C 197.952 271.303,198.319 271.841,198.428 271.841 C 198.538 271.841,198.350 271.303,198.010 270.647 C 197.670 269.990,197.303 269.453,197.193 269.453 C 197.084 269.453,197.272 269.990,197.612 270.647 M203.178 271.454 C 202.122 273.497,200.962 273.433,239.028 273.433 L 275.025 273.433 275.025 275.225 L 275.025 277.017 200.896 276.916 L 126.766 276.816 126.644 275.126 L 126.522 273.437 162.664 273.333 L 198.806 273.230 162.488 273.132 L 126.169 273.035 126.169 275.017 C 126.169 276.744,126.285 277.028,127.065 277.216 C 127.557 277.334,161.095 277.383,201.592 277.323 L 275.224 277.214 275.344 275.124 L 275.464 273.035 239.225 273.035 C 219.293 273.035,202.985 272.936,202.985 272.816 C 202.985 272.696,203.258 272.069,203.592 271.423 C 203.926 270.777,204.110 270.249,204.001 270.249 C 203.891 270.249,203.521 270.791,203.178 271.454 M175.124 286.567 L 175.124 288.557 203.582 288.557 L 232.040 288.557 232.040 286.567 C 232.040 285.473,231.904 284.577,231.738 284.577 C 231.573 284.577,231.501 285.383,231.579 286.368 L 231.722 288.159 203.582 288.159 L 175.442 288.159 175.585 286.368 C 175.663 285.383,175.592 284.577,175.426 284.577 C 175.260 284.577,175.124 285.473,175.124 286.567 M177.796 303.133 C 176.830 304.099,177.533 305.672,178.931 305.672 C 180.291 305.672,180.344 305.619,180.224 304.378 C 180.101 303.102,178.598 302.331,177.796 303.133 M269.726 303.143 C 269.576 303.293,269.453 304.391,269.453 305.582 C 269.453 307.426,269.356 307.710,268.799 307.496 C 268.255 307.287,268.229 307.346,268.646 307.847 C 269.470 308.841,269.851 308.146,269.851 305.648 C 269.851 304.337,270.028 303.284,270.249 303.284 C 270.498 303.284,270.647 305.804,270.647 310.050 C 270.647 316.471,270.519 317.282,269.632 316.470 C 269.413 316.269,268.584 316.447,267.662 316.893 C 266.355 317.525,266.283 317.610,267.264 317.370 C 267.920 317.209,269.044 317.108,269.760 317.146 L 271.063 317.215 270.954 310.183 C 270.852 303.582,270.620 302.249,269.726 303.143 M127.996 303.781 C 129.260 306.016,131.910 310.014,132.040 309.884 C 132.129 309.795,131.382 308.477,130.380 306.955 C 128.326 303.838,128.274 303.682,129.280 303.682 C 129.708 303.682,130.365 304.326,130.891 305.262 C 131.379 306.131,131.994 306.975,132.258 307.137 C 132.521 307.299,132.452 306.991,132.105 306.452 C 131.758 305.913,131.155 304.980,130.766 304.378 C 130.030 303.241,127.365 302.667,127.996 303.781 M137.267 304.166 C 137.007 304.652,136.169 306.027,135.404 307.223 L 134.014 309.397 133.275 308.485 C 132.312 307.296,132.330 307.966,133.295 309.221 L 134.035 310.184 135.013 308.624 C 135.552 307.766,136.423 306.312,136.950 305.391 C 137.681 304.113,138.190 303.681,139.103 303.564 L 140.299 303.411 139.019 303.347 C 138.066 303.300,137.619 303.509,137.267 304.166 M179.900 304.279 C 179.900 305.075,179.701 305.274,178.905 305.274 C 178.109 305.274,177.910 305.075,177.910 304.279 C 177.910 303.483,178.109 303.284,178.905 303.284 C 179.701 303.284,179.900 303.483,179.900 304.279 M137.825 306.567 C 135.648 309.400,134.527 312.055,134.527 314.380 C 134.527 316.280,134.396 316.816,133.930 316.816 C 133.458 316.816,133.333 316.246,133.333 314.079 C 133.333 312.010,133.172 311.208,132.671 310.795 C 132.073 310.301,132.053 310.332,132.472 311.118 C 132.727 311.596,132.935 313.163,132.935 314.601 C 132.935 317.123,132.970 317.214,133.930 317.214 C 134.892 317.214,134.925 317.125,134.925 314.571 C 134.925 311.885,135.140 311.355,138.013 306.965 C 138.629 306.024,138.481 305.712,137.825 306.567 M141.890 307.019 C 140.604 307.580,139.449 308.735,139.812 309.098 C 139.934 309.221,140.227 308.963,140.462 308.524 C 140.997 307.524,143.377 306.709,144.797 307.039 C 145.597 307.225,145.719 307.185,145.274 306.884 C 144.475 306.343,143.337 306.389,141.890 307.019 M167.684 307.492 L 166.567 308.516 167.830 307.639 C 168.874 306.914,169.479 306.794,171.329 306.947 C 172.571 307.050,173.338 306.988,173.052 306.806 C 171.861 306.050,168.834 306.437,167.684 307.492 M184.950 306.745 C 184.830 306.939,185.323 307.028,186.045 306.944 C 186.771 306.859,187.915 307.079,188.604 307.436 C 189.302 307.797,189.851 307.901,189.851 307.672 C 189.851 307.447,190.299 307.264,190.846 307.264 L 191.841 307.264 191.841 313.061 C 191.841 316.313,191.656 319.240,191.421 319.728 C 191.015 320.567,191.022 320.571,191.620 319.824 C 192.119 319.201,192.239 317.873,192.239 312.946 L 192.239 306.841 190.348 306.872 C 189.308 306.890,187.717 306.789,186.813 306.649 C 185.908 306.508,185.070 306.551,184.950 306.745 M198.867 306.766 C 198.766 306.930,199.544 307.065,200.597 307.065 C 201.650 307.065,202.428 306.930,202.327 306.766 C 202.225 306.602,201.447 306.468,200.597 306.468 C 199.747 306.468,198.969 306.602,198.867 306.766 M227.924 306.766 C 227.823 306.930,228.603 307.066,229.657 307.067 C 230.710 307.068,231.364 306.936,231.110 306.774 C 230.504 306.389,228.159 306.383,227.924 306.766 M243.781 306.836 C 243.263 307.039,243.818 307.144,245.373 307.137 C 247.029 307.129,247.456 307.037,246.766 306.836 C 245.460 306.457,244.749 306.456,243.781 306.836 M150.630 307.362 C 150.513 307.667,150.476 309.696,150.548 311.869 L 150.679 315.821 150.762 311.542 C 150.873 305.878,151.924 305.200,152.148 310.648 L 152.288 314.032 152.263 310.553 C 152.239 307.162,151.364 305.451,150.630 307.362 M177.512 312.040 L 177.512 317.214 178.905 317.214 L 180.299 317.214 180.299 312.040 L 180.299 306.866 178.905 306.866 L 177.512 306.866 177.512 312.040 M194.627 312.040 L 194.627 317.214 196.119 317.150 C 197.589 317.088,197.592 317.084,196.318 316.926 L 195.025 316.765 195.025 312.015 L 195.025 307.264 196.219 307.264 C 196.876 307.264,197.413 307.443,197.413 307.662 C 197.413 307.881,197.614 308.060,197.860 308.060 C 198.168 308.060,198.153 307.875,197.811 307.463 C 197.538 307.134,196.711 306.866,195.971 306.866 L 194.627 306.866 194.627 312.040 M211.747 310.746 C 211.751 312.881,211.901 314.859,212.081 315.143 C 212.261 315.427,212.324 313.770,212.222 311.461 L 212.035 307.264 213.281 307.264 L 214.527 307.264 214.527 310.837 C 214.527 314.209,214.583 314.446,215.522 315.061 C 216.593 315.763,218.507 315.047,218.507 313.945 C 218.507 313.689,218.275 313.798,217.990 314.187 C 217.646 314.657,217.080 314.849,216.299 314.761 L 215.124 314.627 215.010 310.746 L 214.897 306.866 213.319 306.866 L 211.741 306.866 211.747 310.746 M219.602 307.154 L 220.896 307.314 220.896 312.065 L 220.896 316.816 219.934 316.816 C 219.405 316.816,218.912 316.642,218.839 316.430 C 218.761 316.204,217.957 316.314,216.894 316.697 C 215.214 317.303,214.987 317.303,213.770 316.696 C 212.779 316.202,212.572 316.179,212.923 316.602 C 213.676 317.510,215.509 317.711,217.073 317.058 C 217.862 316.728,218.507 316.628,218.507 316.836 C 218.507 317.044,219.134 317.214,219.900 317.214 L 221.294 317.214 221.294 312.040 L 221.294 306.866 219.801 306.929 C 218.332 306.992,218.328 306.996,219.602 307.154 M223.858 307.378 C 223.750 307.659,223.711 310.928,223.771 314.641 L 223.881 321.393 225.075 321.393 C 226.251 321.393,226.270 321.359,226.389 319.070 C 226.493 317.070,226.603 316.784,227.185 317.014 C 227.557 317.161,228.488 317.353,229.254 317.440 L 230.647 317.598 229.356 317.258 C 228.646 317.071,227.803 316.700,227.483 316.434 C 226.523 315.638,226.070 316.342,226.070 318.630 C 226.070 320.675,226.014 320.796,225.075 320.796 L 224.080 320.796 224.080 314.030 L 224.080 307.264 225.075 307.264 C 225.622 307.264,226.070 307.443,226.070 307.662 C 226.070 307.881,226.338 308.060,226.667 308.060 C 226.995 308.060,227.264 307.870,227.264 307.638 C 227.264 307.406,227.085 307.327,226.866 307.463 C 226.647 307.598,226.468 307.519,226.468 307.287 C 226.468 306.683,224.093 306.765,223.858 307.378 M251.940 312.040 C 251.940 317.154,251.951 317.213,252.836 317.168 C 253.510 317.133,253.559 317.077,253.035 316.940 C 252.421 316.779,252.338 316.198,252.338 312.040 C 252.338 307.881,252.421 307.300,253.035 307.140 C 253.559 307.003,253.510 306.947,252.836 306.912 C 251.951 306.866,251.940 306.926,251.940 312.040 M256.025 307.151 C 256.630 307.243,257.526 307.240,258.015 307.146 C 258.505 307.051,258.010 306.977,256.915 306.980 C 255.821 306.982,255.420 307.060,256.025 307.151 M265.373 307.147 C 265.866 307.241,266.672 307.241,267.164 307.147 C 267.657 307.052,267.254 306.974,266.269 306.974 C 265.284 306.974,264.881 307.052,265.373 307.147 M146.845 308.237 C 147.980 309.445,148.233 309.526,147.687 308.505 C 147.466 308.092,146.972 307.635,146.588 307.487 C 146.067 307.288,146.133 307.479,146.845 308.237 M174.263 307.934 C 175.155 309.609,173.566 310.534,172.338 309.055 C 171.679 308.261,169.596 308.279,169.288 309.081 C 169.156 309.425,169.241 309.898,169.477 310.134 C 169.783 310.440,169.842 310.319,169.683 309.709 C 169.408 308.660,171.797 308.417,172.194 309.453 C 172.336 309.821,172.941 310.050,173.774 310.050 C 175.314 310.050,175.711 308.641,174.462 307.611 C 173.864 307.117,173.845 307.148,174.263 307.934 M179.900 312.040 L 179.900 316.816 178.905 316.816 L 177.910 316.816 177.910 312.040 L 177.910 307.264 178.905 307.264 L 179.900 307.264 179.900 312.040 M183.239 308.271 C 182.876 308.825,182.651 309.351,182.740 309.439 C 182.828 309.528,183.202 309.075,183.571 308.432 C 184.392 307.001,184.149 306.883,183.239 308.271 M247.986 307.463 C 247.986 307.682,248.248 308.208,248.570 308.633 C 248.891 309.058,249.154 309.227,249.154 309.008 C 249.154 308.789,248.891 308.262,248.570 307.837 C 248.248 307.412,247.986 307.244,247.986 307.463 M259.559 308.602 C 259.840 309.229,260.142 309.525,260.230 309.260 C 260.319 308.995,260.089 308.482,259.719 308.120 C 259.091 307.505,259.081 307.535,259.559 308.602 M141.853 308.955 C 141.095 309.850,141.095 309.850,141.922 309.154 C 143.106 308.157,145.084 308.252,145.848 309.342 C 146.189 309.829,146.468 310.036,146.468 309.802 C 146.468 308.116,143.088 307.496,141.853 308.955 M243.440 308.366 C 243.336 308.534,243.984 308.602,244.879 308.516 C 246.114 308.398,246.634 308.535,247.035 309.082 C 247.325 309.479,247.562 309.626,247.562 309.409 C 247.562 308.304,244.031 307.410,243.440 308.366 M255.368 308.386 C 255.257 308.565,255.660 308.639,256.263 308.551 C 257.904 308.310,258.265 309.105,258.392 313.255 C 258.502 316.844,258.548 317.017,259.409 317.068 C 260.159 317.112,260.176 317.091,259.509 316.941 C 258.775 316.776,258.706 316.445,258.706 313.069 C 258.706 309.998,258.584 309.266,257.979 308.718 C 257.212 308.025,255.709 307.833,255.368 308.386 M264.646 309.088 C 262.978 310.865,263.638 316.020,265.534 316.020 C 265.719 316.020,265.522 315.672,265.097 315.246 C 262.369 312.518,264.806 307.192,267.959 308.990 L 269.242 309.722 268.490 308.891 C 267.457 307.750,265.824 307.833,264.646 309.088 M166.460 310.050 C 166.460 310.816,166.542 311.129,166.643 310.746 C 166.743 310.363,166.743 309.736,166.643 309.353 C 166.542 308.970,166.460 309.284,166.460 310.050 M197.800 309.673 C 197.559 310.122,197.443 310.794,197.541 311.165 C 197.672 311.664,197.731 311.614,197.765 310.974 C 197.790 310.497,198.092 309.825,198.436 309.481 C 198.780 309.137,198.876 308.856,198.649 308.856 C 198.423 308.856,198.040 309.223,197.800 309.673 M227.109 309.466 C 226.006 310.568,225.956 314.826,227.045 314.826 C 227.154 314.826,227.057 314.335,226.829 313.735 C 226.264 312.249,226.714 310.201,227.766 309.464 C 228.244 309.130,228.429 308.856,228.177 308.856 C 227.925 308.856,227.444 309.130,227.109 309.466 M229.254 309.132 C 231.762 310.028,231.333 314.813,228.742 314.838 C 227.687 314.848,227.584 314.921,228.154 315.253 C 228.985 315.737,230.232 315.176,230.837 314.047 C 231.834 312.183,230.851 308.816,229.331 308.887 C 228.786 308.913,228.771 308.959,229.254 309.132 M253.919 309.673 C 253.679 310.122,253.538 310.760,253.607 311.091 C 253.675 311.422,253.929 311.054,254.169 310.274 C 254.662 308.680,254.569 308.458,253.919 309.673 M262.263 309.919 C 262.040 310.504,261.917 311.265,261.989 311.610 C 262.062 311.956,262.318 311.478,262.560 310.547 C 263.052 308.654,262.881 308.292,262.263 309.919 M233.431 312.044 C 233.431 313.535,233.562 314.547,233.724 314.293 C 234.104 313.695,234.105 310.386,233.725 309.791 C 233.564 309.539,233.432 310.553,233.431 312.044 M182.408 312.040 C 182.408 313.244,182.482 313.736,182.574 313.134 C 182.665 312.532,182.665 311.547,182.574 310.945 C 182.482 310.343,182.408 310.836,182.408 312.040 M246.939 310.419 C 246.734 310.615,245.761 310.965,244.776 311.196 L 242.985 311.616 244.975 311.397 C 246.859 311.190,247.949 310.702,247.509 310.262 C 247.400 310.153,247.143 310.223,246.939 310.419 M269.224 311.991 C 269.241 313.070,269.385 313.746,269.546 313.493 C 269.935 312.883,269.918 311.171,269.517 310.538 C 269.330 310.243,269.207 310.852,269.224 311.991 M146.568 311.841 C 146.572 312.716,146.654 313.028,146.749 312.533 C 146.844 312.038,146.841 311.321,146.741 310.941 C 146.642 310.560,146.564 310.965,146.568 311.841 M170.945 310.785 C 172.176 311.312,174.239 311.718,173.532 311.295 C 173.204 311.098,172.308 310.826,171.542 310.690 C 170.603 310.524,170.408 310.555,170.945 310.785 M184.942 310.713 C 184.572 311.083,184.621 312.531,185.026 313.170 C 185.243 313.511,185.364 313.119,185.364 312.075 C 185.364 310.342,185.352 310.303,184.942 310.713 M139.006 312.239 C 139.010 313.114,139.092 313.426,139.187 312.931 C 139.282 312.436,139.279 311.719,139.179 311.339 C 139.079 310.958,139.001 311.363,139.006 312.239 M189.545 312.040 C 189.545 312.806,189.627 313.119,189.727 312.736 C 189.827 312.353,189.827 311.726,189.727 311.343 C 189.627 310.960,189.545 311.274,189.545 312.040 M167.374 312.179 C 167.806 312.475,168.697 312.827,169.353 312.962 C 170.381 313.173,170.326 313.102,168.955 312.454 C 167.070 311.562,166.270 311.423,167.374 312.179 M241.192 312.730 C 240.039 314.196,240.650 317.214,242.100 317.214 C 242.326 317.214,242.185 316.853,241.786 316.413 C 241.388 315.972,241.061 315.079,241.061 314.428 C 241.061 313.777,241.388 312.884,241.786 312.443 C 242.185 312.002,242.407 311.642,242.280 311.642 C 242.152 311.642,241.663 312.132,241.192 312.730 M244.975 312.305 C 242.272 312.894,241.227 316.081,243.761 316.008 C 243.991 316.001,243.866 315.813,243.483 315.590 C 241.814 314.618,242.852 313.086,245.446 312.691 C 247.033 312.449,247.119 312.488,247.277 313.532 C 247.432 314.552,247.447 314.538,247.503 313.333 C 247.565 311.981,247.182 311.825,244.975 312.305 M262.040 313.619 C 262.185 314.379,262.473 315.169,262.680 315.377 C 262.894 315.590,262.873 315.080,262.631 314.195 C 262.085 312.198,261.696 311.819,262.040 313.619 M171.892 313.882 C 172.617 314.390,172.701 314.604,172.279 314.871 C 171.286 315.500,169.600 315.262,169.154 314.428 C 168.874 313.904,168.321 313.632,167.536 313.632 C 166.257 313.632,165.559 314.573,166.293 315.308 C 166.599 315.614,166.658 315.493,166.498 314.883 C 166.190 313.705,168.332 313.657,169.062 314.826 C 169.651 315.770,171.989 315.925,172.701 315.067 C 173.199 314.468,172.340 313.234,171.425 313.234 C 171.173 313.234,171.383 313.525,171.892 313.882 M145.559 315.056 C 145.025 315.771,144.993 315.950,145.429 315.783 C 145.747 315.660,146.116 315.280,146.247 314.937 C 146.619 313.967,146.337 314.016,145.559 315.056 M186.046 314.605 C 186.471 314.945,187.098 315.210,187.439 315.192 C 187.975 315.165,187.978 315.131,187.463 314.940 C 187.134 314.818,186.507 314.554,186.070 314.352 C 185.286 313.992,185.286 313.996,186.046 314.605 M182.687 314.662 C 182.687 316.453,186.676 317.876,188.683 316.802 C 189.583 316.320,189.736 317.077,189.033 318.534 C 188.627 319.373,188.634 319.377,189.232 318.630 C 190.125 317.515,190.070 315.837,189.154 316.244 C 187.086 317.163,185.100 316.928,183.879 315.620 C 183.223 314.918,182.687 314.487,182.687 314.662 M147.390 315.469 C 147.254 315.823,146.409 316.462,145.512 316.890 C 144.158 317.534,144.084 317.622,145.072 317.408 C 146.551 317.088,148.995 314.826,147.862 314.826 C 147.738 314.826,147.526 315.115,147.390 315.469 M174.254 316.107 C 173.666 316.716,173.322 317.214,173.488 317.214 C 173.866 317.214,175.720 315.269,175.491 315.114 C 175.399 315.051,174.842 315.498,174.254 316.107 M139.714 315.461 C 139.694 316.154,140.989 317.130,142.289 317.402 C 143.465 317.648,143.462 317.642,142.129 317.029 C 141.385 316.686,140.540 316.095,140.251 315.715 C 139.963 315.336,139.721 315.221,139.714 315.461 M231.918 316.231 C 231.304 316.772,230.957 317.214,231.147 317.214 C 231.510 317.214,233.234 315.722,233.234 315.407 C 233.234 315.110,233.092 315.199,231.918 316.231 M151.233 316.603 C 152.005 317.534,154.213 317.777,155.600 317.086 C 156.269 316.752,156.816 316.644,156.816 316.846 C 156.816 317.049,157.219 317.200,157.711 317.183 C 158.310 317.162,158.409 317.076,158.010 316.924 C 157.682 316.799,157.302 316.527,157.167 316.321 C 157.023 316.099,156.417 316.206,155.694 316.579 C 154.170 317.367,153.352 317.374,151.889 316.612 C 150.889 316.090,150.806 316.089,151.233 316.603 M167.225 316.635 C 167.586 317.004,168.099 317.234,168.364 317.146 C 168.629 317.057,168.334 316.755,167.707 316.474 C 166.640 315.996,166.609 316.006,167.225 316.635 M202.094 317.097 C 202.589 317.193,203.306 317.189,203.686 317.089 C 204.067 316.990,203.662 316.912,202.786 316.916 C 201.910 316.921,201.599 317.002,202.094 317.097 M243.284 317.488 C 243.667 317.588,244.294 317.588,244.677 317.488 C 245.060 317.388,244.746 317.306,243.980 317.306 C 243.214 317.306,242.900 317.388,243.284 317.488 M183.881 318.304 C 184.647 318.395,185.572 318.739,185.937 319.068 C 186.302 319.397,187.019 319.586,187.529 319.489 C 188.402 319.323,188.395 319.309,187.412 319.258 C 186.837 319.228,186.143 318.935,185.871 318.607 C 185.574 318.249,184.796 318.035,183.931 318.074 L 182.488 318.137 183.881 318.304 M184.249 320.925 C 184.852 321.529,189.667 321.537,190.269 320.935 C 190.614 320.590,190.267 320.576,188.861 320.875 C 187.604 321.143,186.471 321.140,185.388 320.865 C 184.156 320.553,183.890 320.567,184.249 320.925 M119.977 326.881 C 119.869 327.163,119.835 330.342,119.901 333.946 L 120.021 340.498 120.110 333.632 C 120.185 327.834,120.292 326.766,120.796 326.766 C 121.252 326.766,121.393 327.267,121.393 328.889 C 121.393 330.056,121.500 331.119,121.631 331.250 C 121.945 331.564,122.985 331.154,122.985 330.716 C 122.985 330.528,122.716 330.476,122.388 330.602 C 121.901 330.789,121.791 330.420,121.791 328.600 C 121.791 326.395,120.598 325.264,119.977 326.881 M253.622 333.433 L 253.711 340.498 253.830 333.632 C 253.930 327.897,254.046 326.766,254.537 326.766 C 254.990 326.766,255.124 327.314,255.124 329.154 C 255.124 331.676,255.298 331.898,256.541 330.958 C 256.966 330.637,257.851 330.341,258.507 330.301 L 259.701 330.229 258.581 330.061 C 257.956 329.967,257.032 330.173,256.492 330.528 L 255.522 331.163 255.522 328.765 C 255.522 326.474,255.479 326.368,254.527 326.368 L 253.532 326.368 253.622 333.433 M145.179 330.232 C 145.674 330.327,146.390 330.323,146.771 330.224 C 147.151 330.124,146.746 330.046,145.871 330.051 C 144.995 330.055,144.684 330.137,145.179 330.232 M154.731 330.232 C 155.226 330.327,155.943 330.323,156.323 330.224 C 156.704 330.124,156.299 330.046,155.423 330.051 C 154.547 330.055,154.236 330.137,154.731 330.232 M172.040 330.225 C 172.423 330.325,173.050 330.325,173.433 330.225 C 173.816 330.124,173.502 330.043,172.736 330.043 C 171.970 330.043,171.657 330.124,172.040 330.225 M197.910 330.225 C 198.294 330.325,198.920 330.325,199.303 330.225 C 199.687 330.124,199.373 330.043,198.607 330.043 C 197.841 330.043,197.527 330.124,197.910 330.225 M220.597 330.225 C 220.980 330.325,221.607 330.325,221.990 330.225 C 222.373 330.124,222.060 330.043,221.294 330.043 C 220.527 330.043,220.214 330.124,220.597 330.225 M127.566 331.619 C 128.544 332.782,128.625 333.130,128.486 335.582 C 128.403 337.061,128.471 338.056,128.639 337.792 C 129.662 336.183,128.553 331.135,127.049 330.558 C 126.744 330.441,126.976 330.918,127.566 331.619 M131.863 331.309 C 131.249 331.838,130.836 332.355,130.945 332.458 C 131.055 332.561,131.648 332.128,132.264 331.497 C 133.625 330.100,133.394 329.992,131.863 331.309 M137.592 331.018 C 138.520 331.786,139.303 333.487,139.303 334.737 C 139.303 335.411,138.934 335.504,135.821 335.606 C 132.520 335.715,132.336 335.768,132.285 336.623 C 132.241 337.373,132.263 337.390,132.413 336.723 C 132.577 335.992,132.909 335.920,136.147 335.920 C 139.685 335.920,139.701 335.916,139.701 334.913 C 139.701 333.343,138.670 331.255,137.646 330.752 L 136.716 330.295 137.592 331.018 M142.340 331.554 C 140.473 333.772,140.476 337.385,142.345 339.401 L 143.361 340.498 142.554 339.384 C 140.906 337.112,140.997 333.623,142.759 331.528 C 143.305 330.879,143.663 330.348,143.553 330.348 C 143.444 330.348,142.898 330.891,142.340 331.554 M148.528 331.491 C 149.037 332.118,149.512 332.581,149.584 332.519 C 149.863 332.282,148.847 330.828,148.241 330.595 C 147.791 330.423,147.875 330.686,148.528 331.491 M152.352 331.045 C 151.519 331.999,150.739 333.559,150.976 333.795 C 151.083 333.903,151.298 333.591,151.453 333.102 C 151.608 332.614,152.188 331.794,152.741 331.281 C 153.295 330.768,153.571 330.348,153.354 330.348 C 153.137 330.348,152.686 330.662,152.352 331.045 M179.806 330.775 C 179.425 330.997,178.910 331.574,178.660 332.057 C 178.285 332.780,178.425 332.729,179.451 331.766 C 181.022 330.292,181.123 330.008,179.806 330.775 M185.062 331.085 C 185.602 331.520,186.275 332.472,186.558 333.201 C 187.056 334.487,187.065 334.491,186.837 333.336 C 186.564 331.947,186.060 331.258,184.908 330.698 C 184.262 330.384,184.296 330.469,185.062 331.085 M195.423 331.144 C 194.378 332.189,194.370 333.532,195.409 333.532 C 195.839 333.532,196.381 333.176,196.614 332.741 C 197.570 330.955,200.853 331.486,200.493 333.369 C 200.392 333.896,200.464 334.328,200.652 334.328 C 201.285 334.328,201.003 332.233,200.299 331.698 C 199.219 330.879,197.871 331.048,196.780 332.139 C 196.232 332.687,195.614 333.134,195.405 333.134 C 194.721 333.134,195.006 331.989,195.896 331.160 C 196.375 330.713,196.644 330.348,196.493 330.348 C 196.342 330.348,195.861 330.706,195.423 331.144 M201.304 330.968 C 202.106 331.529,202.189 331.921,202.189 335.123 C 202.189 337.206,202.364 338.768,202.615 338.923 C 202.849 339.067,203.196 339.571,203.386 340.041 C 203.630 340.646,203.738 340.707,203.756 340.248 C 203.770 339.891,203.512 339.377,203.184 339.104 C 202.737 338.733,202.587 337.738,202.587 335.137 C 202.587 331.714,202.071 330.348,200.776 330.348 C 200.580 330.348,200.818 330.627,201.304 330.968 M210.702 335.323 C 210.703 338.169,210.766 339.281,210.843 337.794 C 210.920 336.308,210.919 333.979,210.842 332.620 C 210.764 331.261,210.701 332.478,210.702 335.323 M212.171 330.846 C 212.131 331.728,213.066 331.748,213.782 330.880 C 214.276 330.282,214.245 330.262,213.465 330.678 C 212.798 331.033,212.556 331.025,212.402 330.644 C 212.284 330.352,212.189 330.435,212.171 330.846 M217.263 330.881 C 217.966 331.732,218.669 331.720,219.354 330.846 C 219.855 330.208,219.839 330.197,219.172 330.722 C 218.555 331.207,218.310 331.213,217.580 330.758 C 216.793 330.268,216.765 330.279,217.263 330.881 M223.538 331.343 C 224.458 332.915,224.478 332.938,224.478 332.449 C 224.478 332.218,224.109 331.606,223.658 331.089 L 222.838 330.149 223.538 331.343 M227.841 331.402 C 226.548 332.797,225.934 335.130,226.418 336.808 C 226.757 337.983,226.797 337.868,226.830 335.636 C 226.861 333.463,227.016 332.991,228.101 331.755 C 229.527 330.131,229.302 329.825,227.841 331.402 M233.756 331.188 C 234.537 331.855,234.943 332.650,235.100 333.817 L 235.324 335.490 231.792 335.606 C 228.573 335.711,228.248 335.794,228.142 336.541 C 227.945 337.911,229.510 339.513,230.974 339.439 L 232.239 339.375 230.950 339.215 C 229.603 339.048,228.458 337.859,228.458 336.628 C 228.458 336.002,228.873 335.920,232.040 335.920 L 235.622 335.920 235.616 334.627 C 235.608 332.965,234.888 331.586,233.632 330.830 C 232.758 330.304,232.773 330.347,233.756 331.188 M237.767 335.323 C 237.767 338.169,237.831 339.281,237.907 337.794 C 237.984 336.308,237.984 333.979,237.906 332.620 C 237.829 331.261,237.766 332.478,237.767 335.323 M239.210 330.846 C 239.207 331.229,239.349 331.542,239.526 331.542 C 240.056 331.542,241.433 330.375,240.919 330.361 C 240.658 330.354,240.322 330.546,240.173 330.789 C 239.983 331.096,239.797 331.066,239.558 330.689 C 239.292 330.269,239.215 330.303,239.210 330.846 M244.327 330.846 C 245.013 331.720,245.716 331.732,246.419 330.880 C 246.916 330.278,246.882 330.262,246.044 330.709 C 245.305 331.103,244.991 331.096,244.452 330.674 C 243.850 330.203,243.837 330.220,244.327 330.846 M250.547 331.086 C 250.766 331.403,251.049 333.651,251.175 336.080 L 251.405 340.498 251.473 336.263 C 251.531 332.721,251.428 331.904,250.846 331.269 C 250.463 330.851,250.328 330.769,250.547 331.086 M266.174 330.775 C 265.794 330.997,265.291 331.574,265.058 332.057 C 264.662 332.875,264.673 332.885,265.220 332.207 C 265.542 331.806,266.134 331.230,266.535 330.926 C 267.385 330.282,267.173 330.193,266.174 330.775 M271.333 331.018 C 271.820 331.416,272.491 332.458,272.824 333.333 L 273.431 334.925 273.187 333.532 C 272.908 331.942,272.457 331.272,271.277 330.698 C 270.513 330.326,270.517 330.352,271.333 331.018 M275.578 335.323 C 275.578 338.169,275.642 339.281,275.718 337.794 C 275.795 336.308,275.795 333.979,275.717 332.620 C 275.640 331.261,275.577 332.478,275.578 335.323 M123.613 331.493 C 123.494 331.684,123.876 331.841,124.461 331.841 C 126.150 331.841,127.055 333.298,126.898 335.768 C 126.825 336.906,126.900 337.753,127.065 337.651 C 127.550 337.350,127.380 333.389,126.853 332.702 C 125.923 331.491,124.047 330.790,123.613 331.493 M133.632 331.770 C 133.030 332.097,132.537 332.542,132.537 332.761 C 132.537 332.979,133.041 332.786,133.656 332.331 C 134.917 331.398,136.504 331.698,137.269 333.013 C 137.499 333.408,137.693 333.520,137.699 333.263 C 137.737 331.798,135.257 330.888,133.632 331.770 M144.718 331.476 C 144.605 331.658,145.034 331.808,145.672 331.808 C 146.309 331.808,146.738 331.658,146.626 331.476 C 146.513 331.294,146.084 331.144,145.672 331.144 C 145.260 331.144,144.830 331.294,144.718 331.476 M154.019 331.808 C 153.478 332.174,153.005 332.487,152.968 332.506 C 152.931 332.524,152.788 333.076,152.649 333.732 L 152.398 334.925 152.983 333.663 C 153.649 332.224,154.953 331.379,156.061 331.668 C 156.477 331.777,156.717 331.704,156.594 331.505 C 156.247 330.944,155.100 331.079,154.019 331.808 M165.739 331.594 C 165.569 331.869,165.676 331.967,166.014 331.847 C 167.561 331.296,167.960 332.216,167.960 336.332 C 167.960 338.514,168.095 340.299,168.259 340.299 C 169.067 340.302,168.313 332.352,167.447 331.745 C 166.421 331.026,166.107 330.999,165.739 331.594 M181.733 331.476 C 181.620 331.658,182.064 331.808,182.720 331.808 C 183.491 331.808,183.731 331.693,183.399 331.482 C 182.733 331.060,181.991 331.057,181.733 331.476 M214.287 331.610 C 214.097 331.917,214.211 331.994,214.622 331.836 C 216.033 331.295,216.493 332.370,216.623 336.517 L 216.749 340.498 216.832 336.440 C 216.910 332.651,216.857 332.343,216.031 331.764 C 214.972 331.022,214.667 330.995,214.287 331.610 M230.275 331.500 C 230.154 331.696,230.457 331.846,230.948 331.834 C 231.439 331.822,232.199 331.943,232.637 332.103 C 233.141 332.287,233.068 332.170,232.438 331.783 C 231.296 331.082,230.590 330.990,230.275 331.500 M241.444 331.460 C 241.337 331.633,241.615 331.803,242.063 331.836 C 243.306 331.930,243.367 332.112,243.610 336.449 L 243.836 340.498 243.908 336.440 C 243.975 332.657,243.920 332.342,243.096 331.764 C 242.103 331.068,241.728 331.000,241.444 331.460 M257.287 331.585 C 257.107 331.876,257.280 331.941,257.798 331.777 C 260.167 331.025,261.777 335.766,260.019 338.319 C 259.391 339.231,259.391 339.264,260.012 338.763 C 260.885 338.059,261.515 335.735,261.226 334.288 C 260.802 332.168,258.081 330.301,257.287 331.585 M267.585 331.620 C 267.106 331.852,266.605 332.322,266.474 332.665 C 266.257 333.229,266.303 333.228,266.948 332.662 C 268.671 331.148,272.006 332.288,271.292 334.147 C 271.170 334.466,271.263 334.726,271.498 334.726 C 271.836 334.726,271.663 332.680,271.311 332.506 C 271.274 332.487,270.801 332.174,270.260 331.808 C 269.140 331.053,268.807 331.030,267.585 331.620 M122.052 332.668 C 121.375 333.416,121.095 337.281,121.692 337.651 C 121.856 337.752,121.928 336.952,121.851 335.873 C 121.757 334.538,121.919 333.595,122.358 332.925 C 123.119 331.763,122.978 331.645,122.052 332.668 M143.353 332.637 C 142.507 334.288,142.625 339.498,143.488 338.634 C 143.572 338.550,143.459 337.764,143.236 336.887 C 142.928 335.672,142.969 334.894,143.409 333.617 C 144.005 331.886,143.978 331.416,143.353 332.637 M157.536 332.537 C 157.738 332.975,158.002 333.602,158.124 333.930 C 158.315 334.446,158.349 334.443,158.377 333.907 C 158.394 333.566,158.129 332.939,157.789 332.514 C 157.180 331.754,157.176 331.754,157.536 332.537 M173.856 336.138 C 173.925 338.426,174.104 340.299,174.254 340.299 C 174.605 340.301,174.365 332.630,174.003 332.257 C 173.854 332.103,173.788 333.849,173.856 336.138 M175.671 336.119 C 175.672 338.527,175.738 339.461,175.817 338.194 C 175.896 336.928,175.895 334.958,175.815 333.816 C 175.735 332.675,175.670 333.711,175.671 336.119 M184.477 332.537 C 184.650 332.975,184.804 333.647,184.819 334.030 C 184.835 334.413,185.007 334.726,185.203 334.726 C 185.651 334.726,185.165 332.673,184.590 332.139 C 184.288 331.859,184.255 331.977,184.477 332.537 M222.485 336.237 L 222.682 340.498 222.799 336.553 C 222.863 334.383,222.775 332.466,222.602 332.292 C 222.430 332.119,222.377 333.894,222.485 336.237 M239.824 332.825 C 239.364 333.481,239.222 334.587,239.274 337.103 L 239.344 340.498 239.572 336.875 C 239.710 334.700,240.019 332.990,240.347 332.596 C 240.648 332.235,240.792 331.940,240.668 331.940 C 240.544 331.940,240.164 332.338,239.824 332.825 M245.571 332.739 C 245.326 333.196,245.200 335.028,245.276 337.018 L 245.408 340.498 245.490 336.947 C 245.552 334.287,245.737 333.213,246.231 332.668 C 246.602 332.258,246.695 331.940,246.444 331.940 C 246.199 331.940,245.806 332.300,245.571 332.739 M249.467 335.261 C 249.649 340.369,249.826 340.862,249.891 336.441 C 249.923 334.211,249.815 332.302,249.650 332.200 C 249.486 332.098,249.403 333.476,249.467 335.261 M255.744 332.825 C 254.150 335.101,255.658 339.558,257.991 339.467 C 258.748 339.437,258.694 339.369,257.679 339.074 C 255.649 338.485,254.747 334.817,256.142 332.825 C 256.483 332.338,256.672 331.940,256.563 331.940 C 256.453 331.940,256.085 332.338,255.744 332.825 M262.329 335.264 C 262.291 337.809,262.199 338.080,260.935 339.343 C 259.639 340.639,259.503 341.237,260.739 340.199 C 262.424 338.786,263.226 336.143,262.675 333.823 C 262.432 332.798,262.362 333.090,262.329 335.264 M177.760 334.428 C 177.628 335.139,177.667 336.259,177.846 336.915 C 178.107 337.875,178.172 337.621,178.174 335.622 C 178.176 332.802,178.101 332.585,177.760 334.428 M212.387 333.747 C 212.251 334.102,212.170 335.767,212.208 337.445 L 212.277 340.498 212.517 336.915 C 212.777 333.048,212.765 332.762,212.387 333.747 M277.184 333.667 C 277.071 333.960,277.034 335.617,277.101 337.349 L 277.222 340.498 277.417 336.815 C 277.611 333.152,277.574 332.650,277.184 333.667 M160.092 335.124 C 160.092 335.891,160.174 336.204,160.274 335.821 C 160.374 335.438,160.374 334.811,160.274 334.428 C 160.174 334.045,160.092 334.358,160.092 335.124 M218.249 337.114 C 218.249 338.975,218.317 339.736,218.401 338.806 C 218.485 337.876,218.485 336.353,218.401 335.423 C 218.317 334.493,218.249 335.254,218.249 337.114 M263.973 335.522 C 263.973 336.289,264.055 336.602,264.155 336.219 C 264.255 335.836,264.255 335.209,264.155 334.826 C 264.055 334.443,263.973 334.756,263.973 335.522 M194.969 335.488 C 194.453 335.907,194.119 336.340,194.229 336.449 C 194.338 336.559,194.930 336.216,195.545 335.688 C 196.860 334.555,196.342 334.375,194.969 335.488 M199.602 335.385 C 199.164 335.478,198.382 335.645,197.863 335.756 C 196.234 336.107,197.131 336.264,198.905 335.939 C 200.814 335.590,201.339 336.829,199.938 338.377 C 199.134 339.265,199.497 339.351,200.370 338.479 C 200.992 337.857,201.266 335.082,200.697 335.171 C 200.532 335.196,200.040 335.292,199.602 335.385 M179.640 336.137 C 179.510 336.474,179.516 336.862,179.652 336.999 C 179.789 337.135,179.900 336.955,179.900 336.599 C 179.900 336.056,180.499 335.929,183.582 335.819 L 187.264 335.688 183.570 335.605 C 180.555 335.538,179.832 335.635,179.640 336.137 M266.020 336.106 C 265.896 336.427,265.888 336.920,266.001 337.201 C 266.114 337.482,266.220 337.315,266.237 336.831 C 266.267 335.998,266.467 335.943,269.950 335.819 L 273.632 335.688 269.938 335.605 C 267.004 335.539,266.198 335.642,266.020 336.106 M152.463 336.772 C 152.449 337.131,152.751 337.766,153.134 338.184 C 153.517 338.601,153.704 338.746,153.548 338.505 C 153.393 338.264,153.091 337.628,152.877 337.093 C 152.631 336.477,152.479 336.359,152.463 336.772 M137.137 338.209 L 136.470 339.303 137.254 338.408 C 138.105 337.436,138.905 337.231,138.905 337.984 C 138.905 338.244,138.502 338.915,138.010 339.477 L 137.114 340.498 138.209 339.533 C 138.811 339.002,139.303 338.241,139.303 337.841 C 139.303 336.720,137.898 336.959,137.137 338.209 M151.079 337.910 C 151.407 339.155,151.941 339.831,153.002 340.347 C 153.814 340.742,153.814 340.735,152.980 340.027 C 152.513 339.629,151.834 338.766,151.473 338.109 C 150.902 337.070,150.851 337.044,151.079 337.910 M185.814 337.469 C 186.582 337.956,186.076 339.191,184.779 339.995 C 184.175 340.369,183.914 340.680,184.197 340.686 C 184.481 340.692,185.152 340.257,185.690 339.720 C 186.841 338.569,186.998 337.112,185.970 337.121 C 185.427 337.125,185.393 337.202,185.814 337.469 M233.831 337.419 C 233.612 337.580,233.170 338.070,232.848 338.507 C 232.359 339.173,232.428 339.156,233.272 338.408 C 233.826 337.915,234.424 337.512,234.599 337.512 C 234.775 337.512,234.817 337.915,234.693 338.408 C 234.478 339.262,234.493 339.269,235.032 338.548 C 235.870 337.427,234.971 336.582,233.831 337.419 M270.868 338.209 L 270.202 339.303 270.985 338.408 C 271.417 337.915,271.965 337.512,272.203 337.512 C 272.905 337.512,272.702 338.386,271.771 339.377 C 271.295 339.884,271.096 340.299,271.328 340.299 C 271.863 340.299,273.035 338.532,273.035 337.725 C 273.035 336.713,271.581 337.038,270.868 338.209 M130.550 337.722 C 130.545 338.409,131.732 339.870,132.657 340.317 C 133.496 340.723,133.501 340.715,132.768 340.128 C 132.348 339.791,131.678 339.020,131.278 338.414 C 130.879 337.809,130.551 337.497,130.550 337.722 M148.547 339.022 L 147.641 340.498 148.646 339.381 C 149.199 338.767,149.652 338.095,149.652 337.888 C 149.652 337.303,149.517 337.441,148.547 339.022 M158.820 339.078 C 158.594 339.501,158.037 339.965,157.582 340.109 C 157.128 340.253,156.844 340.459,156.951 340.566 C 157.279 340.895,158.763 339.928,159.209 339.095 C 159.440 338.663,159.540 338.308,159.431 338.308 C 159.322 338.308,159.047 338.655,158.820 339.078 M178.657 338.996 C 179.159 339.950,180.618 340.908,180.996 340.530 C 181.123 340.403,181.043 340.299,180.817 340.299 C 180.592 340.299,179.908 339.806,179.299 339.204 C 178.351 338.267,178.258 338.237,178.657 338.996 M264.685 338.578 C 264.675 339.126,266.570 340.702,267.218 340.684 C 267.462 340.678,267.303 340.475,266.866 340.235 C 266.428 339.994,265.760 339.417,265.382 338.953 C 265.004 338.489,264.690 338.320,264.685 338.578 M126.843 339.714 C 125.677 340.740,125.716 340.967,126.945 340.310 C 127.342 340.097,127.773 339.649,127.901 339.315 C 128.200 338.534,128.172 338.545,126.843 339.714 M144.419 339.205 C 144.620 339.406,145.207 339.503,145.725 339.422 C 146.522 339.296,146.466 339.240,145.361 339.057 C 144.570 338.926,144.198 338.984,144.419 339.205 M228.004 339.878 C 228.521 340.328,229.148 340.694,229.397 340.690 C 229.872 340.684,229.211 340.157,227.861 339.467 C 227.235 339.147,227.266 339.235,228.004 339.878 M121.393 339.967 C 121.393 340.222,121.506 340.318,121.644 340.180 C 121.783 340.042,122.275 340.111,122.739 340.334 C 123.558 340.729,123.560 340.723,122.810 340.121 C 121.890 339.385,121.393 339.331,121.393 339.967 M199.403 340.141 C 198.735 340.551,198.669 340.662,199.204 340.480 C 200.991 339.870,201.393 339.828,201.393 340.252 C 201.393 340.497,201.594 340.697,201.840 340.697 C 202.148 340.697,202.133 340.512,201.791 340.100 C 201.174 339.356,200.669 339.365,199.403 340.141 M233.058 340.112 C 232.633 340.434,232.465 340.697,232.684 340.697 C 232.903 340.697,233.429 340.434,233.854 340.112 C 234.279 339.791,234.448 339.528,234.229 339.528 C 234.010 339.528,233.483 339.791,233.058 340.112 M255.124 339.967 C 255.124 340.222,255.237 340.318,255.376 340.180 C 255.514 340.042,256.006 340.111,256.470 340.334 C 257.290 340.729,257.292 340.723,256.541 340.121 C 255.621 339.385,255.124 339.331,255.124 339.967 " stroke="none" fill="#707784" fill-rule="evenodd"></path><path id="path3" d="M185.075 187.960 L 185.075 235.423 188.955 235.420 L 192.836 235.416 192.945 188.852 C 193.005 163.242,192.957 141.886,192.838 141.393 C 192.633 140.543,192.432 140.498,188.848 140.498 L 185.075 140.498 185.075 187.960 M197.015 188.207 L 197.015 235.917 198.905 235.555 C 199.945 235.356,201.647 235.307,202.687 235.445 L 204.577 235.697 204.577 188.097 L 204.577 140.498 200.796 140.498 L 197.015 140.498 197.015 188.207 M208.955 188.266 L 208.955 236.035 210.050 235.729 C 210.652 235.561,212.353 235.429,213.831 235.436 L 216.517 235.448 216.517 187.973 L 216.517 140.498 212.736 140.498 L 208.955 140.498 208.955 188.266 M116.697 250.428 C 116.143 250.981,116.080 252.299,116.569 253.071 C 116.755 253.364,119.036 254.238,121.638 255.011 C 124.239 255.785,127.532 256.769,128.955 257.197 C 136.112 259.350,136.201 259.364,137.086 258.479 C 138.988 256.577,137.780 255.538,131.542 253.710 C 129.572 253.133,125.965 252.051,123.526 251.306 C 118.760 249.849,117.445 249.680,116.697 250.428 M280.796 250.527 C 279.920 250.823,276.080 251.982,272.262 253.102 C 263.909 255.552,262.510 256.546,264.666 258.498 C 265.564 259.311,265.984 259.231,274.826 256.553 C 277.453 255.757,280.737 254.812,282.123 254.453 C 285.164 253.665,286.216 252.520,285.363 250.927 C 284.756 249.792,283.335 249.668,280.796 250.527 " stroke="none" fill="#f1511b" fill-rule="evenodd"></path><path id="path4" d="M47.856 44.279 L 47.761 60.498 44.782 60.498 L 41.804 60.498 41.698 49.453 L 41.592 38.408 37.931 38.294 L 34.269 38.180 34.115 36.202 L 33.961 34.224 33.995 36.316 L 34.030 38.408 37.705 38.522 L 41.380 38.637 41.486 49.667 L 41.592 60.697 44.683 60.813 C 48.556 60.959,48.188 62.793,48.060 43.979 L 47.951 28.060 47.856 44.279 M110.182 72.338 C 159.946 72.394,241.259 72.394,290.878 72.338 C 340.497 72.283,299.781 72.237,200.398 72.237 C 101.015 72.237,60.418 72.283,110.182 72.338 M180.891 177.512 C 180.891 212.647,180.938 227.020,180.995 209.453 C 181.052 191.886,181.052 163.139,180.995 145.572 C 180.938 128.005,180.891 142.378,180.891 177.512 M185.229 134.300 C 184.435 136.370,184.036 136.318,200.801 136.318 L 216.318 136.318 216.318 135.124 L 216.318 133.930 200.885 133.826 C 187.686 133.737,185.419 133.806,185.229 134.300 M143.113 209.321 C 142.062 210.483,142.170 210.695,149.037 220.920 C 157.025 232.815,157.130 232.918,159.023 230.826 C 159.977 229.771,160.106 230.008,152.088 218.100 C 145.380 208.139,144.745 207.518,143.113 209.321 M255.483 209.465 C 249.708 217.471,242.355 229.021,242.462 229.917 C 242.617 231.212,243.552 231.842,244.814 231.499 C 245.917 231.200,258.814 212.299,259.034 210.661 C 259.309 208.607,256.728 207.738,255.483 209.465 M275.417 275.106 C 275.311 276.354,275.369 277.230,275.546 277.052 C 275.724 276.874,275.811 275.852,275.739 274.782 L 275.609 272.836 275.417 275.106 M125.880 275.025 C 125.880 276.010,125.957 276.413,126.052 275.920 C 126.147 275.428,126.147 274.622,126.052 274.129 C 125.957 273.637,125.880 274.040,125.880 275.025 M174.886 284.734 C 174.769 285.040,174.745 285.980,174.832 286.824 C 174.983 288.283,174.994 288.266,175.057 286.470 L 175.124 284.582 203.483 284.478 L 231.841 284.373 203.470 284.276 C 179.505 284.194,175.066 284.265,174.886 284.734 M177.267 303.459 C 177.146 303.775,177.117 304.357,177.203 304.753 C 177.300 305.202,177.437 304.987,177.566 304.179 C 177.782 302.824,177.642 302.484,177.267 303.459 M180.251 304.167 C 180.434 305.272,180.490 305.328,180.616 304.531 C 180.697 304.013,180.600 303.426,180.399 303.225 C 180.178 303.004,180.120 303.376,180.251 304.167 M269.217 303.434 C 269.102 303.735,269.066 304.855,269.138 305.921 L 269.269 307.861 269.460 305.372 C 269.654 302.858,269.601 302.435,269.217 303.434 M178.795 306.742 L 180.276 306.912 180.404 311.964 L 180.532 317.015 180.515 311.841 L 180.498 306.667 178.905 306.619 L 177.313 306.572 178.795 306.742 M189.703 306.782 C 189.596 306.956,190.123 307.026,190.874 306.938 C 191.625 306.850,192.239 306.709,192.239 306.623 C 192.239 306.324,189.896 306.471,189.703 306.782 M196.020 306.762 C 196.677 306.858,197.414 307.102,197.659 307.304 C 197.947 307.542,198.297 307.424,198.654 306.970 C 199.147 306.341,199.135 306.322,198.543 306.785 C 198.098 307.133,197.797 307.166,197.624 306.885 C 197.482 306.655,196.794 306.494,196.096 306.527 L 194.826 306.587 196.020 306.762 M212.442 306.749 C 212.938 306.844,213.654 306.841,214.034 306.741 C 214.415 306.642,214.010 306.564,213.134 306.568 C 212.259 306.572,211.947 306.654,212.442 306.749 M219.209 306.749 C 219.704 306.844,220.420 306.841,220.801 306.741 C 221.181 306.642,220.776 306.564,219.900 306.568 C 219.025 306.572,218.714 306.654,219.209 306.749 M223.925 306.794 C 223.814 306.973,224.251 307.042,224.897 306.947 C 225.542 306.853,226.070 306.706,226.070 306.621 C 226.070 306.318,224.122 306.475,223.925 306.794 M256.224 306.749 C 256.719 306.844,257.435 306.841,257.816 306.741 C 258.196 306.642,257.791 306.564,256.915 306.568 C 256.040 306.572,255.728 306.654,256.224 306.749 M265.572 306.742 C 265.955 306.842,266.582 306.842,266.965 306.742 C 267.348 306.642,267.035 306.560,266.269 306.560 C 265.502 306.560,265.189 306.642,265.572 306.742 M158.563 312.239 C 158.563 315.085,158.627 316.197,158.703 314.710 C 158.780 313.223,158.780 310.895,158.702 309.536 C 158.625 308.177,158.562 309.393,158.563 312.239 M177.268 312.040 C 177.268 314.776,177.331 315.896,177.409 314.527 C 177.487 313.159,177.487 310.920,177.409 309.552 C 177.331 308.184,177.268 309.303,177.268 312.040 M192.396 312.637 C 192.396 315.701,192.459 316.903,192.535 315.306 C 192.610 313.709,192.610 311.202,192.534 309.734 C 192.457 308.266,192.395 309.572,192.396 312.637 M218.249 310.448 C 218.249 312.308,218.317 313.070,218.401 312.139 C 218.485 311.209,218.485 309.687,218.401 308.756 C 218.317 307.826,218.249 308.587,218.249 310.448 M249.326 312.207 C 249.348 315.009,249.479 315.791,249.950 315.919 C 250.374 316.033,250.408 315.981,250.067 315.739 C 249.779 315.534,249.530 314.049,249.443 312.027 L 249.299 308.657 249.326 312.207 M240.896 309.652 C 240.985 309.980,241.491 310.282,242.021 310.322 C 242.781 310.380,242.817 310.349,242.189 310.177 C 241.751 310.056,241.245 309.755,241.064 309.506 C 240.847 309.208,240.790 309.257,240.896 309.652 M201.136 313.433 C 201.135 315.403,201.202 316.259,201.286 315.335 C 201.369 314.412,201.370 312.800,201.288 311.753 C 201.206 310.707,201.138 311.463,201.136 313.433 M148.550 312.040 C 148.550 312.806,148.632 313.119,148.732 312.736 C 148.832 312.353,148.832 311.726,148.732 311.343 C 148.632 310.960,148.550 311.274,148.550 312.040 M181.983 312.040 C 181.983 312.806,182.065 313.119,182.165 312.736 C 182.265 312.353,182.265 311.726,182.165 311.343 C 182.065 310.960,181.983 311.274,181.983 312.040 M132.668 314.229 C 132.670 315.761,132.742 316.339,132.828 315.514 C 132.914 314.688,132.912 313.434,132.825 312.727 C 132.737 312.021,132.666 312.697,132.668 314.229 M197.547 314.428 C 197.547 316.070,197.617 316.741,197.703 315.920 C 197.789 315.100,197.789 313.756,197.703 312.935 C 197.617 312.114,197.547 312.786,197.547 314.428 M253.666 314.428 C 253.666 316.070,253.736 316.741,253.822 315.920 C 253.908 315.100,253.908 313.756,253.822 312.935 C 253.736 312.114,253.666 312.786,253.666 314.428 M226.462 319.086 C 226.356 320.444,226.413 321.410,226.590 321.233 C 226.767 321.055,226.854 319.944,226.783 318.763 L 226.655 316.617 226.462 319.086 M162.170 335.422 C 162.189 340.409,162.205 340.498,163.091 340.550 C 163.817 340.593,163.839 340.569,163.202 340.425 C 162.474 340.260,162.401 339.854,162.282 335.297 L 162.152 330.347 162.170 335.422 M176.002 336.391 L 175.920 340.246 174.826 340.411 L 173.731 340.577 174.838 340.637 C 176.267 340.714,176.378 340.346,176.218 336.088 L 176.084 332.537 176.002 336.391 M249.298 336.318 C 249.298 338.398,249.365 339.249,249.447 338.209 C 249.529 337.169,249.529 335.468,249.447 334.428 C 249.365 333.388,249.298 334.239,249.298 336.318 M233.234 333.712 C 233.234 334.141,232.591 334.327,230.746 334.432 L 228.259 334.573 230.945 334.650 C 233.392 334.720,233.632 334.655,233.632 333.930 C 233.632 333.493,233.542 333.134,233.433 333.134 C 233.323 333.134,233.234 333.394,233.234 333.712 M137.313 333.864 C 137.313 334.160,136.413 334.356,134.826 334.404 L 132.338 334.479 134.685 334.624 C 136.865 334.759,138.226 334.312,137.585 333.672 C 137.436 333.522,137.313 333.609,137.313 333.864 M170.030 336.788 C 169.955 340.025,169.894 340.254,169.055 340.416 L 168.159 340.588 169.067 340.642 C 170.267 340.714,170.409 340.213,170.247 336.482 L 170.110 333.333 170.030 336.788 M184.677 333.864 C 184.677 334.160,183.776 334.356,182.189 334.404 L 179.701 334.479 182.048 334.624 C 184.228 334.759,185.589 334.312,184.949 333.672 C 184.799 333.522,184.677 333.609,184.677 333.864 M271.045 333.864 C 271.045 334.160,270.144 334.356,268.557 334.404 L 266.070 334.479 268.416 334.624 C 270.596 334.759,271.957 334.312,271.317 333.672 C 271.167 333.522,271.045 333.609,271.045 333.864 M129.048 335.124 C 129.048 335.891,129.129 336.204,129.230 335.821 C 129.330 335.438,129.330 334.811,129.230 334.428 C 129.129 334.045,129.048 334.358,129.048 335.124 M150.540 335.522 C 150.540 336.289,150.622 336.602,150.722 336.219 C 150.822 335.836,150.822 335.209,150.722 334.826 C 150.622 334.443,150.540 334.756,150.540 335.522 M254.527 340.299 L 253.333 340.602 254.404 340.649 C 254.993 340.675,255.586 340.517,255.721 340.299 C 255.857 340.080,255.912 339.922,255.844 339.948 C 255.777 339.973,255.184 340.131,254.527 340.299 M144.781 340.978 C 145.276 341.073,145.992 341.070,146.373 340.970 C 146.753 340.870,146.348 340.792,145.473 340.797 C 144.597 340.801,144.286 340.883,144.781 340.978 " stroke="none" fill="#66c430" fill-rule="evenodd"></path></g></svg>