<?xml version="1.0" encoding="utf-8"?>
<!-- Generator: Adobe Illustrator 21.1.0, SVG Export Plug-In . SVG Version: 6.00 Build 0)  -->
<svg version="1.1" id="Capa_1" xmlns="http://www.w3.org/2000/svg" xmlns:xlink="http://www.w3.org/1999/xlink" x="0px" y="0px"
	 viewBox="0 0 56 56" style="enable-background:new 0 0 56 56;" xml:space="preserve">
<style type="text/css">
	.st0{fill:#146DA3;}
</style>
<g>
	<path class="st0" d="M28,44c-0.6,0-1-0.4-1-1V5c0-0.6,0.4-1,1-1s1,0.4,1,1v38C29,43.6,28.6,44,28,44z"/>
	<path class="st0" d="M16,18c-0.3,0-0.5-0.1-0.7-0.3c-0.4-0.4-0.4-1,0-1.4l12-12c0.4-0.4,1-0.4,1.4,0s0.4,1,0,1.4l-12,12
		C16.5,17.9,16.3,18,16,18z"/>
	<path class="st0" d="M40,18c-0.3,0-0.5-0.1-0.7-0.3l-12-12c-0.4-0.4-0.4-1,0-1.4s1-0.4,1.4,0l12,12c0.4,0.4,0.4,1,0,1.4
		C40.5,17.9,40.3,18,40,18z"/>
	<path class="st0" d="M40,18c-0.3,0-0.5-0.1-0.7-0.3l-12-12c-0.4-0.4-0.4-1,0-1.4s1-0.4,1.4,0l12,12c0.4,0.4,0.4,1,0,1.4
		C40.5,17.9,40.3,18,40,18z"/>
	<path class="st0" d="M56,52H0V39c0-0.6,0.4-1,1-1s1,0.4,1,1v11h52V39c0-0.6,0.4-1,1-1s1,0.4,1,1V52z"/>
</g>
</svg>
