<?xml version="1.0" encoding="utf-8"?>
<!-- Generator: Adobe Illustrator 22.1.0, SVG Export Plug-In . SVG Version: 6.00 Build 0)  -->
<svg version="1.1" id="Capa_1" xmlns="http://www.w3.org/2000/svg" xmlns:xlink="http://www.w3.org/1999/xlink" x="0px" y="0px"
	 viewBox="0 0 60.5 60.5" style="enable-background:new 0 0 60.5 60.5;" xml:space="preserve">
<style type="text/css">
	.st0{fill:#E7ECED;}
	.st1{fill:#556080;}
	.st2{fill:#5FCB3A;}
	.st3{fill:#FFFEFF;}
</style>
<path class="st0" d="M18.8,43.1l-8,4.4c-0.5,0.3-0.9,0.6-1.3,0.9c4.7,3.9,10.7,6.3,17.3,6.3c6.5,0,12.5-2.3,17.2-6.2
	c-0.4-0.4-0.9-0.7-1.4-0.9L34,43.2c-1.1-0.6-1.8-1.7-1.8-2.9v-3.4c0.2-0.3,0.5-0.6,0.8-1c1.2-1.7,2.1-3.5,2.7-5.4
	c1.1-0.3,1.9-1.4,1.9-2.6v-3.6c0-0.8-0.4-1.5-0.9-2v-5.2c0,0,1.1-8.1-9.9-8.1S17,17.2,17,17.2v5.2c-0.5,0.5-0.9,1.2-0.9,2V28
	c0,0.9,0.5,1.8,1.2,2.3c0.9,3.9,3.2,6.7,3.2,6.7v3.3C20.6,41.4,19.9,42.5,18.8,43.1z"/>
<g>
	<path class="st1" d="M27.3,1C12.5,0.8,0.3,12.6,0,27.4c-0.1,8.4,3.6,16,9.6,21c0.4-0.3,0.8-0.7,1.3-0.9l8-4.4
		c1.1-0.6,1.7-1.7,1.7-2.9v-3.3c0,0-2.4-2.8-3.2-6.7c-0.7-0.5-1.2-1.3-1.2-2.3v-3.6c0-0.8,0.4-1.5,0.9-2v-5.2c0,0-1.1-8.1,9.9-8.1
		s9.9,8.1,9.9,8.1v5.2c0.5,0.5,0.9,1.2,0.9,2v3.6c0,1.2-0.8,2.2-1.9,2.6c-0.6,1.9-1.5,3.7-2.7,5.4c-0.3,0.4-0.6,0.8-0.8,1v3.4
		c0,1.2,0.7,2.4,1.8,2.9l8.6,4.3c0.5,0.3,1,0.6,1.4,0.9c5.8-4.8,9.5-12,9.7-20.2C53.9,13.5,42.1,1.3,27.3,1z"/>
</g>
<g>
	<circle class="st2" cx="48.4" cy="45.8" r="11.9"/>
	<path class="st3" d="M54.1,46.7h-4.8v5c0,0.5-0.4,0.9-0.9,0.9s-0.9-0.4-0.9-0.9v-5h-4.8c-0.5,0-0.9-0.4-0.9-0.9s0.4-0.9,0.9-0.9
		h4.8v-4.6c0-0.5,0.4-0.9,0.9-0.9s0.9,0.4,0.9,0.9v4.6h4.8c0.5,0,0.9,0.4,0.9,0.9S54.6,46.7,54.1,46.7z"/>
</g>
</svg>
