<?xml version="1.0" encoding="UTF-8" standalone="no"?>
<svg
   xmlns:dc="http://purl.org/dc/elements/1.1/"
   xmlns:cc="http://creativecommons.org/ns#"
   xmlns:rdf="http://www.w3.org/1999/02/22-rdf-syntax-ns#"
   xmlns:svg="http://www.w3.org/2000/svg"
   xmlns="http://www.w3.org/2000/svg"
   viewBox="0 0 74.666664 85.333336"
   height="85.333336"
   width="74.666664"
   xml:space="preserve"
   id="svg2"
   version="1.1"><metadata
     id="metadata8"><rdf:RDF><cc:Work
         rdf:about=""><dc:format>image/svg+xml</dc:format><dc:type
           rdf:resource="http://purl.org/dc/dcmitype/StillImage" /></cc:Work></rdf:RDF></metadata><defs
     id="defs6" /><g
     transform="matrix(1.3333333,0,0,-1.3333333,0,85.333333)"
     id="g10"><g
       transform="scale(0.1)"
       id="g12"><path
         id="path14"
         style="fill:#f1511b;fill-opacity:1;fill-rule:nonzero;stroke:none"
         d="m 111.25,580 c 0,-28.305 -22.9492,-51.25 -51.25,-51.25 -28.3008,0 -51.25,22.945 -51.25,51.25 0,28.305 22.9492,51.25 51.25,51.25 28.3008,0 51.25,-22.945 51.25,-51.25" /><path
         id="path16"
         style="fill:#f1511b;fill-opacity:1;fill-rule:nonzero;stroke:none"
         d="M 551.25,60 C 551.25,31.6953 528.301,8.75 500,8.75 c -28.301,0 -51.25,22.9453 -51.25,51.25 0,28.3047 22.949,51.25 51.25,51.25 28.301,0 51.25,-22.9453 51.25,-51.25" /><path
         id="path18"
         style="fill:#66c430;fill-opacity:1;fill-rule:nonzero;stroke:none"
         d="m 551.25,580 c 0,-28.305 -22.949,-51.25 -51.25,-51.25 -28.301,0 -51.25,22.945 -51.25,51.25 0,28.305 22.949,51.25 51.25,51.25 28.301,0 51.25,-22.945 51.25,-51.25" /><path
         id="path20"
         style="fill:#66c430;fill-opacity:1;fill-rule:nonzero;stroke:none"
         d="M 111.25,60 C 111.25,31.6953 88.3008,8.75 60,8.75 31.6992,8.75 8.75,31.6953 8.75,60 c 0,28.3047 22.9492,51.25 51.25,51.25 28.3008,0 51.25,-22.9453 51.25,-51.25" /><path
         id="path22"
         style="fill:#146da3;fill-opacity:1;fill-rule:nonzero;stroke:none"
         d="m 331.25,580 c 0,-28.305 -22.949,-51.25 -51.25,-51.25 -28.301,0 -51.25,22.945 -51.25,51.25 0,28.305 22.949,51.25 51.25,51.25 28.301,0 51.25,-22.945 51.25,-51.25" /><path
         id="path24"
         style="fill:#146da3;fill-opacity:1;fill-rule:nonzero;stroke:none"
         d="M 331.25,60 C 331.25,31.6953 308.301,8.75 280,8.75 c -28.301,0 -51.25,22.9453 -51.25,51.25 0,28.3047 22.949,51.25 51.25,51.25 28.301,0 51.25,-22.9453 51.25,-51.25" /><path
         id="path26"
         style="fill:#66c430;fill-opacity:1;fill-rule:nonzero;stroke:none"
         d="M 408.75,271.25 H 152.5 v 100 h 256.25 v -100" /><path
         id="path28"
         style="fill:#142339;fill-opacity:1;fill-rule:nonzero;stroke:none"
         d="m 160,280 h 240 v 80 H 160 Z M 420,260 H 140 V 380 H 420 V 260" /><path
         id="path30"
         style="fill:#142339;fill-opacity:1;fill-rule:nonzero;stroke:none"
         d="M 140,330 H 80 c -16.543,0 -30,13.457 -30,30 V 490 H 70 V 360 c 0,-5.52 4.4805,-10 10,-10 h 60 v -20" /><path
         id="path32"
         style="fill:#142339;fill-opacity:1;fill-rule:nonzero;stroke:none"
         d="M 92.9297,442.93 60,475.859 27.0703,442.93 l -14.1406,14.14 40,40 c 3.9062,3.907 10.2344,3.907 14.1406,0 l 39.9997,-40 -14.1403,-14.14" /><path
         id="path34"
         style="fill:#142339;fill-opacity:1;fill-rule:nonzero;stroke:none"
         d="m 480,330 h -60 v 20 h 60 c 5.52,0 10,4.48 10,10 v 130 h 20 V 360 c 0,-16.543 -13.457,-30 -30,-30" /><path
         id="path36"
         style="fill:#142339;fill-opacity:1;fill-rule:nonzero;stroke:none"
         d="M 532.93,442.93 500,475.859 467.07,442.93 452.93,457.07 500,504.141 547.07,457.07 532.93,442.93" /><path
         id="path38"
         style="fill:#142339;fill-opacity:1;fill-rule:nonzero;stroke:none"
         d="m 290,380 h -20 v 110 h 20 V 380" /><path
         id="path40"
         style="fill:#142339;fill-opacity:1;fill-rule:nonzero;stroke:none"
         d="M 312.93,442.93 280,475.859 247.07,442.93 232.93,457.07 280,504.141 327.07,457.07 312.93,442.93" /><path
         id="path42"
         style="fill:#142339;fill-opacity:1;fill-rule:nonzero;stroke:none"
         d="M 70,150 H 50 v 130 c 0,16.543 13.457,30 30,30 h 60 V 290 H 80 c -5.5195,0 -10,-4.48 -10,-10 V 150" /><path
         id="path44"
         style="fill:#142339;fill-opacity:1;fill-rule:nonzero;stroke:none"
         d="m 60,140 c -2.5586,0 -5.1172,0.977 -7.0703,2.93 l -40,40 14.1406,14.14 L 60,164.141 92.9297,197.07 107.07,182.93 67.0703,142.93 C 65.1172,140.977 62.5586,140 60,140" /><path
         id="path46"
         style="fill:#142339;fill-opacity:1;fill-rule:nonzero;stroke:none"
         d="m 510,150 h -20 v 130 c 0,5.52 -4.48,10 -10,10 h -60 v 20 h 60 c 16.543,0 30,-13.457 30,-30 V 150" /><path
         id="path48"
         style="fill:#142339;fill-opacity:1;fill-rule:nonzero;stroke:none"
         d="M 500,135.859 452.93,182.93 467.07,197.07 500,164.141 532.93,197.07 547.07,182.93 500,135.859" /><path
         id="path50"
         style="fill:#142339;fill-opacity:1;fill-rule:nonzero;stroke:none"
         d="m 290,150 h -20 v 110 h 20 V 150" /><path
         id="path52"
         style="fill:#142339;fill-opacity:1;fill-rule:nonzero;stroke:none"
         d="M 280,135.859 232.93,182.93 247.07,197.07 280,164.141 312.93,197.07 327.07,182.93 280,135.859" /><path
         id="path54"
         style="fill:#142339;fill-opacity:1;fill-rule:nonzero;stroke:none"
         d="m 60,620 c -22.0586,0 -40,-17.941 -40,-40 0,-22.059 17.9414,-40 40,-40 22.0586,0 40,17.941 40,40 0,22.059 -17.9414,40 -40,40 z m 0,-100 c -33.0859,0 -60,26.914 -60,60 0,33.086 26.9141,60 60,60 33.0859,0 60,-26.914 60,-60 0,-33.086 -26.9141,-60 -60,-60" /><path
         id="path56"
         style="fill:#142339;fill-opacity:1;fill-rule:nonzero;stroke:none"
         d="m 280,620 c -22.062,0 -40,-17.941 -40,-40 0,-22.059 17.938,-40 40,-40 22.063,0 40,17.941 40,40 0,22.059 -17.937,40 -40,40 z m 0,-100 c -33.086,0 -60,26.914 -60,60 0,33.086 26.914,60 60,60 33.086,0 60,-26.914 60,-60 0,-33.086 -26.914,-60 -60,-60" /><path
         id="path58"
         style="fill:#142339;fill-opacity:1;fill-rule:nonzero;stroke:none"
         d="m 500,620 c -22.062,0 -40,-17.941 -40,-40 0,-22.059 17.938,-40 40,-40 22.063,0 40,17.941 40,40 0,22.059 -17.937,40 -40,40 z m 0,-100 c -33.086,0 -60,26.914 -60,60 0,33.086 26.914,60 60,60 33.086,0 60,-26.914 60,-60 0,-33.086 -26.914,-60 -60,-60" /><path
         id="path60"
         style="fill:#142339;fill-opacity:1;fill-rule:nonzero;stroke:none"
         d="M 60,100 C 37.9414,100 20,82.0625 20,60 20,37.9375 37.9414,20 60,20 c 22.0586,0 40,17.9375 40,40 0,22.0625 -17.9414,40 -40,40 z M 60,0 C 26.9141,0 0,26.9141 0,60 0,93.0859 26.9141,120 60,120 93.0859,120 120,93.0859 120,60 120,26.9141 93.0859,0 60,0" /><path
         id="path62"
         style="fill:#142339;fill-opacity:1;fill-rule:nonzero;stroke:none"
         d="m 280,100 c -22.062,0 -40,-17.9375 -40,-40 0,-22.0625 17.938,-40 40,-40 22.063,0 40,17.9375 40,40 0,22.0625 -17.937,40 -40,40 z M 280,0 c -33.086,0 -60,26.9141 -60,60 0,33.0859 26.914,60 60,60 33.086,0 60,-26.9141 60,-60 C 340,26.9141 313.086,0 280,0" /><path
         id="path64"
         style="fill:#142339;fill-opacity:1;fill-rule:nonzero;stroke:none"
         d="m 500,100 c -22.062,0 -40,-17.9375 -40,-40 0,-22.0625 17.938,-40 40,-40 22.063,0 40,17.9375 40,40 0,22.0625 -17.937,40 -40,40 z M 500,0 c -33.086,0 -60,26.9141 -60,60 0,33.0859 26.914,60 60,60 33.086,0 60,-26.9141 60,-60 C 560,26.9141 533.086,0 500,0" /><path
         id="path66"
         style="fill:#142339;fill-opacity:1;fill-rule:nonzero;stroke:none"
         d="m 290,310 h -20 v 20 h 20 v -20" /><path
         id="path68"
         style="fill:#142339;fill-opacity:1;fill-rule:nonzero;stroke:none"
         d="m 250,310 h -20 v 20 h 20 v -20" /><path
         id="path70"
         style="fill:#142339;fill-opacity:1;fill-rule:nonzero;stroke:none"
         d="m 330,310 h -20 v 20 h 20 v -20" /></g></g></svg>